{
.appVersion = "3306";
.formatVersion = 3;
DisplayStrings = (
"nnononoo nnanoaoo nnbnoboo nncnocoo nndnodoo nnenoeoo nnfnofoo nngnogoo nnhnohoo nninoioo nnjnojoo nnknokoo nnlnoloo nnmnomoo nnpnopoo nnqnoqoo nnrnoroo nnsnosoo nntnotoo nnunouoo nnvnovoo nnwnowoo nnxnoxoo nnynoyoo nnznozoo omoni oboli jesam obono allison ijikeme ejikeme object of my earliest affections and fantasies objections & fantasies

HHOHOHOO HHAHOAOO HHBHOBOO HHCHOCOO HHDHODOO HHEHOEOO HHFHOFOO HHGHOGOO HHIHOIOO HHJHOJOO HHKHOKOO HHLHOLOO HHMHOMOO HHNHONOO HHPHOPOO HHQHOQOO HHRHOROO HHSHOSOO HHTHOTOO HHUHOUOO HHVHOVOO HHWHOWOO HHXHOXOO HHYHOYOO HHZHOZOO

00808088 00108188 00208288 00308388 00408488 00508588 00608688 00708788 00908988",
"ESPRESSO
espresso
café au lait, s'il vous plait éè
It   is a great misfortune to be alone, my friends; and it must be believed that solitude can quickly destroy reason. ",
"ndnďlďhďoďndď*ď”",
"ẞß",
"ɓƈɠɦɩcg vⱳowƴoyw",
"ƖƁƇƊƓꞪƝƤⱤƬƮWⱲƳY
WYK",
"ƘASAR MIƘE ƘHIYINNA YAƘI NJAƘƘA BAƘNAS ROƘO ZIƘTIYA DURƘUSHE ƘWALAI ƘYI GAAƳ-AT
ƳIIƳAM ƳOƳƁE KAƳCO TAƳDE ƁOOƳE TAAƳGUWOŊ GUƳIIƁE KAƳKO KAƳNI MOƳƳO DEEƳRE WEƳTU FEƳƳUƊO MOƳYERE
ⱲAGA ⱲELE ⱲƐƆ ⱲIƏ ⱲƖƖRE ⱲƆ ⱲƲA
ƙasar miƙe ƙhiyinna yaƙi njaƙƙa baƙnas roƙo Ziƙtiya durƙushe ƙwalai ƙyi Gaaƴ-at
ƴiiƴam ƴoƴɓe kaƴco taƴde ɓooƴe taaƴguwoŋ Guƴiiɓe kaƴko kaƴni Moƴƴo deeƴre weƴtu feƴƴuɗo moƴyere
ⱳaga ⱳele ⱳɛɔ ⱳiə ⱳɩɩre ⱳɔ ⱳʋa
Ƙa Ƙe Ƙh Ƙi Ƙƙ Ƙo Ƙu Ƙw Ƙy
Ƴa Ƴe Ƴi Ƴo Ƴu Ƴy
Ⱳa Ⱳe Ⱳɛ Ⱳi Ⱳɩ Ⱳɔ Ⱳʋ",
"/acutecomb_macroncomb ̌ǍČĎĚǮǦǨŇǑŘŠŤŽǎčěǯǧǩňǒřšžˇ",
"aạơưỵt/circumflexcomb_hookabovecomb 
take the pain away bpdqgce",
"/circumflexcomb_hookabovecomb Ẩ",
"¡  ·  •/backslash  ",
"Ʋtʋ"
);
axes = (
{
name = Weight;
tag = wght;
},
{
name = Italic;
tag = ital;
}
);
classes = (
{
automatic = 1;

glyphs = (
{
glyphname = A;
kernLeft = A;
kernRight = A;
lastChange = "2025-06-08 03:37:09 +0000";
layers = (
{
anchors = (
{
name = bottom;
pos = (302,80);
},
{
name = ogonek;
pos = (672,10);
},
{
name = top;
pos = (302,680);
}
);
layerId = m01;
shapes = (
{
closed = 1;
nodes = (
(40,0,l),
(309,682,l),
(297,682,l),
(564,0,l),
(594,0,l),
(319,700,l),
(287,700,l),
(10,0,l)
);
},
{
closed = 1;
nodes = (
(499,184,l),
(499,206,l),
(104,206,l),
(104,184,l)
);
}
);
width = 604;
},
{
anchors = (
{
name = bottom;
pos = (336,80);
},
{
name = ogonek;
pos = (679,10);
},
{
name = top;
pos = (336,700);
}
);
layerId = m002;
shapes = (
{
closed = 1;
nodes = (
(105,0,l),
(349,642,l),
(323,642,l),
(566,0,l),
(661,0,l),
(386,700,l),
(286,700,l),
(10,0,l)
);
},
{
closed = 1;
nodes = (
(547,156,l),
(547,234,l),
(127,234,l),
(127,156,l)
);
}
);
width = 671;
},
{
anchors = (
{
name = bottom;
pos = (381,0);
},
{
name = ogonek;
pos = (685,10);
},
{
name = top;
pos = (381,700);
}
);
layerId = m003;
shapes = (
{
closed = 1;
nodes = (
(185,0,l),
(429,642,l),
(333,642,l),
(576,0,l),
(751,0,l),
(476,700,l),
(286,700,l),
(10,0,l)
);
},
{
closed = 1;
nodes = (
(587,137,l),
(587,253,l),
(167,253,l),
(167,137,l)
);
}
);
width = 761;
},
{
anchors = (
{
name = bottom;
pos = (274,80);
},
{
name = ogonek;
pos = (631,10);
},
{
name = top;
pos = (380,680);
}
);
layerId = m004;
shapes = (
{
closed = 1;
nodes = (
(-2,0,l),
(387,682,l),
(375,682,l),
(522,0,l),
(552,0,l),
(400,700,l),
(368,700,l),
(-32,0,l)
);
},
{
closed = 1;
nodes = (
(489,184,l),
(493,206,l),
(98,206,l),
(94,184,l)
);
}
);
width = 604;
},
{
anchors = (
{
name = bottom;
pos = (308,80);
},
{
name = ogonek;
pos = (638,10);
},
{
name = top;
pos = (417,700);
}
);
layerId = m005;
shapes = (
{
closed = 1;
nodes = (
(63,0,l),
(420,642,l),
(394,642,l),
(524,0,l),
(619,0,l),
(467,700,l),
(367,700,l),
(-32,0,l)
);
},
{
closed = 1;
nodes = (
(532,156,l),
(546,234,l),
(126,234,l),
(112,156,l)
);
}
);
width = 671;
},
{
anchors = (
{
name = bottom;
pos = (339,0);
},
{
name = ogonek;
pos = (644,10);
},
{
name = top;
pos = (462,700);
}
);
layerId = m006;
shapes = (
{
closed = 1;
nodes = (
(143,0,l),
(500,642,l),
(404,642,l),
(534,0,l),
(709,0,l),
(557,700,l),
(367,700,l),
(-32,0,l)
);
},
{
closed = 1;
nodes = (
(569,137,l),
(589,253,l),
(169,253,l),
(149,137,l)
);
}
);
width = 761;
}
);
unicode = 65;
},
{
glyphname = "Alpha-latin";
lastChange = "2025-06-08 05:15:42 +0000";
layers = (
{
anchors = (
{
name = bottom;
pos = (347,0);
},
{
name = top;
pos = (347,700);
}
);
layerId = m01;
shapes = (
{
closed = 1;
nodes = (
(620,-16,o),
(784,145,o),
(784,350,cs),
(784,555,o),
(620,716,o),
(411,716,cs),
(206,716,o),
(45,555,o),
(45,350,cs),
(45,145,o),
(206,-16,o),
(411,-16,cs)
);
},
{
closed = 1;
nodes = (
(225,8,o),
(75,158,o),
(75,350,cs),
(75,542,o),
(225,692,o),
(417,692,cs),
(609,692,o),
(759,542,o),
(759,350,cs),
(759,158,o),
(609,8,o),
(417,8,cs)
);
},
{
closed = 1;
nodes = (
(933,0,l),
(933,26,l),
(894,26,ls),
(834,26,o),
(787,73,o),
(787,133,c),
(787,568,ls),
(787,627,o),
(834,674,o),
(893,674,cs),
(933,674,l),
(933,700,l),
(889,700,ls),
(816,700,o),
(759,642,o),
(759,569,cs),
(759,131,l),
(759,58,o),
(817,0,o),
(890,0,cs)
);
}
);
width = 998;
},
{
anchors = (
{
name = bottom;
pos = (308,0);
},
{
name = top;
pos = (308,700);
}
);
layerId = m002;
shapes = (
{
closed = 1;
nodes = (
(586,-16,o),
(747,145,o),
(747,350,cs),
(747,555,o),
(586,716,o),
(381,716,cs),
(179,716,o),
(20,555,o),
(20,350,cs),
(20,145,o),
(179,-16,o),
(381,-16,cs)
);
},
{
closed = 1;
nodes = (
(235,66,o),
(110,191,o),
(110,350,cs),
(110,509,o),
(235,634,o),
(394,634,cs),
(553,634,o),
(678,509,o),
(678,350,cs),
(678,191,o),
(553,66,o),
(394,66,cs)
);
},
{
closed = 1;
nodes = (
(902,0,l),
(902,78,l),
(831,78,ls),
(795,78,o),
(766,107,o),
(766,143,cs),
(766,557,ls),
(766,593,o),
(795,622,o),
(831,622,cs),
(902,622,l),
(902,700,l),
(806,700,ls),
(734,700,o),
(678,644,o),
(678,572,cs),
(678,128,ls),
(678,56,o),
(734,0,o),
(806,0,cs)
);
}
);
width = 952;
},
{
anchors = (
{
name = bottom;
pos = (321,0);
},
{
name = top;
pos = (321,700);
}
);
layerId = m003;
shapes = (
{
closed = 1;
nodes = (
(576,-16,o),
(737,145,o),
(737,350,cs),
(737,555,o),
(576,716,o),
(370,716,cs),
(177,716,o),
(25,555,o),
(25,350,cs),
(25,145,o),
(177,-16,o),
(370,-16,cs)
);
},
{
closed = 1;
nodes = (
(283,142,o),
(191,234,o),
(191,350,cs),
(191,466,o),
(283,558,o),
(399,558,cs),
(515,558,o),
(607,466,o),
(607,350,cs),
(607,234,o),
(515,142,o),
(399,142,cs)
);
},
{
closed = 1;
nodes = (
(924,0,l),
(924,136,l),
(823,136,ls),
(794,136,o),
(771,158,o),
(771,187,cs),
(771,512,ls),
(771,541,o),
(794,564,o),
(823,564,cs),
(924,564,l),
(924,700,l),
(774,700,ls),
(680,700,o),
(607,627,o),
(607,534,cs),
(607,167,ls),
(607,73,o),
(680,0,o),
(774,0,cs)
);
}
);
width = 974;
},
{
anchors = (
{
name = bottom;
pos = (305,0);
},
{
name = top;
pos = (428,700);
}
);
layerId = m004;
shapes = (
{
closed = 1;
nodes = (
(576,-16,o),
(767,144,o),
(803,349,cs),
(839,554,o),
(703,716,o),
(494,716,cs),
(289,716,o),
(101,556,o),
(65,351,cs),
(28,146,o),
(162,-16,o),
(367,-16,cs)
);
},
{
closed = 1;
nodes = (
(183,8,o),
(60,157,o),
(94,349,cs),
(128,541,o),
(306,692,o),
(498,692,cs),
(690,692,o),
(812,543,o),
(779,351,cs),
(745,159,o),
(567,8,o),
(375,8,cs)
);
},
{
closed = 1;
nodes = (
(891,0,l),
(895,26,l),
(855,26,ls),
(795,26,o),
(757,72,o),
(768,132,c),
(845,567,ls),
(855,626,o),
(912,674,o),
(971,674,cs),
(1010,674,l),
(1014,700,l),
(969,700,ls),
(896,700,o),
(830,643,o),
(817,570,cs),
(740,132,l),
(727,59,o),
(776,0,o),
(849,0,cs)
);
}
);
width = 1076;
},
{
anchors = (
{
name = bottom;
pos = (266,0);
},
{
name = top;
pos = (389,700);
}
);
layerId = m005;
shapes = (
{
closed = 1;
nodes = (
(544,-16,o),
(730,142,o),
(766,347,cs),
(802,552,o),
(667,716,o),
(462,716,cs),
(260,716,o),
(76,558,o),
(40,353,cs),
(4,148,o),
(137,-16,o),
(339,-16,cs)
);
},
{
closed = 1;
nodes = (
(201,66,o),
(101,188,o),
(129,347,cs),
(157,506,o),
(308,634,o),
(467,634,cs),
(626,634,o),
(726,512,o),
(698,353,cs),
(670,194,o),
(519,66,o),
(360,66,cs)
);
},
{
closed = 1;
nodes = (
(860,0,l),
(873,78,l),
(799,78,ls),
(763,78,o),
(742,104,o),
(748,140,cs),
(821,554,ls),
(828,590,o),
(865,622,o),
(901,622,cs),
(969,622,l),
(983,700,l),
(884,700,ls),
(812,700,o),
(750,647,o),
(737,575,cs),
(659,131,ls),
(646,59,o),
(695,0,o),
(767,0,cs)
);
}
);
width = 1030;
},
{
anchors = (
{
name = bottom;
pos = (280,0);
},
{
name = top;
pos = (403,700);
}
);
layerId = m006;
shapes = (
{
closed = 1;
nodes = (
(538,-16,o),
(720,140,o),
(756,345,cs),
(793,550,o),
(655,716,o),
(449,716,cs),
(256,716,o),
(83,560,o),
(46,355,cs),
(10,150,o),
(139,-16,o),
(332,-16,cs)
);
},
{
closed = 1;
nodes = (
(261,142,o),
(190,229,o),
(210,345,cs),
(231,461,o),
(346,558,o),
(462,558,cs),
(578,558,o),
(649,471,o),
(628,355,cs),
(608,239,o),
(493,142,o),
(377,142,cs)
);
},
{
closed = 1;
nodes = (
(883,0,l),
(907,136,l),
(800,136,ls),
(771,136,o),
(757,153,o),
(762,182,cs),
(819,507,ls),
(824,536,o),
(858,564,o),
(887,564,cs),
(982,564,l),
(1006,700,l),
(850,700,ls),
(756,700,o),
(677,632,o),
(661,539,cs),
(596,172,ls),
(580,78,o),
(644,0,o),
(738,0,cs)
);
}
);
width = 1053;
}
);
metricLeft = O;
metricRight = a;
unicode = 11373;
},
{
glyphname = AE;
kernLeft = A;
kernRight = E;
lastChange = "2025-06-08 05:15:42 +0000";
layers = (
{
anchors = (
{
name = bottom;
pos = (381,0);
},
{
name = top;
pos = (381,700);
}
);
layerId = m01;
shapes = (
{
closed = 1;
nodes = (
(40,0,l),
(309,700,l),
(284,700,l),
(10,0,l)
);
},
{
closed = 1;
nodes = (
(381,183,l),
(381,207,l),
(106,207,l),
(106,183,l)
);
},
{
closed = 1;
nodes = (
(726,0,l),
(726,26,l),
(407,26,l),
(407,0,l)
);
},
{
closed = 1;
nodes = (
(428,0,l),
(318,700,l),
(290,700,l),
(400,0,l)
);
},
{
closed = 1;
nodes = (
(689,349,l),
(689,374,l),
(351,374,l),
(351,349,l)
);
},
{
closed = 1;
nodes = (
(668,675,l),
(668,700,l),
(310,700,l),
(310,675,l)
);
}
);
width = 761;
},
{
anchors = (
{
name = bottom;
pos = (388,0);
},
{
name = top;
pos = (388,700);
}
);
layerId = m002;
shapes = (
{
closed = 1;
nodes = (
(105,0,l),
(371,700,l),
(286,700,l),
(10,0,l)
);
},
{
closed = 1;
nodes = (
(447,156,l),
(447,234,l),
(127,234,l),
(127,156,l)
);
},
{
closed = 1;
nodes = (
(752,0,l),
(752,80,l),
(473,80,l),
(473,0,l)
);
},
{
closed = 1;
nodes = (
(504,0,l),
(394,700,l),
(306,700,l),
(416,0,l)
);
},
{
closed = 1;
nodes = (
(722,322,l),
(722,400,l),
(413,400,l),
(413,322,l)
);
},
{
closed = 1;
nodes = (
(694,622,l),
(694,700,l),
(382,700,l),
(382,622,l)
);
}
);
width = 775;
},
{
anchors = (
{
name = bottom;
pos = (428,0);
},
{
name = top;
pos = (428,700);
}
);
layerId = m003;
shapes = (
{
closed = 1;
nodes = (
(180,0,l),
(446,700,l),
(286,700,l),
(10,0,l)
);
},
{
closed = 1;
nodes = (
(527,147,l),
(527,263,l),
(207,263,l),
(207,147,l)
);
},
{
closed = 1;
nodes = (
(832,0,l),
(832,160,l),
(553,160,l),
(553,0,l)
);
},
{
closed = 1;
nodes = (
(639,0,l),
(499,700,l),
(342,700,l),
(482,0,l)
);
},
{
closed = 1;
nodes = (
(812,285,l),
(812,437,l),
(493,437,l),
(493,285,l)
);
},
{
closed = 1;
nodes = (
(794,548,l),
(794,700,l),
(462,700,l),
(462,548,l)
);
}
);
width = 860;
},
{
anchors = (
{
name = bottom;
pos = (339,0);
},
{
name = top;
pos = (462,700);
}
);
layerId = m004;
shapes = (
{
closed = 1;
nodes = (
(-2,0,l),
(390,700,l),
(365,700,l),
(-32,0,l)
);
},
{
closed = 1;
nodes = (
(371,183,l),
(375,207,l),
(100,207,l),
(96,183,l)
);
},
{
closed = 1;
nodes = (
(684,0,l),
(688,26,l),
(369,26,l),
(365,0,l)
);
},
{
closed = 1;
nodes = (
(386,0,l),
(399,700,l),
(371,700,l),
(358,0,l)
);
},
{
closed = 1;
nodes = (
(708,349,l),
(713,374,l),
(375,374,l),
(370,349,l)
);
},
{
closed = 1;
nodes = (
(745,675,l),
(749,700,l),
(391,700,l),
(387,675,l)
);
}
);
width = 784;
},
{
anchors = (
{
name = bottom;
pos = (346,0);
},
{
name = top;
pos = (469,700);
}
);
layerId = m005;
shapes = (
{
closed = 1;
nodes = (
(63,0,l),
(452,700,l),
(367,700,l),
(-32,0,l)
);
},
{
closed = 1;
nodes = (
(432,156,l),
(446,234,l),
(126,234,l),
(112,156,l)
);
},
{
closed = 1;
nodes = (
(710,0,l),
(724,80,l),
(445,80,l),
(431,0,l)
);
},
{
closed = 1;
nodes = (
(462,0,l),
(475,700,l),
(387,700,l),
(374,0,l)
);
},
{
closed = 1;
nodes = (
(736,322,l),
(750,400,l),
(441,400,l),
(427,322,l)
);
},
{
closed = 1;
nodes = (
(761,622,l),
(775,700,l),
(463,700,l),
(449,622,l)
);
}
);
width = 798;
},
{
anchors = (
{
name = bottom;
pos = (386,0);
},
{
name = top;
pos = (509,700);
}
);
layerId = m006;
shapes = (
{
closed = 1;
nodes = (
(138,0,l),
(527,700,l),
(367,700,l),
(-32,0,l)
);
},
{
closed = 1;
nodes = (
(511,147,l),
(531,263,l),
(211,263,l),
(191,147,l)
);
},
{
closed = 1;
nodes = (
(790,0,l),
(818,160,l),
(539,160,l),
(511,0,l)
);
},
{
closed = 1;
nodes = (
(597,0,l),
(580,700,l),
(423,700,l),
(440,0,l)
);
},
{
closed = 1;
nodes = (
(820,285,l),
(847,437,l),
(528,437,l),
(501,285,l)
);
},
{
closed = 1;
nodes = (
(848,548,l),
(875,700,l),
(543,700,l),
(516,548,l)
);
}
);
width = 903;
}
);
metricLeft = A;
metricRight = E;
unicode = 198;
},
{
glyphname = B;
kernLeft = H;
kernRight = B;
lastChange = "2025-06-08 05:15:42 +0000";
layers = (
{
anchors = (
{
name = bottom;
pos = (304,0);
},
{
name = center;
pos = (92,205);
},
{
name = top;
pos = (304,700);
}
);
layerId = m01;
shapes = (
{
closed = 1;
nodes = (
(361,0,ls),
(479,0,o),
(572,89,o),
(572,203,cs),
(572,318,o),
(479,407,o),
(361,406,c),
(82,406,l),
(82,382,l),
(365,382,ls),
(464,382,o),
(542,304,o),
(542,204,cs),
(542,104,o),
(464,26,o),
(365,26,cs),
(83,26,l),
(83,0,l)
);
},
{
closed = 1;
nodes = (
(98,0,l),
(98,700,l),
(70,700,l),
(70,0,l)
);
},
{
closed = 1;
nodes = (
(362,387,ls),
(457,387,o),
(532,457,o),
(532,545,cs),
(532,633,o),
(464,701,o),
(377,700,c),
(82,700,l),
(82,674,l),
(368,674,ls),
(443,674,o),
(502,615,o),
(502,540,cs),
(502,465,o),
(443,406,o),
(368,406,cs),
(82,406,l),
(82,387,l)
);
}
);
width = 607;
},
{
anchors = (
{
name = bottom;
pos = (300,0);
},
{
name = center;
pos = (90,200);
},
{
name = top;
pos = (300,700);
}
);
layerId = m002;
shapes = (
{
closed = 1;
nodes = (
(366,0,ls),
(487,0,o),
(577,86,o),
(577,203,cs),
(577,321,o),
(487,407,o),
(366,406,c),
(72,406,l),
(72,324,l),
(366,324,ls),
(435,324,o),
(487,272,o),
(487,203,cs),
(487,134,o),
(435,82,o),
(366,82,cs),
(72,82,l),
(72,0,l)
);
},
{
closed = 1;
nodes = (
(133,0,l),
(133,700,l),
(45,700,l),
(45,0,l)
);
},
{
closed = 1;
nodes = (
(271,348,ls),
(424,348,o),
(537,423,o),
(537,524,cs),
(537,626,o),
(454,701,o),
(341,700,c),
(87,700,l),
(87,618,l),
(341,618,ls),
(402,618,o),
(447,573,o),
(447,512,cs),
(447,451,o),
(402,406,o),
(341,406,cs),
(87,406,l),
(87,348,l)
);
}
);
width = 600;
},
{
anchors = (
{
name = bottom;
pos = (329,0);
},
{
name = center;
pos = (140,220);
},
{
name = top;
pos = (329,700);
}
);
layerId = m003;
shapes = (
{
closed = 1;
nodes = (
(402,0,ls),
(527,0,o),
(625,97,o),
(625,220,cs),
(625,344,o),
(527,441,o),
(402,440,c),
(120,440,l),
(120,298,l),
(394,298,ls),
(439,298,o),
(475,264,o),
(475,220,cs),
(475,176,o),
(439,142,o),
(394,142,cs),
(120,142,l),
(120,0,l)
);
},
{
closed = 1;
nodes = (
(219,0,l),
(219,700,l),
(55,700,l),
(55,0,l)
);
},
{
closed = 1;
nodes = (
(329,338,ls),
(472,338,o),
(585,420,o),
(585,525,cs),
(585,624,o),
(503,701,o),
(399,700,c),
(135,700,l),
(135,558,l),
(379,558,ls),
(410,558,o),
(435,535,o),
(435,505,cs),
(435,469,o),
(410,440,o),
(379,440,cs),
(135,440,l),
(135,338,l)
);
}
);
width = 653;
},
{
anchors = (
{
name = bottom;
pos = (262,0);
},
{
name = center;
pos = (86,205);
},
{
name = top;
pos = (385,700);
}
);
layerId = m004;
shapes = (
{
closed = 1;
nodes = (
(320,0,ls),
(438,0,o),
(545,88,o),
(565,202,cs),
(586,317,o),
(507,407,o),
(389,406,c),
(111,406,l),
(107,382,l),
(391,382,ls),
(490,382,o),
(553,305,o),
(536,205,cs),
(518,105,o),
(425,26,o),
(326,26,cs),
(45,26,l),
(41,0,l)
);
},
{
closed = 1;
nodes = (
(56,0,l),
(179,700,l),
(151,700,l),
(28,0,l)
);
},
{
closed = 1;
nodes = (
(389,387,ls),
(484,387,o),
(570,456,o),
(586,544,cs),
(601,632,o),
(544,701,o),
(457,700,c),
(163,700,l),
(159,674,l),
(446,674,ls),
(521,674,o),
(568,616,o),
(555,541,cs),
(542,466,o),
(471,406,o),
(396,406,cs),
(111,406,l),
(108,387,l)
);
}
);
width = 603;
},
{
anchors = (
{
name = bottom;
pos = (258,0);
},
{
name = center;
pos = (83,200);
},
{
name = top;
pos = (381,700);
}
);
layerId = m005;
shapes = (
{
closed = 1;
nodes = (
(327,0,ls),
(448,0,o),
(549,83,o),
(570,200,cs),
(591,318,o),
(513,407,o),
(392,406,c),
(101,406,l),
(87,324,l),
(384,324,ls),
(453,324,o),
(493,275,o),
(481,206,cs),
(469,137,o),
(404,82,o),
(335,82,cs),
(44,82,l),
(30,0,l)
);
},
{
closed = 1;
nodes = (
(91,0,l),
(214,700,l),
(126,700,l),
(3,0,l)
);
},
{
closed = 1;
nodes = (
(293,348,ls),
(446,348,o),
(569,420,o),
(587,521,cs),
(605,623,o),
(532,701,o),
(419,700,c),
(168,700,l),
(154,618,l),
(411,618,ls),
(472,618,o),
(506,576,o),
(495,515,cs),
(485,454,o),
(428,406,o),
(367,406,cs),
(116,406,l),
(106,348,l)
);
}
);
width = 589;
},
{
anchors = (
{
name = bottom;
pos = (287,0);
},
{
name = center;
pos = (136,220);
},
{
name = top;
pos = (410,700);
}
);
layerId = m006;
shapes = (
{
closed = 1;
nodes = (
(365,0,ls),
(490,0,o),
(599,92,o),
(621,215,cs),
(642,339,o),
(557,441,o),
(432,440,c),
(155,440,l),
(130,298,l),
(410,298,ls),
(455,298,o),
(480,269,o),
(472,225,cs),
(465,181,o),
(416,142,o),
(371,142,cs),
(103,142,l),
(78,0,l)
);
},
{
closed = 1;
nodes = (
(177,0,l),
(300,700,l),
(136,700,l),
(13,0,l)
);
},
{
closed = 1;
nodes = (
(352,338,ls),
(495,338,o),
(616,415,o),
(634,520,cs),
(652,619,o),
(579,701,o),
(474,700,c),
(216,700,l),
(191,558,l),
(441,558,ls),
(472,558,o),
(488,540,o),
(483,510,cs),
(476,474,o),
(440,440,o),
(409,440,cs),
(170,440,l),
(152,338,l)
);
}
);
width = 641;
}
);
metricLeft = H;
metricRight = "=H/2";
unicode = 66;
},
{
glyphname = Bhook;
lastChange = "2025-06-08 05:15:42 +0000";
layers = (
{
anchors = (
{
name = bottom;
pos = (444,0);
},
{
name = center;
pos = (232,205);
},
{
name = top;
pos = (444,700);
}
);
layerId = m01;
shapes = (
{
closed = 1;
nodes = (
(98,642,o),
(131,674,o),
(173,674,cs),
(214,674,l),
(214,700,l),
(170,700,ls),
(114,700,o),
(70,656,o),
(70,600,cs),
(70,571,l),
(98,571,l),
(98,601,l)
);
},
{
closed = 1;
nodes = (
(501,0,ls),
(619,0,o),
(712,89,o),
(712,203,cs),
(712,318,o),
(619,407,o),
(501,406,c),
(222,406,l),
(222,382,l),
(505,382,ls),
(604,382,o),
(682,304,o),
(682,204,cs),
(682,104,o),
(604,26,o),
(505,26,cs),
(223,26,l),
(223,0,l)
);
},
{
closed = 1;
nodes = (
(238,0,l),
(238,700,l),
(210,700,l),
(210,0,l)
);
},
{
closed = 1;
nodes = (
(502,387,ls),
(597,387,o),
(672,457,o),
(672,545,cs),
(672,633,o),
(604,701,o),
(517,700,c),
(222,700,l),
(222,674,l),
(508,674,ls),
(583,674,o),
(642,615,o),
(642,540,cs),
(642,465,o),
(583,406,o),
(508,406,cs),
(222,406,l),
(222,387,l)
);
}
);
width = 747;
},
{
anchors = (
{
name = bottom;
pos = (437,0);
},
{
name = center;
pos = (227,200);
},
{
name = top;
pos = (437,700);
}
);
layerId = m002;
shapes = (
{
closed = 1;
nodes = (
(123,605,o),
(136,618,o),
(153,618,cs),
(194,618,l),
(194,700,l),
(135,700,ls),
(85,700,o),
(45,660,o),
(45,610,cs),
(45,541,l),
(123,541,l),
(123,588,l)
);
},
{
closed = 1;
nodes = (
(503,0,ls),
(624,0,o),
(714,86,o),
(714,203,cs),
(714,321,o),
(624,407,o),
(503,406,c),
(209,406,l),
(209,324,l),
(503,324,ls),
(572,324,o),
(624,272,o),
(624,203,cs),
(624,134,o),
(572,82,o),
(503,82,cs),
(209,82,l),
(209,0,l)
);
},
{
closed = 1;
nodes = (
(270,0,l),
(270,700,l),
(182,700,l),
(182,0,l)
);
},
{
closed = 1;
nodes = (
(408,348,ls),
(561,348,o),
(674,423,o),
(674,524,cs),
(674,626,o),
(591,701,o),
(478,700,c),
(224,700,l),
(224,618,l),
(478,618,ls),
(539,618,o),
(584,573,o),
(584,512,cs),
(584,451,o),
(539,406,o),
(478,406,cs),
(224,406,l),
(224,348,l)
);
}
);
width = 737;
},
{
anchors = (
{
name = bottom;
pos = (515,0);
},
{
name = center;
pos = (326,220);
},
{
name = top;
pos = (515,700);
}
);
layerId = m003;
shapes = (
{
closed = 1;
nodes = (
(187,545,o),
(200,558,o),
(217,558,cs),
(253,558,l),
(253,700,l),
(195,700,ls),
(117,700,o),
(55,638,o),
(55,560,cs),
(55,491,l),
(187,491,l),
(187,528,l)
);
},
{
closed = 1;
nodes = (
(588,0,ls),
(713,0,o),
(811,97,o),
(811,220,cs),
(811,344,o),
(713,441,o),
(588,440,c),
(306,440,l),
(306,298,l),
(580,298,ls),
(625,298,o),
(661,264,o),
(661,220,cs),
(661,176,o),
(625,142,o),
(580,142,cs),
(306,142,l),
(306,0,l)
);
},
{
closed = 1;
nodes = (
(405,0,l),
(405,700,l),
(241,700,l),
(241,0,l)
);
},
{
closed = 1;
nodes = (
(515,338,ls),
(658,338,o),
(771,420,o),
(771,525,cs),
(771,624,o),
(689,701,o),
(585,700,c),
(321,700,l),
(321,558,l),
(565,558,ls),
(596,558,o),
(621,535,o),
(621,505,cs),
(621,469,o),
(596,440,o),
(565,440,cs),
(321,440,l),
(321,338,l)
);
}
);
width = 839;
},
{
anchors = (
{
name = bottom;
pos = (262,0);
},
{
name = center;
pos = (86,205);
},
{
name = top;
pos = (385,700);
}
);
layerId = m004;
shapes = (
{
closed = 1;
nodes = (
(29,641,o),
(69,674,o),
(111,674,cs),
(151,674,l),
(155,700,l),
(110,700,ls),
(54,700,o),
(3,657,o),
(-6,601,cs),
(-12,571,l),
(16,571,l),
(22,600,l)
);
},
{
closed = 1;
nodes = (
(320,0,ls),
(438,0,o),
(545,88,o),
(565,202,cs),
(586,317,o),
(507,407,o),
(389,406,c),
(111,406,l),
(107,382,l),
(391,382,ls),
(490,382,o),
(553,305,o),
(536,205,cs),
(518,105,o),
(425,26,o),
(326,26,cs),
(45,26,l),
(41,0,l)
);
},
{
closed = 1;
nodes = (
(56,0,l),
(179,700,l),
(151,700,l),
(28,0,l)
);
},
{
closed = 1;
nodes = (
(389,387,ls),
(484,387,o),
(570,456,o),
(586,544,cs),
(601,632,o),
(544,701,o),
(457,700,c),
(163,700,l),
(159,674,l),
(446,674,ls),
(521,674,o),
(568,616,o),
(555,541,cs),
(542,466,o),
(471,406,o),
(396,406,cs),
(111,406,l),
(108,387,l)
);
}
);
width = 603;
},
{
anchors = (
{
name = bottom;
pos = (258,0);
},
{
name = center;
pos = (83,200);
},
{
name = top;
pos = (381,700);
}
);
layerId = m005;
shapes = (
{
closed = 1;
nodes = (
(50,602,o),
(69,618,o),
(86,618,cs),
(124,618,l),
(138,700,l),
(76,700,ls),
(26,700,o),
(-17,663,o),
(-26,613,cs),
(-39,541,l),
(39,541,l),
(47,585,l)
);
},
{
closed = 1;
nodes = (
(327,0,ls),
(448,0,o),
(549,83,o),
(570,200,cs),
(591,318,o),
(513,407,o),
(392,406,c),
(101,406,l),
(87,324,l),
(384,324,ls),
(453,324,o),
(493,275,o),
(481,206,cs),
(469,137,o),
(404,82,o),
(335,82,cs),
(44,82,l),
(30,0,l)
);
},
{
closed = 1;
nodes = (
(91,0,l),
(214,700,l),
(126,700,l),
(3,0,l)
);
},
{
closed = 1;
nodes = (
(293,348,ls),
(446,348,o),
(569,420,o),
(587,521,cs),
(605,623,o),
(532,701,o),
(419,700,c),
(168,700,l),
(154,618,l),
(411,618,ls),
(472,618,o),
(506,576,o),
(495,515,cs),
(485,454,o),
(428,406,o),
(367,406,cs),
(116,406,l),
(106,348,l)
);
}
);
width = 589;
},
{
anchors = (
{
name = bottom;
pos = (301,0);
},
{
name = center;
pos = (150,220);
},
{
name = top;
pos = (424,700);
}
);
layerId = m006;
shapes = (
{
closed = 1;
nodes = (
(68,540,o),
(90,558,o),
(107,558,cs),
(137,558,l),
(162,700,l),
(98,700,ls),
(20,700,o),
(-46,643,o),
(-60,565,cs),
(-73,491,l),
(59,491,l),
(65,523,l)
);
},
{
closed = 1;
nodes = (
(379,0,ls),
(504,0,o),
(613,92,o),
(635,215,cs),
(656,339,o),
(571,441,o),
(446,440,c),
(169,440,l),
(144,298,l),
(424,298,ls),
(469,298,o),
(494,269,o),
(486,225,cs),
(479,181,o),
(430,142,o),
(385,142,cs),
(117,142,l),
(92,0,l)
);
},
{
closed = 1;
nodes = (
(191,0,l),
(314,700,l),
(150,700,l),
(27,0,l)
);
},
{
closed = 1;
nodes = (
(366,338,ls),
(509,338,o),
(630,415,o),
(648,520,cs),
(666,619,o),
(593,701,o),
(488,700,c),
(230,700,l),
(205,558,l),
(455,558,ls),
(486,558,o),
(502,540,o),
(497,510,cs),
(490,474,o),
(454,440,o),
(423,440,cs),
(184,440,l),
(166,338,l)
);
}
);
width = 655;
}
);
metricLeft = B;
metricRight = B;
unicode = 385;
},
{
glyphname = C;
kernLeft = O;
kernRight = O;
lastChange = "2025-06-08 05:15:42 +0000";
layers = (
{
anchors = (
{
name = bottom;
pos = (390,0);
},
{
name = top;
pos = (390,700);
}
);
layerId = m01;
shapes = (
{
closed = 1;
nodes = (
(562,-16,o),
(689,74,o),
(744,205,c),
(719,218,l),
(670,94,o),
(551,8,o),
(411,8,cs),
(223,8,o),
(75,158,o),
(75,350,cs),
(75,542,o),
(223,692,o),
(411,692,cs),
(538,692,o),
(648,620,o),
(705,512,c),
(730,526,l),
(669,640,o),
(549,716,o),
(411,716,cs),
(206,716,o),
(45,555,o),
(45,350,cs),
(45,145,o),
(206,-16,o),
(411,-16,cs)
);
}
);
width = 779;
},
{
anchors = (
{
name = bottom;
pos = (373,0);
},
{
name = top;
pos = (373,700);
}
);
layerId = m002;
shapes = (
{
closed = 1;
nodes = (
(547,-16,o),
(672,71,o),
(723,207,c),
(647,243,l),
(609,135,o),
(511,66,o),
(386,66,cs),
(224,66,o),
(110,183,o),
(110,350,cs),
(110,517,o),
(224,634,o),
(386,634,cs),
(498,634,o),
(589,578,o),
(634,487,c),
(705,534,l),
(645,646,o),
(529,716,o),
(386,716,cs),
(171,716,o),
(20,565,o),
(20,350,cs),
(20,135,o),
(171,-16,o),
(386,-16,cs)
);
}
);
width = 746;
},
{
anchors = (
{
name = bottom;
pos = (382,0);
},
{
name = top;
pos = (382,700);
}
);
layerId = m003;
shapes = (
{
closed = 1;
nodes = (
(543,-16,o),
(672,76,o),
(726,208,c),
(577,278,l),
(550,198,o),
(477,142,o),
(391,142,cs),
(279,142,o),
(191,234,o),
(191,350,cs),
(191,466,o),
(279,558,o),
(391,558,cs),
(470,558,o),
(538,511,o),
(569,442,c),
(707,532,l),
(644,643,o),
(527,716,o),
(391,716,cs),
(186,716,o),
(25,555,o),
(25,350,cs),
(25,145,o),
(186,-16,o),
(391,-16,cs)
);
}
);
width = 754;
},
{
anchors = (
{
name = bottom;
pos = (348,0);
},
{
name = top;
pos = (471,700);
}
);
layerId = m004;
shapes = (
{
closed = 1;
nodes = (
(518,-16,o),
(660,73,o),
(738,204,c),
(715,219,l),
(644,95,o),
(509,8,o),
(369,8,cs),
(181,8,o),
(60,157,o),
(94,349,cs),
(128,541,o),
(304,692,o),
(492,692,cs),
(619,692,o),
(716,621,o),
(754,513,c),
(780,525,l),
(739,639,o),
(632,716,o),
(494,716,cs),
(289,716,o),
(101,556,o),
(65,351,cs),
(28,146,o),
(162,-16,o),
(367,-16,cs)
);
}
);
width = 784;
},
{
anchors = (
{
name = bottom;
pos = (333,0);
},
{
name = top;
pos = (456,700);
}
);
layerId = m005;
shapes = (
{
closed = 1;
nodes = (
(507,-16,o),
(645,68,o),
(720,204,c),
(649,246,l),
(592,138,o),
(479,66,o),
(354,66,cs),
(192,66,o),
(101,180,o),
(131,347,cs),
(160,514,o),
(299,634,o),
(461,634,cs),
(573,634,o),
(652,581,o),
(681,490,c),
(757,532,l),
(717,644,o),
(612,716,o),
(469,716,cs),
(254,716,o),
(80,568,o),
(42,353,cs),
(4,138,o),
(131,-16,o),
(346,-16,cs)
);
}
);
width = 750;
},
{
anchors = (
{
name = bottom;
pos = (340,0);
},
{
name = top;
pos = (463,700);
}
);
layerId = m006;
shapes = (
{
closed = 1;
nodes = (
(504,-16,o),
(644,71,o),
(722,203,c),
(583,283,l),
(542,203,o),
(454,142,o),
(368,142,cs),
(256,142,o),
(189,229,o),
(209,345,cs),
(230,461,o),
(341,558,o),
(453,558,cs),
(532,558,o),
(589,516,o),
(608,447,c),
(755,527,l),
(711,638,o),
(605,716,o),
(469,716,cs),
(264,716,o),
(82,560,o),
(45,355,cs),
(9,150,o),
(147,-16,o),
(352,-16,cs)
);
}
);
width = 753;
}
);
metricLeft = O;
metricRight = "=H/2";
unicode = 67;
},
{
glyphname = Chook;
lastChange = "2025-06-08 05:15:42 +0000";
layers = (
{
anchors = (
{
name = bottom;
pos = (300,0);
},
{
name = top;
pos = (300,700);
}
);
layerId = m01;
shapes = (
{
closed = 1;
nodes = (
(562,-16,o),
(689,74,o),
(744,205,c),
(719,218,l),
(670,94,o),
(551,8,o),
(411,8,cs),
(223,8,o),
(75,158,o),
(75,350,cs),
(75,542,o),
(223,692,o),
(411,692,cs),
(538,692,o),
(648,620,o),
(705,512,c),
(730,526,l),
(669,640,o),
(549,716,o),
(411,716,cs),
(206,716,o),
(45,555,o),
(45,350,cs),
(45,145,o),
(206,-16,o),
(411,-16,cs)
);
},
{
closed = 1;
nodes = (
(733,662,o),
(766,694,o),
(808,694,cs),
(869,694,l),
(869,720,l),
(805,720,ls),
(749,720,o),
(705,676,o),
(705,620,cs),
(705,512,l),
(733,512,l),
(733,621,l)
);
}
);
width = 904;
},
{
anchors = (
{
name = bottom;
pos = (300,0);
},
{
name = top;
pos = (300,700);
}
);
layerId = m002;
shapes = (
{
closed = 1;
nodes = (
(547,-16,o),
(672,71,o),
(723,207,c),
(647,243,l),
(609,135,o),
(511,66,o),
(386,66,cs),
(224,66,o),
(110,183,o),
(110,350,cs),
(110,517,o),
(224,634,o),
(386,634,cs),
(498,634,o),
(589,578,o),
(634,487,c),
(705,534,l),
(645,646,o),
(529,716,o),
(386,716,cs),
(171,716,o),
(20,565,o),
(20,350,cs),
(20,135,o),
(171,-16,o),
(386,-16,cs)
);
},
{
closed = 1;
nodes = (
(722,630,o),
(735,643,o),
(752,643,cs),
(798,643,l),
(798,716,l),
(724,716,ls),
(674,716,o),
(634,676,o),
(634,626,cs),
(634,487,l),
(722,487,l),
(722,613,l)
);
}
);
width = 821;
},
{
anchors = (
{
name = bottom;
pos = (300,0);
},
{
name = top;
pos = (300,700);
}
);
layerId = m003;
shapes = (
{
closed = 1;
nodes = (
(543,-16,o),
(672,76,o),
(726,208,c),
(577,278,l),
(550,198,o),
(477,142,o),
(391,142,cs),
(279,142,o),
(191,234,o),
(191,350,cs),
(191,466,o),
(279,558,o),
(391,558,cs),
(470,558,o),
(538,511,o),
(569,442,c),
(707,532,l),
(644,643,o),
(527,716,o),
(391,716,cs),
(186,716,o),
(25,555,o),
(25,350,cs),
(25,145,o),
(186,-16,o),
(391,-16,cs)
);
},
{
closed = 1;
nodes = (
(731,564,o),
(744,577,o),
(761,577,cs),
(807,577,l),
(807,720,l),
(689,720,ls),
(622,720,o),
(569,667,o),
(569,600,cs),
(569,442,l),
(731,442,l),
(731,547,l)
);
}
);
width = 835;
},
{
anchors = (
{
name = bottom;
pos = (258,0);
},
{
name = top;
pos = (381,700);
}
);
layerId = m004;
shapes = (
{
closed = 1;
nodes = (
(518,-16,o),
(660,73,o),
(738,204,c),
(715,219,l),
(644,95,o),
(509,8,o),
(369,8,cs),
(181,8,o),
(60,157,o),
(94,349,cs),
(128,541,o),
(304,692,o),
(492,692,cs),
(619,692,o),
(716,621,o),
(754,513,c),
(780,525,l),
(739,639,o),
(632,716,o),
(494,716,cs),
(289,716,o),
(101,556,o),
(65,351,cs),
(28,146,o),
(162,-16,o),
(367,-16,cs)
);
},
{
closed = 1;
nodes = (
(807,661,o),
(847,694,o),
(889,694,cs),
(949,694,l),
(954,720,l),
(889,720,ls),
(833,720,o),
(782,677,o),
(772,621,cs),
(753,512,l),
(781,512,l),
(800,620,l)
);
}
);
width = 993;
},
{
anchors = (
{
name = bottom;
pos = (260,0);
},
{
name = top;
pos = (383,700);
}
);
layerId = m005;
shapes = (
{
closed = 1;
nodes = (
(507,-16,o),
(645,68,o),
(720,204,c),
(649,246,l),
(592,138,o),
(479,66,o),
(354,66,cs),
(192,66,o),
(101,180,o),
(131,347,cs),
(160,514,o),
(299,634,o),
(461,634,cs),
(573,634,o),
(652,581,o),
(681,490,c),
(757,532,l),
(717,644,o),
(612,716,o),
(469,716,cs),
(254,716,o),
(80,568,o),
(42,353,cs),
(4,138,o),
(131,-16,o),
(346,-16,cs)
);
},
{
closed = 1;
nodes = (
(792,627,o),
(811,643,o),
(828,643,cs),
(871,643,l),
(884,716,l),
(807,716,ls),
(757,716,o),
(713,679,o),
(705,629,cs),
(680,487,l),
(768,487,l),
(789,610,l)
);
}
);
width = 910;
},
{
anchors = (
{
name = bottom;
pos = (258,0);
},
{
name = top;
pos = (381,700);
}
);
layerId = m006;
shapes = (
{
closed = 1;
nodes = (
(504,-16,o),
(644,71,o),
(722,203,c),
(583,283,l),
(542,203,o),
(454,142,o),
(368,142,cs),
(256,142,o),
(189,229,o),
(209,345,cs),
(230,461,o),
(341,558,o),
(453,558,cs),
(532,558,o),
(589,516,o),
(608,447,c),
(755,527,l),
(711,638,o),
(605,716,o),
(469,716,cs),
(264,716,o),
(82,560,o),
(45,355,cs),
(9,150,o),
(147,-16,o),
(352,-16,cs)
);
},
{
closed = 1;
nodes = (
(787,559,o),
(809,577,o),
(826,577,cs),
(866,577,l),
(892,720,l),
(768,720,ls),
(701,720,o),
(645,672,o),
(633,605,cs),
(605,442,l),
(767,442,l),
(784,542,l)
);
}
);
width = 924;
}
);
metricLeft = C;
metricRight = C;
unicode = 391;
},
{
glyphname = D;
kernLeft = H;
kernRight = O;
lastChange = "2025-06-08 05:15:42 +0000";
layers = (
{
anchors = (
{
name = bottom;
pos = (366,0);
},
{
name = center;
pos = (84,350);
},
{
name = top;
pos = (366,700);
}
);
layerId = m01;
shapes = (
{
closed = 1;
nodes = (
(328,0,ls),
(528,0,o),
(686,154,o),
(686,350,cs),
(686,547,o),
(527,701,o),
(325,700,c),
(82,700,l),
(82,676,l),
(316,676,ls),
(506,676,o),
(656,533,o),
(656,350,cs),
(656,167,o),
(508,24,o),
(319,24,cs),
(82,24,l),
(82,0,l),
(98,0,l),
(98,700,l),
(70,700,l),
(70,0,l)
);
}
);
width = 731;
},
{
anchors = (
{
name = bottom;
pos = (356,0);
},
{
name = center;
pos = (89,350);
},
{
name = top;
pos = (356,700);
}
);
layerId = m002;
shapes = (
{
closed = 1;
nodes = (
(333,0,ls),
(538,0,o),
(691,154,o),
(691,350,cs),
(691,547,o),
(537,701,o),
(330,700,c),
(87,700,l),
(87,618,l),
(341,618,ls),
(487,618,o),
(601,500,o),
(601,350,cs),
(601,200,o),
(488,82,o),
(344,82,cs),
(87,82,l),
(87,0,l),
(133,0,l),
(133,700,l),
(45,700,l),
(45,0,l)
);
}
);
width = 711;
},
{
anchors = (
{
name = bottom;
pos = (380,0);
},
{
name = center;
pos = (140,345);
},
{
name = top;
pos = (380,700);
}
);
layerId = m003;
shapes = (
{
closed = 1;
nodes = (
(381,0,ls),
(581,0,o),
(739,154,o),
(739,350,cs),
(739,547,o),
(580,701,o),
(378,700,c),
(135,700,l),
(135,544,l),
(379,544,ls),
(488,544,o),
(573,459,o),
(573,350,cs),
(573,241,o),
(488,156,o),
(379,156,cs),
(135,156,l),
(135,0,l),
(219,0,l),
(219,700,l),
(55,700,l),
(55,0,l)
);
}
);
width = 764;
},
{
anchors = (
{
name = bottom;
pos = (324,0);
},
{
name = center;
pos = (103,350);
},
{
name = top;
pos = (447,700);
}
);
layerId = m004;
shapes = (
{
closed = 1;
nodes = (
(287,0,ls),
(487,0,o),
(671,153,o),
(705,349,cs),
(740,546,o),
(607,701,o),
(405,700,c),
(163,700,l),
(159,676,l),
(394,676,ls),
(584,676,o),
(708,534,o),
(676,351,cs),
(643,168,o),
(469,24,o),
(280,24,cs),
(44,24,l),
(40,0,l),
(56,0,l),
(179,700,l),
(151,700,l),
(28,0,l)
);
}
);
width = 730;
},
{
anchors = (
{
name = bottom;
pos = (314,0);
},
{
name = center;
pos = (108,350);
},
{
name = top;
pos = (437,700);
}
);
layerId = m005;
shapes = (
{
closed = 1;
nodes = (
(294,0,ls),
(499,0,o),
(675,151,o),
(710,347,cs),
(745,544,o),
(615,701,o),
(408,700,c),
(168,700,l),
(154,618,l),
(411,618,ls),
(557,618,o),
(647,503,o),
(621,353,cs),
(594,203,o),
(457,82,o),
(313,82,cs),
(59,82,l),
(45,0,l),
(91,0,l),
(214,700,l),
(126,700,l),
(3,0,l)
);
}
);
width = 711;
},
{
anchors = (
{
name = bottom;
pos = (338,0);
},
{
name = center;
pos = (159,345);
},
{
name = top;
pos = (461,700);
}
);
layerId = m006;
shapes = (
{
closed = 1;
nodes = (
(344,0,ls),
(544,0,o),
(723,149,o),
(757,345,cs),
(792,542,o),
(656,701,o),
(453,700,c),
(216,700,l),
(189,544,l),
(438,544,ls),
(547,544,o),
(613,464,o),
(593,355,cs),
(574,246,o),
(467,156,o),
(358,156,cs),
(120,156,l),
(93,0,l),
(177,0,l),
(300,700,l),
(136,700,l),
(13,0,l)
);
}
);
width = 763;
}
);
metricLeft = H;
metricRight = O;
unicode = 68;
},
{
glyphname = Dhook;
lastChange = "2025-06-08 05:15:42 +0000";
layers = (
{
anchors = (
{
name = bottom;
pos = (439,0);
},
{
name = center;
pos = (223,350);
},
{
name = top;
pos = (439,700);
}
);
layerId = m01;
shapes = (
{
closed = 1;
nodes = (
(467,0,ls),
(667,0,o),
(825,154,o),
(825,350,cs),
(825,547,o),
(666,701,o),
(464,700,c),
(221,700,l),
(221,676,l),
(455,676,ls),
(645,676,o),
(795,533,o),
(795,350,cs),
(795,167,o),
(647,24,o),
(458,24,cs),
(221,24,l),
(221,0,l),
(237,0,l),
(237,700,l),
(209,700,l),
(209,0,l)
);
},
{
closed = 1;
nodes = (
(98,642,o),
(131,674,o),
(173,674,cs),
(214,674,l),
(214,700,l),
(170,700,ls),
(114,700,o),
(70,656,o),
(70,600,cs),
(70,571,l),
(98,571,l),
(98,601,l)
);
}
);
width = 870;
},
{
anchors = (
{
name = bottom;
pos = (430,0);
},
{
name = center;
pos = (219,350);
},
{
name = top;
pos = (430,700);
}
);
layerId = m002;
shapes = (
{
closed = 1;
nodes = (
(463,0,ls),
(668,0,o),
(821,154,o),
(821,350,cs),
(821,547,o),
(667,701,o),
(460,700,c),
(217,700,l),
(217,618,l),
(471,618,ls),
(617,618,o),
(731,500,o),
(731,350,cs),
(731,200,o),
(618,82,o),
(474,82,cs),
(217,82,l),
(217,0,l),
(263,0,l),
(263,700,l),
(175,700,l),
(175,0,l)
);
},
{
closed = 1;
nodes = (
(123,605,o),
(136,618,o),
(153,618,cs),
(194,618,l),
(194,700,l),
(135,700,ls),
(85,700,o),
(45,660,o),
(45,610,cs),
(45,541,l),
(123,541,l),
(123,588,l)
);
}
);
width = 841;
},
{
anchors = (
{
name = bottom;
pos = (483,0);
},
{
name = center;
pos = (323,345);
},
{
name = top;
pos = (483,700);
}
);
layerId = m003;
shapes = (
{
closed = 1;
nodes = (
(564,0,ls),
(764,0,o),
(922,154,o),
(922,350,cs),
(922,547,o),
(763,701,o),
(561,700,c),
(318,700,l),
(318,544,l),
(562,544,ls),
(671,544,o),
(756,459,o),
(756,350,cs),
(756,241,o),
(671,156,o),
(562,156,cs),
(318,156,l),
(318,0,l),
(402,0,l),
(402,700,l),
(238,700,l),
(238,0,l)
);
},
{
closed = 1;
nodes = (
(187,545,o),
(200,558,o),
(217,558,cs),
(253,558,l),
(253,700,l),
(195,700,ls),
(117,700,o),
(55,638,o),
(55,560,cs),
(55,491,l),
(187,491,l),
(187,528,l)
);
}
);
width = 947;
},
{
anchors = (
{
name = bottom;
pos = (258,0);
},
{
name = center;
pos = (103,350);
},
{
name = top;
pos = (381,700);
}
);
layerId = m004;
shapes = (
{
closed = 1;
nodes = (
(287,0,ls),
(487,0,o),
(671,153,o),
(705,349,cs),
(740,546,o),
(607,701,o),
(405,700,c),
(163,700,l),
(159,676,l),
(394,676,ls),
(584,676,o),
(708,534,o),
(676,351,cs),
(643,168,o),
(469,24,o),
(280,24,cs),
(44,24,l),
(40,0,l),
(56,0,l),
(179,700,l),
(151,700,l),
(28,0,l)
);
},
{
closed = 1;
nodes = (
(30,641,o),
(70,674,o),
(112,674,cs),
(152,674,l),
(156,700,l),
(111,700,ls),
(55,700,o),
(4,657,o),
(-5,601,cs),
(-11,571,l),
(17,571,l),
(23,600,l)
);
}
);
width = 730;
},
{
anchors = (
{
name = bottom;
pos = (258,0);
},
{
name = center;
pos = (108,350);
},
{
name = top;
pos = (381,700);
}
);
layerId = m005;
shapes = (
{
closed = 1;
nodes = (
(294,0,ls),
(499,0,o),
(675,151,o),
(710,347,cs),
(745,544,o),
(615,701,o),
(408,700,c),
(168,700,l),
(154,618,l),
(411,618,ls),
(557,618,o),
(647,503,o),
(621,353,cs),
(594,203,o),
(457,82,o),
(313,82,cs),
(59,82,l),
(45,0,l),
(91,0,l),
(214,700,l),
(126,700,l),
(3,0,l)
);
},
{
closed = 1;
nodes = (
(57,602,o),
(76,618,o),
(93,618,cs),
(131,618,l),
(145,700,l),
(83,700,ls),
(33,700,o),
(-10,663,o),
(-19,613,cs),
(-32,541,l),
(46,541,l),
(54,585,l)
);
}
);
width = 711;
},
{
anchors = (
{
name = bottom;
pos = (269,0);
},
{
name = center;
pos = (170,345);
},
{
name = top;
pos = (392,700);
}
);
layerId = m006;
shapes = (
{
closed = 1;
nodes = (
(355,0,ls),
(555,0,o),
(734,149,o),
(768,345,cs),
(803,542,o),
(667,701,o),
(464,700,c),
(227,700,l),
(200,544,l),
(449,544,ls),
(558,544,o),
(624,464,o),
(604,355,cs),
(585,246,o),
(478,156,o),
(369,156,cs),
(131,156,l),
(104,0,l),
(188,0,l),
(311,700,l),
(147,700,l),
(24,0,l)
);
},
{
closed = 1;
nodes = (
(68,540,o),
(90,558,o),
(107,558,cs),
(137,558,l),
(162,700,l),
(98,700,ls),
(20,700,o),
(-46,643,o),
(-60,565,cs),
(-73,491,l),
(59,491,l),
(65,523,l)
);
}
);
width = 774;
}
);
metricLeft = D;
metricRight = D;
unicode = 394;
},
{
glyphname = Dtail;
lastChange = "2025-06-08 05:15:42 +0000";
layers = (
{
layerId = m01;
shapes = (
{
pos = (70,0);
ref = D;
},
{
closed = 1;
nodes = (
(318,339,l),
(318,361,l),
(20,361,l),
(20,339,l)
);
}
);
width = 801;
},
{
layerId = m002;
shapes = (
{
pos = (60,0);
ref = D;
},
{
closed = 1;
nodes = (
(303,311,l),
(303,389,l),
(5,389,l),
(5,311,l)
);
}
);
width = 771;
},
{
layerId = m003;
shapes = (
{
pos = (22,0);
ref = D;
},
{
closed = 1;
nodes = (
(311,292,l),
(311,408,l),
(13,408,l),
(13,292,l)
);
}
);
width = 786;
},
{
layerId = m004;
shapes = (
{
pos = (28,0);
ref = D;
},
{
closed = 1;
nodes = (
(335,339,l),
(339,361,l),
(41,361,l),
(37,339,l)
);
}
);
width = 758;
},
{
layerId = m005;
shapes = (
{
pos = (18,0);
ref = D;
},
{
closed = 1;
nodes = (
(316,311,l),
(329,389,l),
(31,389,l),
(18,311,l)
);
}
);
width = 729;
},
{
layerId = m006;
shapes = (
{
pos = (-20,0);
ref = D;
},
{
closed = 1;
nodes = (
(320,292,l),
(341,408,l),
(43,408,l),
(22,292,l)
);
}
);
width = 743;
}
);
metricRight = D;
unicode = 393;
},
{
glyphname = E;
kernLeft = H;
kernRight = E;
lastChange = "2025-06-08 05:15:42 +0000";
layers = (
{
anchors = (
{
name = bottom;
pos = (271,80);
},
{
name = "e-bottom";
pos = (271,23);
},
{
name = ogonek;
pos = (567,10);
},
{
name = top;
pos = (271,700);
},
{
name = topleft;
pos = (20,700);
}
);
layerId = m01;
shapes = (
{
closed = 1;
nodes = (
(98,0,l),
(98,700,l),
(70,700,l),
(70,0,l)
);
},
{
closed = 1;
nodes = (
(506,0,l),
(506,27,l),
(87,27,l),
(87,0,l)
);
},
{
closed = 1;
nodes = (
(486,349,l),
(486,375,l),
(87,375,l),
(87,349,l)
);
},
{
closed = 1;
nodes = (
(498,674,l),
(498,700,l),
(86,700,l),
(86,674,l)
);
}
);
width = 541;
},
{
anchors = (
{
name = bottom;
pos = (272,80);
},
{
name = "e-bottom";
pos = (274,50);
},
{
name = ogonek;
pos = (490,10);
},
{
name = top;
pos = (272,700);
},
{
name = topleft;
pos = (20,700);
}
);
layerId = m002;
shapes = (
{
closed = 1;
nodes = (
(133,0,l),
(133,700,l),
(45,700,l),
(45,0,l)
);
},
{
closed = 1;
nodes = (
(521,0,l),
(521,82,l),
(102,82,l),
(102,0,l)
);
},
{
closed = 1;
nodes = (
(501,321,l),
(501,401,l),
(102,401,l),
(102,321,l)
);
},
{
closed = 1;
nodes = (
(513,620,l),
(513,700,l),
(101,700,l),
(101,620,l)
);
}
);
width = 544;
},
{
anchors = (
{
name = bottom;
pos = (301,0);
},
{
name = "e-bottom";
pos = (378,54);
},
{
name = ogonek;
pos = (534,10);
},
{
name = top;
pos = (301,700);
},
{
name = topleft;
pos = (30,700);
}
);
layerId = m003;
shapes = (
{
closed = 1;
nodes = (
(219,0,l),
(219,700,l),
(55,700,l),
(55,0,l)
);
},
{
closed = 1;
nodes = (
(569,0,l),
(569,160,l),
(150,160,l),
(150,0,l)
);
},
{
closed = 1;
nodes = (
(549,284,l),
(549,436,l),
(150,436,l),
(150,284,l)
);
},
{
closed = 1;
nodes = (
(561,548,l),
(561,700,l),
(149,700,l),
(149,548,l)
);
}
);
width = 597;
},
{
anchors = (
{
name = bottom;
pos = (243,80);
},
{
name = "e-bottom";
pos = (233,23);
},
{
name = ogonek;
pos = (526,10);
},
{
name = top;
pos = (352,700);
},
{
name = topleft;
pos = (101,700);
}
);
layerId = m004;
shapes = (
{
closed = 1;
nodes = (
(56,0,l),
(179,700,l),
(151,700,l),
(28,0,l)
);
},
{
closed = 1;
nodes = (
(464,0,l),
(468,27,l),
(49,27,l),
(45,0,l)
);
},
{
closed = 1;
nodes = (
(505,349,l),
(510,375,l),
(111,375,l),
(106,349,l)
);
},
{
closed = 1;
nodes = (
(575,674,l),
(579,700,l),
(167,700,l),
(163,674,l)
);
}
);
width = 614;
},
{
anchors = (
{
name = bottom;
pos = (244,80);
},
{
name = "e-bottom";
pos = (240,50);
},
{
name = ogonek;
pos = (449,10);
},
{
name = top;
pos = (353,700);
},
{
name = topleft;
pos = (101,700);
}
);
layerId = m005;
shapes = (
{
closed = 1;
nodes = (
(91,0,l),
(214,700,l),
(126,700,l),
(3,0,l)
);
},
{
closed = 1;
nodes = (
(479,0,l),
(493,82,l),
(74,82,l),
(60,0,l)
);
},
{
closed = 1;
nodes = (
(515,321,l),
(529,401,l),
(130,401,l),
(116,321,l)
);
},
{
closed = 1;
nodes = (
(580,620,l),
(594,700,l),
(182,700,l),
(168,620,l)
);
}
);
width = 617;
},
{
anchors = (
{
name = bottom;
pos = (259,0);
},
{
name = "e-bottom";
pos = (345,54);
},
{
name = ogonek;
pos = (493,10);
},
{
name = top;
pos = (382,700);
},
{
name = topleft;
pos = (111,700);
}
);
layerId = m006;
shapes = (
{
closed = 1;
nodes = (
(177,0,l),
(300,700,l),
(136,700,l),
(13,0,l)
);
},
{
closed = 1;
nodes = (
(527,0,l),
(555,160,l),
(136,160,l),
(108,0,l)
);
},
{
closed = 1;
nodes = (
(557,284,l),
(584,436,l),
(185,436,l),
(158,284,l)
);
},
{
closed = 1;
nodes = (
(615,548,l),
(642,700,l),
(230,700,l),
(203,548,l)
);
}
);
width = 670;
}
);
metricLeft = H;
metricRight = "=H/2";
unicode = 69;
},
{
glyphname = Eopen;
lastChange = "2025-06-08 03:37:10 +0000";
layers = (
{
anchors = (
{
name = bottom;
pos = (253,0);
},
{
name = top;
pos = (253,700);
}
);
layerId = m01;
shapes = (
{
closed = 1;
nodes = (
(387,-16,o),
(485,46,o),
(530,140,c),
(507,147,l),
(467,65,o),
(377,10,o),
(281,10,cs),
(154,10,o),
(70,77,o),
(70,177,cs),
(70,287,o),
(180,360,o),
(345,360,c),
(345,384,l),
(180,384,o),
(70,444,o),
(70,535,cs),
(70,629,o),
(148,692,o),
(265,692,cs),
(355,692,o),
(440,642,o),
(476,568,c),
(501,575,l),
(458,660,o),
(368,716,o),
(275,716,cs),
(134,716,o),
(40,643,o),
(40,534,cs),
(40,450,o),
(117,385,o),
(232,372,c),
(117,360,o),
(40,282,o),
(40,178,cs),
(40,62,o),
(138,-16,o),
(284,-16,cs)
);
}
);
width = 550;
},
{
anchors = (
{
name = bottom;
pos = (253,0);
},
{
name = top;
pos = (253,700);
}
);
layerId = m002;
shapes = (
{
closed = 1;
nodes = (
(397,-16,o),
(491,46,o),
(530,140,c),
(451,167,l),
(423,109,o),
(363,66,o),
(281,66,cs),
(190,66,o),
(130,114,o),
(130,177,cs),
(130,274,o),
(254,328,o),
(345,328,c),
(345,416,l),
(254,416,o),
(130,449,o),
(130,535,cs),
(130,590,o),
(192,634,o),
(265,634,cs),
(350,634,o),
(405,601,o),
(428,554,c),
(501,575,l),
(468,660,o),
(381,716,o),
(285,716,cs),
(138,716,o),
(40,634,o),
(40,534,cs),
(40,441,o),
(124,384,o),
(232,372,c),
(124,361,o),
(40,281,o),
(40,178,cs),
(40,52,o),
(142,-16,o),
(294,-16,cs)
);
}
);
width = 550;
},
{
anchors = (
{
name = bottom;
pos = (304,0);
},
{
name = top;
pos = (304,700);
}
);
layerId = m003;
shapes = (
{
closed = 1;
nodes = (
(456,-16,o),
(567,50,o),
(604,148,c),
(444,212,l),
(430,170,o),
(385,142,o),
(332,142,cs),
(256,142,o),
(206,178,o),
(206,231,cs),
(206,281,o),
(273,315,o),
(373,315,c),
(373,429,l),
(273,429,o),
(206,454,o),
(206,492,cs),
(206,532,o),
(252,558,o),
(322,558,cs),
(363,558,o),
(404,537,o),
(424,506,c),
(589,560,l),
(546,654,o),
(432,716,o),
(303,716,cs),
(145,716,o),
(40,638,o),
(40,520,cs),
(40,446,o),
(90,387,o),
(165,372,c),
(90,361,o),
(40,294,o),
(40,205,cs),
(40,72,o),
(154,-16,o),
(326,-16,cs)
);
}
);
width = 624;
},
{
anchors = (
{
name = bottom;
pos = (211,0);
},
{
name = top;
pos = (334,700);
}
);
layerId = m004;
shapes = (
{
closed = 1;
nodes = (
(343,-16,o),
(451,45,o),
(513,139,c),
(490,148,l),
(436,66,o),
(335,10,o),
(239,10,cs),
(112,10,o),
(41,76,o),
(59,176,cs),
(78,286,o),
(202,360,o),
(367,360,c),
(369,384,l),
(204,384,o),
(106,443,o),
(122,534,cs),
(138,628,o),
(229,692,o),
(346,692,cs),
(436,692,o),
(511,643,o),
(534,569,c),
(560,574,l),
(531,659,o),
(451,716,o),
(358,716,cs),
(217,716,o),
(111,644,o),
(92,535,cs),
(77,451,o),
(144,385,o),
(256,372,c),
(137,360,o),
(48,283,o),
(29,179,cs),
(9,63,o),
(94,-16,o),
(240,-16,cs)
);
}
);
width = 550;
},
{
anchors = (
{
name = bottom;
pos = (211,0);
},
{
name = top;
pos = (334,700);
}
);
layerId = m005;
shapes = (
{
closed = 1;
nodes = (
(355,-16,o),
(458,43,o),
(513,137,c),
(437,170,l),
(399,112,o),
(329,66,o),
(247,66,cs),
(156,66,o),
(107,111,o),
(118,174,cs),
(136,271,o),
(273,328,o),
(364,328,c),
(373,416,l),
(282,416,o),
(166,446,o),
(182,532,cs),
(191,587,o),
(265,634,o),
(338,634,cs),
(423,634,o),
(470,604,o),
(485,557,c),
(558,572,l),
(540,657,o),
(462,716,o),
(366,716,cs),
(219,716,o),
(110,637,o),
(92,537,cs),
(76,444,o),
(152,384,o),
(258,372,c),
(142,361,o),
(48,284,o),
(30,181,cs),
(7,55,o),
(100,-16,o),
(252,-16,cs)
);
}
);
width = 550;
},
{
anchors = (
{
name = bottom;
pos = (262,0);
},
{
name = top;
pos = (385,700);
}
);
layerId = m006;
shapes = (
{
closed = 1;
nodes = (
(417,-16,o),
(535,45,o),
(589,143,c),
(438,217,l),
(417,175,o),
(362,142,o),
(309,142,cs),
(233,142,o),
(194,173,o),
(203,226,cs),
(212,276,o),
(292,315,o),
(392,315,c),
(401,429,l),
(301,429,o),
(243,449,o),
(249,487,cs),
(257,527,o),
(314,558,o),
(384,558,cs),
(425,558,o),
(460,542,o),
(475,511,c),
(642,555,l),
(616,649,o),
(510,716,o),
(381,716,cs),
(223,716,o),
(111,643,o),
(90,525,cs),
(77,451,o),
(122,388,o),
(194,373,c),
(106,362,o),
(50,299,o),
(35,210,cs),
(11,77,o),
(115,-16,o),
(287,-16,cs)
);
}
);
width = 624;
}
);
unicode = 400;
},
{
glyphname = Esh;
lastChange = "2025-06-08 03:37:10 +0000";
layers = (
{
layerId = m01;
shapes = (
{
closed = 1;
nodes = (
(328,350,l),
(98,675,l),
(70,675,l),
(300,350,l)
);
},
{
closed = 1;
nodes = (
(506,0,l),
(506,26,l),
(70,26,l),
(70,0,l)
);
},
{
closed = 1;
nodes = (
(498,675,l),
(498,700,l),
(70,700,l),
(70,675,l)
);
},
{
closed = 1;
nodes = (
(300,350,l),
(70,26,l),
(98,26,l),
(328,350,l)
);
}
);
width = 541;
},
{
layerId = m002;
shapes = (
{
closed = 1;
nodes = (
(363,350,l),
(143,620,l),
(45,620,l),
(265,350,l)
);
},
{
closed = 1;
nodes = (
(521,0,l),
(521,82,l),
(45,82,l),
(45,0,l)
);
},
{
closed = 1;
nodes = (
(513,620,l),
(513,700,l),
(45,700,l),
(45,620,l)
);
},
{
closed = 1;
nodes = (
(265,350,l),
(45,82,l),
(143,82,l),
(363,350,l)
);
}
);
width = 544;
},
{
layerId = m003;
shapes = (
{
closed = 1;
nodes = (
(388,350,l),
(238,548,l),
(64,548,l),
(214,350,l)
);
},
{
closed = 1;
nodes = (
(559,0,l),
(559,160,l),
(64,160,l),
(64,0,l)
);
},
{
closed = 1;
nodes = (
(551,548,l),
(551,700,l),
(64,700,l),
(64,548,l)
);
},
{
closed = 1;
nodes = (
(214,350,l),
(64,160,l),
(238,160,l),
(388,350,l)
);
}
);
width = 582;
},
{
layerId = m004;
shapes = (
{
closed = 1;
nodes = (
(347,350,l),
(175,675,l),
(147,675,l),
(319,350,l)
);
},
{
closed = 1;
nodes = (
(464,0,l),
(468,26,l),
(32,26,l),
(28,0,l)
);
},
{
closed = 1;
nodes = (
(575,675,l),
(579,700,l),
(151,700,l),
(147,675,l)
);
},
{
closed = 1;
nodes = (
(319,350,l),
(32,26,l),
(60,26,l),
(347,350,l)
);
}
);
width = 541;
},
{
layerId = m005;
shapes = (
{
closed = 1;
nodes = (
(382,350,l),
(210,620,l),
(112,620,l),
(284,350,l)
);
},
{
closed = 1;
nodes = (
(479,0,l),
(493,82,l),
(17,82,l),
(3,0,l)
);
},
{
closed = 1;
nodes = (
(580,620,l),
(594,700,l),
(126,700,l),
(112,620,l)
);
},
{
closed = 1;
nodes = (
(284,350,l),
(17,82,l),
(115,82,l),
(382,350,l)
);
}
);
width = 544;
},
{
layerId = m006;
shapes = (
{
closed = 1;
nodes = (
(407,350,l),
(292,548,l),
(118,548,l),
(233,350,l)
);
},
{
closed = 1;
nodes = (
(517,0,l),
(545,160,l),
(50,160,l),
(22,0,l)
);
},
{
closed = 1;
nodes = (
(605,548,l),
(632,700,l),
(145,700,l),
(118,548,l)
);
},
{
closed = 1;
nodes = (
(233,350,l),
(50,160,l),
(224,160,l),
(407,350,l)
);
}
);
width = 582;
}
);
unicode = 425;
},
{
glyphname = Schwa;
kernLeft = O;
kernRight = O;
lastChange = "2025-06-08 05:15:42 +0000";
layers = (
{
anchors = (
{
name = bottom;
pos = (300,0);
},
{
name = "e-top";
pos = (299,468);
},
{
name = ogonek;
pos = (58,457);
},
{
name = top;
pos = (300,700);
}
);
layerId = m01;
shapes = (
{
closed = 1;
nodes = (
(268,716,o),
(134,656,o),
(73,579,c),
(98,555,l),
(153,629,o),
(274,688,o),
(372,688,cs),
(562,688,o),
(712,539,o),
(712,350,cs),
(712,161,o),
(575,12,o),
(401,12,cs),
(212,12,o),
(69,167,o),
(75,364,cs),
(75,377,o),
(75,389,o),
(76,390,c),
(49,390,l),
(47,381,o),
(45,368,o),
(45,361,cs),
(45,150,o),
(200,-16,o),
(398,-16,cs),
(591,-16,o),
(742,145,o),
(742,350,cs),
(742,555,o),
(582,716,o),
(378,716,cs)
);
},
{
closed = 1;
nodes = (
(61,390,l),
(61,364,l),
(725,364,l),
(725,390,l)
);
}
);
width = 787;
},
{
anchors = (
{
name = bottom;
pos = (300,0);
},
{
name = "e-top";
pos = (264,438);
},
{
name = ogonek;
pos = (63,440);
},
{
name = top;
pos = (300,700);
}
);
layerId = m002;
shapes = (
{
closed = 1;
nodes = (
(243,716,o),
(108,655,o),
(47,578,c),
(109,516,l),
(159,582,o),
(263,634,o),
(346,634,cs),
(504,634,o),
(628,509,o),
(628,349,cs),
(628,191,o),
(511,66,o),
(361,66,cs),
(230,66,o),
(120,184,o),
(110,335,cs),
(109,350,o),
(109,374,o),
(110,389,c),
(24,389,l),
(22,381,o),
(20,366,o),
(20,355,cs),
(23,147,o),
(178,-16,o),
(372,-16,cs),
(566,-16,o),
(718,145,o),
(718,349,cs),
(718,555,o),
(557,716,o),
(352,716,cs)
);
},
{
closed = 1;
nodes = (
(44,389,l),
(44,311,l),
(644,311,l),
(644,389,l)
);
}
);
width = 738;
},
{
anchors = (
{
name = bottom;
pos = (304,0);
},
{
name = "e-top";
pos = (273,438);
},
{
name = ogonek;
pos = (74,430);
},
{
name = top;
pos = (304,700);
}
);
layerId = m003;
shapes = (
{
closed = 1;
nodes = (
(255,716,o),
(127,661,o),
(76,591,c),
(180,485,l),
(221,526,o),
(291,558,o),
(339,558,cs),
(469,558,o),
(571,466,o),
(571,349,cs),
(571,233,o),
(485,142,o),
(376,142,cs),
(272,142,o),
(191,221,o),
(191,322,cs),
(191,360,o),
(200,400,o),
(211,413,c),
(31,413,l),
(28,389,o),
(25,358,o),
(25,342,c),
(22,142,o),
(181,-16,o),
(386,-16,cs),
(583,-16,o),
(737,145,o),
(737,349,cs),
(737,555,o),
(574,716,o),
(366,716,cs)
);
},
{
closed = 1;
nodes = (
(118,413,l),
(118,297,l),
(658,297,l),
(658,413,l)
);
}
);
width = 762;
},
{
anchors = (
{
name = bottom;
pos = (256,0);
},
{
name = "e-top";
pos = (337,468);
},
{
name = ogonek;
pos = (94,457);
},
{
name = top;
pos = (379,700);
}
);
layerId = m004;
shapes = (
{
closed = 1;
nodes = (
(349,716,o),
(205,657,o),
(130,580,c),
(152,554,l),
(220,628,o),
(352,688,o),
(450,688,cs),
(640,688,o),
(763,540,o),
(730,351,cs),
(696,162,o),
(532,12,o),
(358,12,cs),
(169,12,o),
(54,166,o),
(95,363,cs),
(97,376,o),
(100,388,o),
(101,389,c),
(73,391,l),
(70,382,o),
(66,369,o),
(64,362,cs),
(27,151,o),
(154,-16,o),
(352,-16,cs),
(545,-16,o),
(723,144,o),
(759,349,cs),
(795,554,o),
(663,716,o),
(459,716,cs)
);
},
{
closed = 1;
nodes = (
(85,390,l),
(81,364,l),
(745,364,l),
(749,390,l)
);
}
);
width = 785;
},
{
anchors = (
{
name = bottom;
pos = (256,0);
},
{
name = "e-top";
pos = (297,438);
},
{
name = ogonek;
pos = (96,440);
},
{
name = top;
pos = (379,700);
}
);
layerId = m005;
shapes = (
{
closed = 1;
nodes = (
(322,716,o),
(178,657,o),
(103,580,c),
(157,514,l),
(219,580,o),
(334,634,o),
(417,634,cs),
(575,634,o),
(674,512,o),
(646,352,cs),
(618,194,o),
(475,66,o),
(325,66,cs),
(194,66,o),
(107,181,o),
(124,332,cs),
(126,347,o),
(130,371,o),
(134,386,c),
(48,392,l),
(45,384,o),
(41,369,o),
(39,358,cs),
(5,150,o),
(134,-16,o),
(328,-16,cs),
(522,-16,o),
(699,142,o),
(735,346,cs),
(771,552,o),
(636,716,o),
(431,716,cs)
);
},
{
closed = 1;
nodes = (
(68,389,l),
(55,311,l),
(655,311,l),
(668,389,l)
);
}
);
width = 736;
},
{
anchors = (
{
name = bottom;
pos = (265,0);
},
{
name = "e-top";
pos = (311,438);
},
{
name = ogonek;
pos = (111,430);
},
{
name = top;
pos = (388,700);
}
);
layerId = m006;
shapes = (
{
closed = 1;
nodes = (
(336,716,o),
(202,665,o),
(138,595,c),
(230,481,l),
(278,522,o),
(356,558,o),
(404,558,cs),
(534,558,o),
(615,471,o),
(594,354,cs),
(574,238,o),
(465,142,o),
(356,142,cs),
(252,142,o),
(190,216,o),
(207,317,cs),
(214,355,o),
(234,396,o),
(247,409,c),
(65,418,l),
(58,394,o),
(50,363,o),
(47,347,c),
(9,147,o),
(145,-16,o),
(350,-16,cs),
(547,-16,o),
(722,140,o),
(758,344,cs),
(795,550,o),
(655,716,o),
(447,716,cs)
);
},
{
closed = 1;
nodes = (
(152,413,l),
(131,297,l),
(671,297,l),
(692,413,l)
);
}
);
width = 765;
}
);
metricLeft = O;
metricRight = O;
unicode = 399;
},
{
glyphname = Ezh;
lastChange = "2025-06-08 05:15:42 +0000";
layers = (
{
anchors = (
{
name = bottom;
pos = (290,0);
},
{
name = top;
pos = (290,700);
}
);
layerId = m01;
shapes = (
{
closed = 1;
nodes = (
(401,-16,o),
(504,85,o),
(504,214,cs),
(504,343,o),
(400,443,o),
(267,442,c),
(267,417,l),
(383,417,o),
(474,327,o),
(474,213,cs),
(474,99,o),
(383,9,o),
(267,9,cs),
(151,9,o),
(60,93,o),
(60,201,c),
(30,201,l),
(30,79,o),
(135,-16,o),
(269,-16,cs)
);
},
{
closed = 1;
nodes = (
(272,417,l),
(272,426,l),
(485,674,l),
(451,674,l),
(243,429,l),
(243,417,l)
);
},
{
closed = 1;
nodes = (
(485,674,l),
(485,700,l),
(56,700,l),
(56,674,l)
);
}
);
width = 549;
},
{
anchors = (
{
name = bottom;
pos = (280,0);
},
{
name = top;
pos = (280,700);
}
);
layerId = m002;
shapes = (
{
closed = 1;
nodes = (
(391,-16,o),
(494,85,o),
(494,214,cs),
(494,343,o),
(390,443,o),
(257,442,c),
(257,360,l),
(339,360,o),
(404,295,o),
(404,213,cs),
(404,131,o),
(339,66,o),
(257,66,cs),
(175,66,o),
(110,125,o),
(110,201,c),
(20,201,l),
(20,79,o),
(125,-16,o),
(259,-16,cs)
);
},
{
closed = 1;
nodes = (
(262,360,l),
(262,396,l),
(475,618,l),
(363,618,l),
(185,429,l),
(185,360,l)
);
},
{
closed = 1;
nodes = (
(475,618,l),
(475,700,l),
(46,700,l),
(46,618,l)
);
}
);
width = 524;
},
{
anchors = (
{
name = bottom;
pos = (280,0);
},
{
name = top;
pos = (280,700);
}
);
layerId = m003;
shapes = (
{
closed = 1;
nodes = (
(406,-16,o),
(514,90,o),
(514,224,cs),
(514,358,o),
(405,463,o),
(267,462,c),
(267,304,l),
(312,304,o),
(348,268,o),
(348,223,cs),
(348,178,o),
(312,142,o),
(267,142,cs),
(222,142,o),
(186,172,o),
(186,211,c),
(20,211,l),
(20,84,o),
(130,-16,o),
(269,-16,cs)
);
},
{
closed = 1;
nodes = (
(282,304,l),
(282,336,l),
(495,544,l),
(293,544,l),
(155,409,l),
(155,304,l)
);
},
{
closed = 1;
nodes = (
(495,544,l),
(495,700,l),
(56,700,l),
(56,544,l)
);
}
);
width = 544;
},
{
anchors = (
{
name = bottom;
pos = (230,0);
},
{
name = top;
pos = (353,700);
}
);
layerId = m004;
shapes = (
{
closed = 1;
nodes = (
(339,-16,o),
(459,84,o),
(481,213,cs),
(504,342,o),
(417,443,o),
(284,442,c),
(281,417,l),
(397,417,o),
(471,328,o),
(451,214,cs),
(431,100,o),
(323,9,o),
(207,9,cs),
(91,9,o),
(16,92,o),
(35,200,c),
(5,202,l),
(-16,80,o),
(73,-16,o),
(207,-16,cs)
);
},
{
closed = 1;
nodes = (
(285,417,l),
(287,426,l),
(544,674,l),
(510,674,l),
(258,429,l),
(256,417,l)
);
},
{
closed = 1;
nodes = (
(544,674,l),
(548,700,l),
(119,700,l),
(115,674,l)
);
}
);
width = 565;
},
{
anchors = (
{
name = bottom;
pos = (219,0);
},
{
name = top;
pos = (342,700);
}
);
layerId = m005;
shapes = (
{
closed = 1;
nodes = (
(330,-16,o),
(447,82,o),
(470,211,cs),
(493,340,o),
(404,443,o),
(271,442,c),
(262,360,l),
(344,360,o),
(395,298,o),
(381,216,cs),
(366,134,o),
(286,66,o),
(204,66,cs),
(122,66,o),
(70,122,o),
(84,198,c),
(-5,204,l),
(-27,82,o),
(64,-16,o),
(198,-16,cs)
);
},
{
closed = 1;
nodes = (
(264,360,l),
(271,396,l),
(523,618,l),
(411,618,l),
(199,429,l),
(187,360,l)
);
},
{
closed = 1;
nodes = (
(523,618,l),
(537,700,l),
(108,700,l),
(94,618,l)
);
}
);
width = 543;
},
{
anchors = (
{
name = bottom;
pos = (225,0);
},
{
name = top;
pos = (348,700);
}
);
layerId = m006;
shapes = (
{
closed = 1;
nodes = (
(354,-16,o),
(474,85,o),
(497,219,cs),
(521,353,o),
(426,463,o),
(287,462,c),
(271,304,l),
(316,304,o),
(341,273,o),
(333,228,cs),
(325,183,o),
(276,142,o),
(231,142,cs),
(186,142,o),
(160,167,o),
(167,206,c),
(3,216,l),
(-20,89,o),
(78,-16,o),
(217,-16,cs)
);
},
{
closed = 1;
nodes = (
(280,304,l),
(286,336,l),
(536,544,l),
(334,544,l),
(172,409,l),
(153,304,l)
);
},
{
closed = 1;
nodes = (
(536,544,l),
(563,700,l),
(124,700,l),
(97,544,l)
);
}
);
width = 575;
}
);
metricLeft = three;
metricRight = three;
unicode = 439;
},
{
glyphname = F;
kernLeft = H;
kernRight = F;
lastChange = "2025-06-08 05:15:42 +0000";
layers = (
{
anchors = (
{
name = bottom;
pos = (266,0);
},
{
name = top;
pos = (266,700);
}
);
layerId = m01;
shapes = (
{
closed = 1;
nodes = (
(98,0,l),
(98,700,l),
(70,700,l),
(70,0,l)
);
},
{
closed = 1;
nodes = (
(496,317,l),
(496,341,l),
(87,341,l),
(87,317,l)
);
},
{
closed = 1;
nodes = (
(495,676,l),
(495,700,l),
(86,700,l),
(86,676,l)
);
}
);
width = 531;
},
{
anchors = (
{
name = bottom;
pos = (267,0);
},
{
name = top;
pos = (267,700);
}
);
layerId = m002;
shapes = (
{
closed = 1;
nodes = (
(133,0,l),
(133,700,l),
(45,700,l),
(45,0,l)
);
},
{
closed = 1;
nodes = (
(511,290,l),
(511,368,l),
(102,368,l),
(102,290,l)
);
},
{
closed = 1;
nodes = (
(510,622,l),
(510,700,l),
(101,700,l),
(101,622,l)
);
}
);
width = 534;
},
{
anchors = (
{
name = bottom;
pos = (296,0);
},
{
name = top;
pos = (296,700);
}
);
layerId = m003;
shapes = (
{
closed = 1;
nodes = (
(219,0,l),
(219,700,l),
(55,700,l),
(55,0,l)
);
},
{
closed = 1;
nodes = (
(544,243,l),
(544,395,l),
(150,395,l),
(150,243,l)
);
},
{
closed = 1;
nodes = (
(558,548,l),
(558,700,l),
(149,700,l),
(149,548,l)
);
}
);
width = 586;
},
{
anchors = (
{
name = bottom;
pos = (224,0);
},
{
name = top;
pos = (347,700);
}
);
layerId = m004;
shapes = (
{
closed = 1;
nodes = (
(56,0,l),
(179,700,l),
(151,700,l),
(28,0,l)
);
},
{
closed = 1;
nodes = (
(510,317,l),
(514,341,l),
(105,341,l),
(101,317,l)
);
},
{
closed = 1;
nodes = (
(572,676,l),
(576,700,l),
(167,700,l),
(163,676,l)
);
}
);
width = 611;
},
{
anchors = (
{
name = bottom;
pos = (225,0);
},
{
name = top;
pos = (348,700);
}
);
layerId = m005;
shapes = (
{
closed = 1;
nodes = (
(91,0,l),
(214,700,l),
(126,700,l),
(3,0,l)
);
},
{
closed = 1;
nodes = (
(520,290,l),
(534,368,l),
(125,368,l),
(111,290,l)
);
},
{
closed = 1;
nodes = (
(577,622,l),
(591,700,l),
(182,700,l),
(168,622,l)
);
}
);
width = 614;
},
{
anchors = (
{
name = bottom;
pos = (254,0);
},
{
name = top;
pos = (377,700);
}
);
layerId = m006;
shapes = (
{
closed = 1;
nodes = (
(177,0,l),
(300,700,l),
(136,700,l),
(13,0,l)
);
},
{
closed = 1;
nodes = (
(545,243,l),
(571,395,l),
(177,395,l),
(151,243,l)
);
},
{
closed = 1;
nodes = (
(612,548,l),
(639,700,l),
(230,700,l),
(203,548,l)
);
}
);
width = 667;
}
);
metricLeft = H;
metricRight = "=H/2";
unicode = 70;
},
{
glyphname = Fhook;
kernLeft = Fhook;
kernRight = Fhook;
lastChange = "2025-06-08 05:15:42 +0000";
layers = (
{
layerId = m01;
shapes = (
{
closed = 1;
nodes = (
(73,-178,ls),
(152,-178,o),
(214,-110,o),
(214,-24,cs),
(214,700,l),
(186,700,l),
(186,-24,ls),
(186,-97,o),
(137,-154,o),
(75,-154,cs),
(-10,-154,l),
(-10,-178,l)
);
},
{
closed = 1;
nodes = (
(622,317,l),
(622,341,l),
(203,341,l),
(203,317,l)
);
},
{
closed = 1;
nodes = (
(621,676,l),
(621,700,l),
(202,700,l),
(202,676,l)
);
}
);
width = 657;
},
{
layerId = m002;
shapes = (
{
closed = 1;
nodes = (
(73,-207,ls),
(163,-207,o),
(244,-126,o),
(244,-24,cs),
(244,700,l),
(156,700,l),
(156,-24,ls),
(156,-81,o),
(116,-125,o),
(75,-125,cs),
(-10,-125,l),
(-10,-207,l)
);
},
{
closed = 1;
nodes = (
(622,290,l),
(622,368,l),
(213,368,l),
(213,290,l)
);
},
{
closed = 1;
nodes = (
(621,622,l),
(621,700,l),
(212,700,l),
(212,622,l)
);
}
);
width = 645;
},
{
layerId = m003;
shapes = (
{
closed = 1;
nodes = (
(73,-244,ls),
(190,-244,o),
(282,-147,o),
(282,-24,cs),
(282,700,l),
(118,700,l),
(118,-24,ls),
(118,-60,o),
(99,-88,o),
(75,-88,cs),
(-10,-88,l),
(-10,-244,l)
);
},
{
closed = 1;
nodes = (
(622,211,l),
(622,367,l),
(213,367,l),
(213,211,l)
);
},
{
closed = 1;
nodes = (
(621,544,l),
(621,700,l),
(212,700,l),
(212,544,l)
);
}
);
width = 650;
},
{
layerId = m004;
shapes = (
{
closed = 1;
nodes = (
(-78,-178,ls),
(1,-178,o),
(74,-111,o),
(89,-25,cs),
(217,700,l),
(189,700,l),
(62,-23,ls),
(49,-96,o),
(-11,-154,o),
(-73,-154,cs),
(-157,-154,l),
(-162,-178,l)
);
},
{
closed = 1;
nodes = (
(558,317,l),
(562,341,l),
(143,341,l),
(139,317,l)
);
},
{
closed = 1;
nodes = (
(620,676,l),
(624,700,l),
(205,700,l),
(201,676,l)
);
}
);
width = 659;
},
{
layerId = m005;
shapes = (
{
closed = 1;
nodes = (
(-71,-207,ls),
(19,-207,o),
(111,-129,o),
(129,-27,cs),
(257,700,l),
(169,700,l),
(42,-21,ls),
(32,-78,o),
(-19,-125,o),
(-60,-125,cs),
(-142,-125,l),
(-157,-207,l)
);
},
{
closed = 1;
nodes = (
(563,290,l),
(577,368,l),
(168,368,l),
(154,290,l)
);
},
{
closed = 1;
nodes = (
(620,622,l),
(634,700,l),
(225,700,l),
(211,622,l)
);
}
);
width = 657;
},
{
layerId = m006;
shapes = (
{
closed = 1;
nodes = (
(-63,-244,ls),
(54,-244,o),
(157,-152,o),
(178,-29,cs),
(307,700,l),
(143,700,l),
(16,-19,ls),
(10,-55,o),
(-21,-88,o),
(-45,-88,cs),
(-124,-88,l),
(-151,-244,l)
);
},
{
closed = 1;
nodes = (
(561,211,l),
(588,367,l),
(179,367,l),
(152,211,l)
);
},
{
closed = 1;
nodes = (
(619,544,l),
(646,700,l),
(237,700,l),
(210,544,l)
);
}
);
width = 674;
}
);
metricLeft = florin;
metricRight = F;
unicode = 401;
},
{
glyphname = G;
kernLeft = O;
kernRight = O;
lastChange = "2025-06-08 05:15:42 +0000";
layers = (
{
anchors = (
{
name = bottom;
pos = (417,0);
},
{
name = top;
pos = (417,700);
}
);
layerId = m01;
shapes = (
{
closed = 1;
nodes = (
(614,-16,o),
(773,150,o),
(773,362,c),
(743,362,l),
(743,164,o),
(597,8,o),
(411,8,cs),
(223,8,o),
(75,161,o),
(75,355,cs),
(75,544,o),
(223,692,o),
(411,692,cs),
(498,692,o),
(605,649,o),
(655,594,c),
(671,614,l),
(614,671,o),
(499,716,o),
(411,716,cs),
(206,716,o),
(45,557,o),
(45,355,cs),
(45,147,o),
(206,-16,o),
(411,-16,cs)
);
},
{
closed = 1;
nodes = (
(768,357,l),
(773,361,l),
(773,381,l),
(461,381,l),
(461,357,l)
);
}
);
width = 833;
},
{
anchors = (
{
name = bottom;
pos = (392,0);
},
{
name = top;
pos = (392,700);
}
);
layerId = m002;
shapes = (
{
closed = 1;
nodes = (
(595,-16,o),
(744,131,o),
(748,341,c),
(658,341,l),
(658,187,o),
(516,66,o),
(386,66,cs),
(224,66,o),
(110,183,o),
(110,350,cs),
(110,517,o),
(224,634,o),
(386,634,cs),
(470,634,o),
(543,602,o),
(593,547,c),
(646,614,l),
(582,678,o),
(491,716,o),
(386,716,cs),
(171,716,o),
(20,565,o),
(20,350,cs),
(20,135,o),
(171,-16,o),
(386,-16,cs)
);
},
{
closed = 1;
nodes = (
(736,327,l),
(748,341,l),
(748,407,l),
(436,407,l),
(436,327,l)
);
}
);
width = 783;
},
{
anchors = (
{
name = bottom;
pos = (402,0);
},
{
name = top;
pos = (402,700);
}
);
layerId = m003;
shapes = (
{
closed = 1;
nodes = (
(598,-16,o),
(749,141,o),
(753,341,c),
(610,341,l),
(610,228,o),
(522,140,o),
(409,140,cs),
(287,140,o),
(191,232,o),
(191,350,cs),
(191,468,o),
(287,560,o),
(409,560,cs),
(478,560,o),
(540,528,o),
(575,485,c),
(670,603,l),
(609,669,o),
(517,716,o),
(409,716,cs),
(194,716,o),
(25,555,o),
(25,350,cs),
(25,145,o),
(194,-16,o),
(409,-16,cs)
);
},
{
closed = 1;
nodes = (
(728,304,l),
(753,341,l),
(753,420,l),
(393,420,l),
(393,304,l)
);
}
);
width = 798;
},
{
anchors = (
{
name = bottom;
pos = (374,0);
},
{
name = top;
pos = (497,700);
}
);
layerId = m004;
shapes = (
{
closed = 1;
nodes = (
(569,-16,o),
(756,149,o),
(793,361,c),
(764,363,l),
(729,165,o),
(554,8,o),
(368,8,cs),
(180,8,o),
(60,160,o),
(94,354,cs),
(127,543,o),
(303,692,o),
(491,692,cs),
(578,692,o),
(677,650,o),
(717,595,c),
(735,613,l),
(688,670,o),
(581,716,o),
(493,716,cs),
(288,716,o),
(100,558,o),
(64,356,cs),
(28,148,o),
(161,-16,o),
(366,-16,cs)
);
},
{
closed = 1;
nodes = (
(788,357,l),
(793,361,l),
(797,381,l),
(485,381,l),
(481,357,l)
);
}
);
width = 720;
},
{
anchors = (
{
name = bottom;
pos = (352,0);
},
{
name = top;
pos = (475,700);
}
);
layerId = m005;
shapes = (
{
closed = 1;
nodes = (
(555,-16,o),
(726,128,o),
(767,338,c),
(678,344,l),
(651,190,o),
(484,66,o),
(354,66,cs),
(192,66,o),
(101,180,o),
(131,347,cs),
(160,514,o),
(299,634,o),
(461,634,cs),
(545,634,o),
(611,604,o),
(652,549,c),
(711,612,l),
(659,676,o),
(574,716,o),
(469,716,cs),
(254,716,o),
(80,568,o),
(42,353,cs),
(4,138,o),
(131,-16,o),
(346,-16,cs)
);
},
{
closed = 1;
nodes = (
(753,327,l),
(768,341,l),
(779,407,l),
(467,407,l),
(453,327,l)
);
}
);
width = 681;
},
{
anchors = (
{
name = bottom;
pos = (359,0);
},
{
name = top;
pos = (482,700);
}
);
layerId = m006;
shapes = (
{
closed = 1;
nodes = (
(558,-16,o),
(730,136,o),
(769,336,c),
(628,346,l),
(608,233,o),
(498,140,o),
(385,140,cs),
(263,140,o),
(188,227,o),
(208,345,cs),
(229,463,o),
(348,560,o),
(470,560,cs),
(539,560,o),
(594,532,o),
(622,489,c),
(728,599,l),
(679,665,o),
(594,716,o),
(486,716,cs),
(271,716,o),
(81,560,o),
(44,355,cs),
(8,150,o),
(154,-16,o),
(369,-16,cs)
);
},
{
closed = 1;
nodes = (
(738,304,l),
(770,341,l),
(784,420,l),
(424,420,l),
(403,304,l)
);
}
);
width = 699;
}
);
metricLeft = O;
metricRight = "=H-10";
unicode = 71;
},
{
glyphname = G.ss01;
kernLeft = O;
kernRight = O;
lastChange = "2025-06-08 05:15:42 +0000";
layers = (
{
anchors = (
{
name = bottom;
pos = (417,0);
},
{
name = top;
pos = (417,700);
}
);
layerId = m01;
shapes = (
{
closed = 1;
nodes = (
(614,-16,o),
(773,150,o),
(773,362,c),
(743,362,l),
(743,164,o),
(597,8,o),
(411,8,cs),
(223,8,o),
(75,161,o),
(75,355,cs),
(75,544,o),
(223,692,o),
(411,692,cs),
(498,692,o),
(605,649,o),
(655,594,c),
(671,614,l),
(614,671,o),
(499,716,o),
(411,716,cs),
(206,716,o),
(45,557,o),
(45,355,cs),
(45,147,o),
(206,-16,o),
(411,-16,cs)
);
},
{
closed = 1;
nodes = (
(773,361,l),
(773,381,l),
(461,381,l),
(461,367,l),
(762,311,l)
);
}
);
width = 833;
},
{
anchors = (
{
name = bottom;
pos = (392,0);
},
{
name = top;
pos = (392,700);
}
);
layerId = m002;
shapes = (
{
closed = 1;
nodes = (
(595,-16,o),
(744,131,o),
(748,341,c),
(658,341,l),
(658,187,o),
(516,66,o),
(386,66,cs),
(224,66,o),
(110,183,o),
(110,350,cs),
(110,517,o),
(224,634,o),
(386,634,cs),
(470,634,o),
(543,602,o),
(593,547,c),
(646,614,l),
(582,678,o),
(491,716,o),
(386,716,cs),
(171,716,o),
(20,565,o),
(20,350,cs),
(20,135,o),
(171,-16,o),
(386,-16,cs)
);
},
{
closed = 1;
nodes = (
(748,341,l),
(748,407,l),
(436,407,l),
(436,377,l),
(736,276,l)
);
}
);
width = 783;
},
{
anchors = (
{
name = bottom;
pos = (402,0);
},
{
name = top;
pos = (402,700);
}
);
layerId = m003;
shapes = (
{
closed = 1;
nodes = (
(598,-16,o),
(749,141,o),
(753,341,c),
(610,341,l),
(610,228,o),
(522,140,o),
(409,140,cs),
(287,140,o),
(191,232,o),
(191,350,cs),
(191,468,o),
(287,560,o),
(409,560,cs),
(478,560,o),
(540,528,o),
(575,485,c),
(670,603,l),
(609,669,o),
(517,716,o),
(409,716,cs),
(194,716,o),
(25,555,o),
(25,350,cs),
(25,145,o),
(194,-16,o),
(409,-16,cs)
);
},
{
closed = 1;
nodes = (
(753,341,l),
(753,420,l),
(393,420,l),
(393,354,l),
(708,211,l)
);
}
);
width = 798;
},
{
anchors = (
{
name = bottom;
pos = (374,0);
},
{
name = top;
pos = (497,700);
}
);
layerId = m004;
shapes = (
{
closed = 1;
nodes = (
(569,-16,o),
(756,149,o),
(793,361,c),
(764,363,l),
(729,165,o),
(554,8,o),
(368,8,cs),
(180,8,o),
(60,160,o),
(94,354,cs),
(127,543,o),
(303,692,o),
(491,692,cs),
(578,692,o),
(677,650,o),
(717,595,c),
(735,613,l),
(688,670,o),
(581,716,o),
(493,716,cs),
(288,716,o),
(100,558,o),
(64,356,cs),
(28,148,o),
(161,-16,o),
(366,-16,cs)
);
},
{
closed = 1;
nodes = (
(793,361,l),
(797,381,l),
(485,381,l),
(482,367,l),
(774,311,l)
);
}
);
width = 720;
},
{
anchors = (
{
name = bottom;
pos = (352,0);
},
{
name = top;
pos = (475,700);
}
);
layerId = m005;
shapes = (
{
closed = 1;
nodes = (
(555,-16,o),
(726,128,o),
(767,338,c),
(678,344,l),
(651,190,o),
(484,66,o),
(354,66,cs),
(192,66,o),
(101,180,o),
(131,347,cs),
(160,514,o),
(299,634,o),
(461,634,cs),
(545,634,o),
(611,604,o),
(652,549,c),
(711,612,l),
(659,676,o),
(574,716,o),
(469,716,cs),
(254,716,o),
(80,568,o),
(42,353,cs),
(4,138,o),
(131,-16,o),
(346,-16,cs)
);
},
{
closed = 1;
nodes = (
(768,341,l),
(779,407,l),
(467,407,l),
(462,377,l),
(744,276,l)
);
}
);
width = 681;
},
{
anchors = (
{
name = bottom;
pos = (359,0);
},
{
name = top;
pos = (482,700);
}
);
layerId = m006;
shapes = (
{
closed = 1;
nodes = (
(558,-16,o),
(730,136,o),
(769,336,c),
(628,346,l),
(608,233,o),
(498,140,o),
(385,140,cs),
(263,140,o),
(188,227,o),
(208,345,cs),
(229,463,o),
(348,560,o),
(470,560,cs),
(539,560,o),
(594,532,o),
(622,489,c),
(728,599,l),
(679,665,o),
(594,716,o),
(486,716,cs),
(271,716,o),
(81,560,o),
(44,355,cs),
(8,150,o),
(154,-16,o),
(369,-16,cs)
);
},
{
closed = 1;
nodes = (
(770,341,l),
(784,420,l),
(424,420,l),
(412,354,l),
(702,211,l)
);
}
);
width = 699;
}
);
metricLeft = G;
metricRight = G;
},
{
glyphname = Ghook;
lastChange = "2025-06-08 05:15:42 +0000";
layers = (
{
anchors = (
{
name = bottom;
pos = (300,0);
},
{
name = top;
pos = (300,700);
}
);
layerId = m01;
shapes = (
{
closed = 1;
nodes = (
(614,-16,o),
(773,150,o),
(773,362,c),
(743,362,l),
(743,164,o),
(597,8,o),
(411,8,cs),
(223,8,o),
(75,161,o),
(75,355,cs),
(75,544,o),
(223,692,o),
(411,692,cs),
(498,692,o),
(605,649,o),
(655,594,c),
(671,614,l),
(614,671,o),
(499,716,o),
(411,716,cs),
(206,716,o),
(45,557,o),
(45,355,cs),
(45,147,o),
(206,-16,o),
(411,-16,cs)
);
},
{
closed = 1;
nodes = (
(768,357,l),
(773,361,l),
(773,381,l),
(461,381,l),
(461,357,l)
);
},
{
closed = 1;
nodes = (
(683,712,o),
(716,744,o),
(758,744,cs),
(819,744,l),
(819,770,l),
(755,770,ls),
(699,770,o),
(655,726,o),
(655,670,cs),
(655,594,l),
(683,594,l),
(683,671,l)
);
}
);
width = 879;
},
{
anchors = (
{
name = bottom;
pos = (300,0);
},
{
name = top;
pos = (300,700);
}
);
layerId = m002;
shapes = (
{
closed = 1;
nodes = (
(595,-16,o),
(744,131,o),
(748,341,c),
(658,341,l),
(658,187,o),
(516,66,o),
(386,66,cs),
(224,66,o),
(110,183,o),
(110,350,cs),
(110,517,o),
(224,634,o),
(386,634,cs),
(470,634,o),
(543,602,o),
(593,547,c),
(646,614,l),
(582,678,o),
(491,716,o),
(386,716,cs),
(171,716,o),
(20,565,o),
(20,350,cs),
(20,135,o),
(171,-16,o),
(386,-16,cs)
);
},
{
closed = 1;
nodes = (
(736,327,l),
(748,341,l),
(748,407,l),
(436,407,l),
(436,327,l)
);
},
{
closed = 1;
nodes = (
(681,680,o),
(694,693,o),
(711,693,cs),
(757,693,l),
(757,766,l),
(683,766,ls),
(633,766,o),
(593,726,o),
(593,676,cs),
(593,547,l),
(681,547,l),
(681,663,l)
);
}
);
width = 792;
},
{
anchors = (
{
name = bottom;
pos = (300,0);
},
{
name = top;
pos = (300,700);
}
);
layerId = m003;
shapes = (
{
closed = 1;
nodes = (
(598,-16,o),
(749,141,o),
(753,341,c),
(610,341,l),
(610,228,o),
(522,140,o),
(409,140,cs),
(287,140,o),
(191,232,o),
(191,350,cs),
(191,468,o),
(287,560,o),
(409,560,cs),
(478,560,o),
(540,528,o),
(575,485,c),
(670,603,l),
(609,669,o),
(517,716,o),
(409,716,cs),
(194,716,o),
(25,555,o),
(25,350,cs),
(25,145,o),
(194,-16,o),
(409,-16,cs)
);
},
{
closed = 1;
nodes = (
(728,304,l),
(753,341,l),
(753,420,l),
(393,420,l),
(393,304,l)
);
},
{
closed = 1;
nodes = (
(737,614,o),
(750,627,o),
(767,627,cs),
(813,627,l),
(813,770,l),
(695,770,ls),
(628,770,o),
(575,717,o),
(575,650,cs),
(575,485,l),
(737,485,l),
(737,597,l)
);
}
);
width = 858;
},
{
anchors = (
{
name = bottom;
pos = (257,0);
},
{
name = top;
pos = (380,700);
}
);
layerId = m004;
shapes = (
{
closed = 1;
nodes = (
(569,-16,o),
(756,149,o),
(793,361,c),
(764,363,l),
(729,165,o),
(554,8,o),
(368,8,cs),
(180,8,o),
(60,160,o),
(94,354,cs),
(127,543,o),
(303,692,o),
(491,692,cs),
(578,692,o),
(677,650,o),
(717,595,c),
(735,613,l),
(688,670,o),
(581,716,o),
(493,716,cs),
(288,716,o),
(100,558,o),
(64,356,cs),
(28,148,o),
(161,-16,o),
(366,-16,cs)
);
},
{
closed = 1;
nodes = (
(788,357,l),
(793,361,l),
(797,381,l),
(485,381,l),
(481,357,l)
);
},
{
closed = 1;
nodes = (
(765,711,o),
(805,744,o),
(847,744,cs),
(907,744,l),
(911,770,l),
(846,770,ls),
(790,770,o),
(740,727,o),
(730,671,cs),
(716,594,l),
(744,594,l),
(758,670,l)
);
}
);
width = 902;
},
{
anchors = (
{
name = bottom;
pos = (260,0);
},
{
name = top;
pos = (383,700);
}
);
layerId = m005;
shapes = (
{
closed = 1;
nodes = (
(555,-16,o),
(726,128,o),
(767,338,c),
(678,344,l),
(651,190,o),
(484,66,o),
(354,66,cs),
(192,66,o),
(101,180,o),
(131,347,cs),
(160,514,o),
(299,634,o),
(461,634,cs),
(545,634,o),
(611,604,o),
(652,549,c),
(711,612,l),
(659,676,o),
(574,716,o),
(469,716,cs),
(254,716,o),
(80,568,o),
(42,353,cs),
(4,138,o),
(131,-16,o),
(346,-16,cs)
);
},
{
closed = 1;
nodes = (
(753,327,l),
(768,341,l),
(779,407,l),
(467,407,l),
(453,327,l)
);
},
{
closed = 1;
nodes = (
(760,677,o),
(779,693,o),
(796,693,cs),
(839,693,l),
(852,766,l),
(775,766,ls),
(725,766,o),
(681,729,o),
(672,679,cs),
(649,547,l),
(737,547,l),
(757,660,l)
);
}
);
width = 818;
},
{
anchors = (
{
name = bottom;
pos = (257,0);
},
{
name = top;
pos = (380,700);
}
);
layerId = m006;
shapes = (
{
closed = 1;
nodes = (
(558,-16,o),
(730,136,o),
(769,336,c),
(628,346,l),
(608,233,o),
(498,140,o),
(385,140,cs),
(263,140,o),
(188,227,o),
(208,345,cs),
(229,463,o),
(348,560,o),
(470,560,cs),
(539,560,o),
(594,532,o),
(622,489,c),
(728,599,l),
(679,665,o),
(594,716,o),
(486,716,cs),
(271,716,o),
(81,560,o),
(44,355,cs),
(8,150,o),
(154,-16,o),
(369,-16,cs)
);
},
{
closed = 1;
nodes = (
(738,304,l),
(770,341,l),
(784,420,l),
(424,420,l),
(403,304,l)
);
},
{
closed = 1;
nodes = (
(801,609,o),
(823,627,o),
(840,627,cs),
(880,627,l),
(905,770,l),
(782,770,ls),
(715,770,o),
(659,722,o),
(647,655,cs),
(617,485,l),
(779,485,l),
(798,592,l)
);
}
);
width = 881;
}
);
metricLeft = G;
metricRight = G;
unicode = 403;
},
{
glyphname = H;
kernLeft = H;
kernRight = H;
lastChange = "2025-06-08 03:37:10 +0000";
layers = (
{
anchors = (
{
name = bottom;
pos = (355,0);
},
{
name = center;
pos = (355,525);
},
{
name = top;
pos = (355,700);
},
{
name = topleft;
pos = (20,700);
}
);
layerId = m01;
shapes = (
{
closed = 1;
nodes = (
(640,0,l),
(640,700,l),
(612,700,l),
(612,0,l)
);
},
{
closed = 1;
nodes = (
(98,0,l),
(98,700,l),
(70,700,l),
(70,0,l)
);
},
{
closed = 1;
nodes = (
(626,352,l),
(626,374,l),
(93,374,l),
(93,352,l)
);
}
);
width = 710;
},
{
anchors = (
{
name = bottom;
pos = (360,0);
},
{
name = center;
pos = (360,525);
},
{
name = top;
pos = (360,700);
},
{
name = topleft;
pos = (20,700);
}
);
layerId = m002;
shapes = (
{
closed = 1;
nodes = (
(675,0,l),
(675,700,l),
(587,700,l),
(587,0,l)
);
},
{
closed = 1;
nodes = (
(133,0,l),
(133,700,l),
(45,700,l),
(45,0,l)
);
},
{
closed = 1;
nodes = (
(631,324,l),
(631,402,l),
(98,402,l),
(98,324,l)
);
}
);
width = 720;
},
{
anchors = (
{
name = bottom;
pos = (376,0);
},
{
name = center;
pos = (376,525);
},
{
name = top;
pos = (376,700);
},
{
name = topleft;
pos = (30,700);
}
);
layerId = m003;
shapes = (
{
closed = 1;
nodes = (
(697,0,l),
(697,700,l),
(533,700,l),
(533,0,l)
);
},
{
closed = 1;
nodes = (
(219,0,l),
(219,700,l),
(55,700,l),
(55,0,l)
);
},
{
closed = 1;
nodes = (
(647,285,l),
(647,441,l),
(114,441,l),
(114,285,l)
);
}
);
width = 752;
},
{
anchors = (
{
name = bottom;
pos = (313,0);
},
{
name = center;
pos = (405,525);
},
{
name = top;
pos = (436,700);
},
{
name = topleft;
pos = (101,700);
}
);
layerId = m004;
shapes = (
{
closed = 1;
nodes = (
(598,0,l),
(721,700,l),
(693,700,l),
(570,0,l)
);
},
{
closed = 1;
nodes = (
(56,0,l),
(179,700,l),
(151,700,l),
(28,0,l)
);
},
{
closed = 1;
nodes = (
(646,352,l),
(650,374,l),
(117,374,l),
(113,352,l)
);
}
);
width = 710;
},
{
anchors = (
{
name = bottom;
pos = (318,0);
},
{
name = center;
pos = (410,525);
},
{
name = top;
pos = (441,700);
},
{
name = topleft;
pos = (101,700);
}
);
layerId = m005;
shapes = (
{
closed = 1;
nodes = (
(633,0,l),
(756,700,l),
(668,700,l),
(545,0,l)
);
},
{
closed = 1;
nodes = (
(91,0,l),
(214,700,l),
(126,700,l),
(3,0,l)
);
},
{
closed = 1;
nodes = (
(646,324,l),
(660,402,l),
(127,402,l),
(113,324,l)
);
}
);
width = 720;
},
{
anchors = (
{
name = bottom;
pos = (334,0);
},
{
name = center;
pos = (426,525);
},
{
name = top;
pos = (457,700);
},
{
name = topleft;
pos = (111,700);
}
);
layerId = m006;
shapes = (
{
closed = 1;
nodes = (
(655,0,l),
(778,700,l),
(614,700,l),
(491,0,l)
);
},
{
closed = 1;
nodes = (
(177,0,l),
(300,700,l),
(136,700,l),
(13,0,l)
);
},
{
closed = 1;
nodes = (
(655,285,l),
(682,441,l),
(149,441,l),
(122,285,l)
);
}
);
width = 752;
}
);
unicode = 72;
},
{
glyphname = Hhook;
lastChange = "2025-06-08 05:15:42 +0000";
layers = (
{
anchors = (
{
name = bottom;
pos = (470,0);
},
{
name = center;
pos = (470,525);
},
{
name = top;
pos = (470,700);
},
{
name = topleft;
pos = (135,700);
}
);
layerId = m01;
shapes = (
{
closed = 1;
nodes = (
(755,0,l),
(755,700,l),
(727,700,l),
(727,0,l)
);
},
{
closed = 1;
nodes = (
(213,0,l),
(213,700,l),
(185,700,l),
(185,0,l)
);
},
{
closed = 1;
nodes = (
(741,352,l),
(741,374,l),
(208,374,l),
(208,352,l)
);
},
{
closed = 1;
nodes = (
(78,642,o),
(111,674,o),
(153,674,cs),
(194,674,l),
(194,700,l),
(150,700,ls),
(94,700,o),
(50,656,o),
(50,600,cs),
(50,571,l),
(78,571,l),
(78,601,l)
);
}
);
width = 825;
},
{
anchors = (
{
name = bottom;
pos = (485,0);
},
{
name = center;
pos = (485,525);
},
{
name = top;
pos = (485,700);
},
{
name = topleft;
pos = (145,700);
}
);
layerId = m002;
shapes = (
{
closed = 1;
nodes = (
(800,0,l),
(800,700,l),
(712,700,l),
(712,0,l)
);
},
{
closed = 1;
nodes = (
(258,0,l),
(258,700,l),
(170,700,l),
(170,0,l)
);
},
{
closed = 1;
nodes = (
(756,324,l),
(756,402,l),
(223,402,l),
(223,324,l)
);
},
{
closed = 1;
nodes = (
(103,605,o),
(116,618,o),
(133,618,cs),
(174,618,l),
(174,700,l),
(115,700,ls),
(65,700,o),
(25,660,o),
(25,610,cs),
(25,541,l),
(103,541,l),
(103,588,l)
);
}
);
width = 845;
},
{
anchors = (
{
name = bottom;
pos = (541,0);
},
{
name = center;
pos = (541,525);
},
{
name = top;
pos = (541,700);
},
{
name = topleft;
pos = (195,700);
}
);
layerId = m003;
shapes = (
{
closed = 1;
nodes = (
(862,0,l),
(862,700,l),
(698,700,l),
(698,0,l)
);
},
{
closed = 1;
nodes = (
(384,0,l),
(384,700,l),
(220,700,l),
(220,0,l)
);
},
{
closed = 1;
nodes = (
(812,285,l),
(812,441,l),
(279,441,l),
(279,285,l)
);
},
{
closed = 1;
nodes = (
(167,545,o),
(180,558,o),
(197,558,cs),
(233,558,l),
(233,700,l),
(175,700,ls),
(97,700,o),
(35,638,o),
(35,560,cs),
(35,491,l),
(167,491,l),
(167,528,l)
);
}
);
width = 917;
},
{
anchors = (
{
name = bottom;
pos = (293,0);
},
{
name = center;
pos = (385,525);
},
{
name = top;
pos = (416,700);
},
{
name = topleft;
pos = (81,700);
}
);
layerId = m004;
shapes = (
{
closed = 1;
nodes = (
(578,0,l),
(701,700,l),
(673,700,l),
(550,0,l)
);
},
{
closed = 1;
nodes = (
(36,0,l),
(159,700,l),
(131,700,l),
(8,0,l)
);
},
{
closed = 1;
nodes = (
(626,352,l),
(630,374,l),
(97,374,l),
(93,352,l)
);
},
{
closed = 1;
nodes = (
(14,641,o),
(54,674,o),
(96,674,cs),
(136,674,l),
(140,700,l),
(95,700,ls),
(39,700,o),
(-12,657,o),
(-21,601,cs),
(-27,571,l),
(1,571,l),
(7,600,l)
);
}
);
width = 690;
},
{
anchors = (
{
name = bottom;
pos = (298,0);
},
{
name = center;
pos = (390,525);
},
{
name = top;
pos = (421,700);
},
{
name = topleft;
pos = (81,700);
}
);
layerId = m005;
shapes = (
{
closed = 1;
nodes = (
(613,0,l),
(736,700,l),
(648,700,l),
(525,0,l)
);
},
{
closed = 1;
nodes = (
(71,0,l),
(194,700,l),
(106,700,l),
(-17,0,l)
);
},
{
closed = 1;
nodes = (
(626,324,l),
(640,402,l),
(107,402,l),
(93,324,l)
);
},
{
closed = 1;
nodes = (
(22,602,o),
(41,618,o),
(58,618,cs),
(96,618,l),
(110,700,l),
(48,700,ls),
(-2,700,o),
(-45,663,o),
(-54,613,cs),
(-67,541,l),
(11,541,l),
(19,585,l)
);
}
);
width = 700;
},
{
anchors = (
{
name = bottom;
pos = (327,0);
},
{
name = center;
pos = (419,525);
},
{
name = top;
pos = (450,700);
},
{
name = topleft;
pos = (104,700);
}
);
layerId = m006;
shapes = (
{
closed = 1;
nodes = (
(648,0,l),
(771,700,l),
(607,700,l),
(484,0,l)
);
},
{
closed = 1;
nodes = (
(170,0,l),
(293,700,l),
(129,700,l),
(6,0,l)
);
},
{
closed = 1;
nodes = (
(648,285,l),
(675,441,l),
(142,441,l),
(115,285,l)
);
},
{
closed = 1;
nodes = (
(48,540,o),
(70,558,o),
(87,558,cs),
(117,558,l),
(142,700,l),
(78,700,ls),
(0,700,o),
(-66,643,o),
(-80,565,cs),
(-93,491,l),
(39,491,l),
(45,523,l)
);
}
);
width = 745;
}
);
metricLeft = "=H-20";
metricRight = H;
unicode = 42922;
},
{
glyphname = Hturned;
lastChange = "2025-06-08 03:37:10 +0000";
layers = (
{
layerId = m01;
shapes = (
{
closed = 1;
nodes = (
(640,0,l),
(640,700,l),
(612,700,l),
(612,0,l)
);
},
{
closed = 1;
nodes = (
(98,352,l),
(98,700,l),
(70,700,l),
(70,352,l)
);
},
{
closed = 1;
nodes = (
(626,352,l),
(626,374,l),
(93,374,l),
(93,352,l)
);
}
);
width = 710;
},
{
layerId = m002;
shapes = (
{
closed = 1;
nodes = (
(675,0,l),
(675,700,l),
(587,700,l),
(587,0,l)
);
},
{
closed = 1;
nodes = (
(133,324,l),
(133,700,l),
(45,700,l),
(45,324,l)
);
},
{
closed = 1;
nodes = (
(631,324,l),
(631,402,l),
(98,402,l),
(98,324,l)
);
}
);
width = 720;
},
{
layerId = m003;
shapes = (
{
closed = 1;
nodes = (
(687,0,l),
(687,700,l),
(523,700,l),
(523,0,l)
);
},
{
closed = 1;
nodes = (
(209,285,l),
(209,700,l),
(45,700,l),
(45,285,l)
);
},
{
closed = 1;
nodes = (
(637,285,l),
(637,441,l),
(104,441,l),
(104,285,l)
);
}
);
width = 732;
},
{
layerId = m004;
shapes = (
{
closed = 1;
nodes = (
(598,0,l),
(721,700,l),
(693,700,l),
(570,0,l)
);
},
{
closed = 1;
nodes = (
(118,352,l),
(179,700,l),
(151,700,l),
(90,352,l)
);
},
{
closed = 1;
nodes = (
(646,352,l),
(650,374,l),
(117,374,l),
(113,352,l)
);
}
);
width = 710;
},
{
layerId = m005;
shapes = (
{
closed = 1;
nodes = (
(633,0,l),
(756,700,l),
(668,700,l),
(545,0,l)
);
},
{
closed = 1;
nodes = (
(148,324,l),
(214,700,l),
(126,700,l),
(60,324,l)
);
},
{
closed = 1;
nodes = (
(646,324,l),
(660,402,l),
(127,402,l),
(113,324,l)
);
}
);
width = 720;
},
{
layerId = m006;
shapes = (
{
closed = 1;
nodes = (
(645,0,l),
(768,700,l),
(604,700,l),
(481,0,l)
);
},
{
closed = 1;
nodes = (
(217,285,l),
(290,700,l),
(126,700,l),
(53,285,l)
);
},
{
closed = 1;
nodes = (
(645,285,l),
(672,441,l),
(139,441,l),
(112,285,l)
);
}
);
width = 732;
}
);
unicode = 42893;
},
{
glyphname = I;
kernLeft = H;
kernRight = H;
lastChange = "2025-06-08 03:37:10 +0000";
layers = (
{
anchors = (
{
name = bottom;
pos = (84,80);
},
{
name = ogonek;
pos = (185,10);
},
{
name = top;
pos = (84,700);
},
{
name = topleft;
pos = (20,700);
}
);
layerId = m01;
shapes = (
{
closed = 1;
nodes = (
(98,0,l),
(98,700,l),
(70,700,l),
(70,0,l)
);
}
);
width = 168;
},
{
anchors = (
{
name = bottom;
pos = (89,80);
},
{
name = ogonek;
pos = (160,10);
},
{
name = top;
pos = (89,700);
},
{
name = topleft;
pos = (20,700);
}
);
layerId = m002;
shapes = (
{
closed = 1;
nodes = (
(133,0,l),
(133,700,l),
(45,700,l),
(45,0,l)
);
}
);
width = 178;
},
{
anchors = (
{
name = bottom;
pos = (137,0);
},
{
name = ogonek;
pos = (239,10);
},
{
name = top;
pos = (137,700);
},
{
name = topleft;
pos = (30,700);
}
);
layerId = m003;
shapes = (
{
closed = 1;
nodes = (
(219,0,l),
(219,700,l),
(55,700,l),
(55,0,l)
);
}
);
width = 274;
},
{
anchors = (
{
name = bottom;
pos = (56,80);
},
{
name = ogonek;
pos = (144,10);
},
{
name = top;
pos = (165,700);
},
{
name = topleft;
pos = (101,700);
}
);
layerId = m004;
shapes = (
{
closed = 1;
nodes = (
(56,0,l),
(179,700,l),
(151,700,l),
(28,0,l)
);
}
);
width = 168;
},
{
anchors = (
{
name = bottom;
pos = (61,80);
},
{
name = ogonek;
pos = (119,10);
},
{
name = top;
pos = (170,700);
},
{
name = topleft;
pos = (101,700);
}
);
layerId = m005;
shapes = (
{
closed = 1;
nodes = (
(91,0,l),
(214,700,l),
(126,700,l),
(3,0,l)
);
}
);
width = 178;
},
{
anchors = (
{
name = bottom;
pos = (95,0);
},
{
name = ogonek;
pos = (198,10);
},
{
name = top;
pos = (218,700);
},
{
name = topleft;
pos = (111,700);
}
);
layerId = m006;
shapes = (
{
closed = 1;
nodes = (
(177,0,l),
(300,700,l),
(136,700,l),
(13,0,l)
);
}
);
width = 274;
}
);
metricLeft = H;
metricRight = H;
unicode = 73;
},
{
glyphname = "Iota-latin";
lastChange = "2025-06-08 05:15:42 +0000";
layers = (
{
anchors = (
{
name = bottom;
pos = (-300,0);
},
{
name = ogonek;
pos = (185,10);
},
{
name = top;
pos = (-300,700);
},
{
name = topleft;
pos = (20,700);
}
);
layerId = m01;
shapes = (
{
closed = 1;
nodes = (
(130,12,o),
(98,45,o),
(98,87,cs),
(98,148,l),
(70,148,l),
(70,84,ls),
(70,27,o),
(113,-16,o),
(170,-16,cs),
(231,-16,l),
(231,12,l),
(171,12,l)
);
},
{
closed = 1;
nodes = (
(98,148,l),
(98,700,l),
(70,700,l),
(70,148,l)
);
}
);
width = 301;
},
{
anchors = (
{
name = bottom;
pos = (26,0);
},
{
name = ogonek;
pos = (160,10);
},
{
name = top;
pos = (26,700);
},
{
name = topleft;
pos = (20,700);
}
);
layerId = m002;
shapes = (
{
closed = 1;
nodes = (
(146,72,o),
(133,85,o),
(133,102,cs),
(133,148,l),
(45,148,l),
(45,74,ls),
(45,23,o),
(84,-16,o),
(135,-16,cs),
(219,-16,l),
(219,72,l),
(163,72,l)
);
},
{
closed = 1;
nodes = (
(133,148,l),
(133,700,l),
(45,700,l),
(45,148,l)
);
}
);
width = 264;
},
{
anchors = (
{
name = bottom;
pos = (-300,0);
},
{
name = ogonek;
pos = (239,10);
},
{
name = top;
pos = (-300,700);
},
{
name = topleft;
pos = (30,700);
}
);
layerId = m003;
shapes = (
{
closed = 1;
nodes = (
(232,146,o),
(219,159,o),
(219,176,cs),
(219,222,l),
(55,222,l),
(55,104,ls),
(55,36,o),
(108,-16,o),
(175,-16,cs),
(285,-16,l),
(285,146,l),
(249,146,l)
);
},
{
closed = 1;
nodes = (
(219,222,l),
(219,700,l),
(55,700,l),
(55,222,l)
);
}
);
width = 340;
},
{
anchors = (
{
name = bottom;
pos = (-365,0);
},
{
name = ogonek;
pos = (121,10);
},
{
name = top;
pos = (-242,700);
},
{
name = topleft;
pos = (78,700);
}
);
layerId = m004;
shapes = (
{
closed = 1;
nodes = (
(66,12,o),
(40,44,o),
(48,86,cs),
(59,148,l),
(31,148,l),
(20,85,ls),
(10,28,o),
(46,-16,o),
(103,-16,cs),
(163,-16,l),
(168,12,l),
(107,12,l)
);
},
{
closed = 1;
nodes = (
(59,148,l),
(156,700,l),
(128,700,l),
(31,148,l)
);
}
);
width = 145;
},
{
anchors = (
{
name = bottom;
pos = (-37,0);
},
{
name = ogonek;
pos = (98,10);
},
{
name = top;
pos = (86,700);
},
{
name = topleft;
pos = (80,700);
}
);
layerId = m005;
shapes = (
{
closed = 1;
nodes = (
(92,72,o),
(84,82,o),
(87,99,cs),
(96,148,l),
(8,148,l),
(-5,77,ls),
(-14,26,o),
(21,-16,o),
(72,-16,cs),
(153,-16,l),
(168,72,l),
(109,72,l)
);
},
{
closed = 1;
nodes = (
(96,148,l),
(193,700,l),
(105,700,l),
(8,148,l)
);
}
);
width = 157;
},
{
anchors = (
{
name = bottom;
pos = (-373,0);
},
{
name = ogonek;
pos = (167,10);
},
{
name = top;
pos = (-250,700);
},
{
name = topleft;
pos = (80,700);
}
);
layerId = m006;
shapes = (
{
closed = 1;
nodes = (
(179,146,o),
(173,154,o),
(176,171,cs),
(185,222,l),
(21,222,l),
(1,109,ls),
(-11,41,o),
(38,-16,o),
(105,-16,cs),
(209,-16,l),
(237,146,l),
(196,146,l)
);
},
{
closed = 1;
nodes = (
(185,222,l),
(269,700,l),
(105,700,l),
(21,222,l)
);
}
);
width = 243;
}
);
metricLeft = I;
metricRight = I;
unicode = 406;
},
{
glyphname = J;
kernLeft = J;
kernRight = U;
lastChange = "2025-06-08 05:15:42 +0000";
layers = (
{
anchors = (
{
name = bottom;
pos = (293,0);
},
{
name = top;
pos = (500,700);
}
);
layerId = m01;
shapes = (
{
closed = 1;
nodes = (
(403,-16,o),
(515,105,o),
(515,259,cs),
(515,700,l),
(487,700,l),
(487,259,l),
(487,118,o),
(387,8,o),
(260,8,cs),
(117,8,o),
(18,145,o),
(34,319,c),
(99,219,l),
(-31,219,l),
(6,317,l),
(-9,131,o),
(103,-16,o),
(260,-16,cs)
);
}
);
width = 585;
},
{
anchors = (
{
name = bottom;
pos = (282,0);
},
{
name = top;
pos = (472,700);
}
);
layerId = m002;
shapes = (
{
closed = 1;
nodes = (
(419,-16,o),
(518,95,o),
(518,289,cs),
(518,700,l),
(430,700,l),
(430,289,l),
(430,151,o),
(370,64,o),
(263,64,cs),
(147,64,o),
(82,156,o),
(97,319,c),
(132,219,l),
(-28,219,l),
(9,317,l),
(-7,113,o),
(85,-16,o),
(263,-16,cs)
);
}
);
width = 563;
},
{
anchors = (
{
name = bottom;
pos = (317,0);
},
{
name = top;
pos = (503,700);
}
);
layerId = m003;
shapes = (
{
closed = 1;
nodes = (
(460,-16,o),
(589,118,o),
(589,289,cs),
(589,700,l),
(425,700,l),
(425,289,l),
(425,207,o),
(368,142,o),
(296,142,cs),
(215,142,o),
(159,220,o),
(168,319,c),
(203,219,l),
(-33,219,l),
(4,317,l),
(-11,131,o),
(118,-16,o),
(296,-16,cs)
);
}
);
width = 644;
},
{
anchors = (
{
name = bottom;
pos = (179,0);
},
{
name = top;
pos = (509,700);
}
);
layerId = m004;
shapes = (
{
closed = 1;
nodes = (
(287,-16,o),
(419,104,o),
(446,258,cs),
(524,700,l),
(496,700,l),
(418,260,l),
(394,119,o),
(273,8,o),
(146,8,cs),
(3,8,o),
(-71,144,o),
(-24,318,c),
(23,219,l),
(-107,219,l),
(-52,318,l),
(-100,132,o),
(-13,-16,o),
(144,-16,cs)
);
}
);
width = 513;
},
{
anchors = (
{
name = bottom;
pos = (172,0);
},
{
name = top;
pos = (485,700);
}
);
layerId = m005;
shapes = (
{
closed = 1;
nodes = (
(309,-16,o),
(424,92,o),
(458,286,cs),
(531,700,l),
(443,700,l),
(371,292,l),
(347,154,o),
(268,64,o),
(161,64,cs),
(45,64,o),
(-1,153,o),
(43,316,c),
(60,219,l),
(-100,219,l),
(-45,320,l),
(-97,116,o),
(-25,-16,o),
(153,-16,cs)
);
}
);
width = 495;
},
{
anchors = (
{
name = bottom;
pos = (200,0);
},
{
name = top;
pos = (509,700);
}
);
layerId = m006;
shapes = (
{
closed = 1;
nodes = (
(346,-16,o),
(492,113,o),
(522,284,cs),
(595,700,l),
(431,700,l),
(360,294,l),
(345,212,o),
(270,142,o),
(198,142,cs),
(117,142,o),
(80,215,o),
(106,314,c),
(124,219,l),
(-112,219,l),
(-57,322,l),
(-105,136,o),
(4,-16,o),
(182,-16,cs)
);
}
);
width = 569;
}
);
metricLeft = A;
metricRight = H;
unicode = 74;
},
{
glyphname = K;
kernLeft = H;
kernRight = K;
lastChange = "2025-06-08 05:15:42 +0000";
layers = (
{
anchors = (
{
name = bottom;
pos = (254,0);
},
{
name = top;
pos = (121,720);
}
);
layerId = m01;
shapes = (
{
closed = 1;
nodes = (
(497,0,l),
(130,375,l),
(101,367,l),
(461,0,l)
);
},
{
closed = 1;
nodes = (
(98,0,l),
(98,700,l),
(70,700,l),
(70,0,l)
);
},
{
closed = 1;
nodes = (
(117,349,l),
(475,700,l),
(441,700,l),
(78,349,l)
);
}
);
width = 507;
},
{
anchors = (
{
name = bottom;
pos = (295,0);
},
{
name = top;
pos = (93,700);
}
);
layerId = m002;
shapes = (
{
closed = 1;
nodes = (
(579,0,l),
(248,380,l),
(138,380,l),
(469,0,l)
);
},
{
closed = 1;
nodes = (
(133,0,l),
(133,700,l),
(45,700,l),
(45,0,l)
);
},
{
closed = 1;
nodes = (
(219,349,l),
(547,700,l),
(439,700,l),
(106,349,l)
);
}
);
width = 589;
},
{
anchors = (
{
name = bottom;
pos = (359,0);
},
{
name = top;
pos = (162,700);
}
);
layerId = m003;
shapes = (
{
closed = 1;
nodes = (
(697,0,l),
(401,380,l),
(201,380,l),
(497,0,l)
);
},
{
closed = 1;
nodes = (
(219,0,l),
(219,700,l),
(55,700,l),
(55,0,l)
);
},
{
closed = 1;
nodes = (
(377,349,l),
(675,700,l),
(477,700,l),
(174,349,l)
);
}
);
width = 707;
},
{
anchors = (
{
name = bottom;
pos = (212,0);
},
{
name = top;
pos = (206,720);
}
);
layerId = m004;
shapes = (
{
closed = 1;
nodes = (
(455,0,l),
(154,375,l),
(123,367,l),
(419,0,l)
);
},
{
closed = 1;
nodes = (
(56,0,l),
(179,700,l),
(151,700,l),
(28,0,l)
);
},
{
closed = 1;
nodes = (
(136,349,l),
(556,700,l),
(522,700,l),
(97,349,l)
);
}
);
width = 731;
},
{
anchors = (
{
name = bottom;
pos = (253,0);
},
{
name = top;
pos = (174,700);
}
);
layerId = m005;
shapes = (
{
closed = 1;
nodes = (
(537,0,l),
(273,380,l),
(163,380,l),
(427,0,l)
);
},
{
closed = 1;
nodes = (
(91,0,l),
(214,700,l),
(126,700,l),
(3,0,l)
);
},
{
closed = 1;
nodes = (
(238,349,l),
(628,700,l),
(520,700,l),
(125,349,l)
);
}
);
width = 803;
},
{
anchors = (
{
name = bottom;
pos = (317,0);
},
{
name = top;
pos = (243,700);
}
);
layerId = m006;
shapes = (
{
closed = 1;
nodes = (
(655,0,l),
(426,380,l),
(226,380,l),
(455,0,l)
);
},
{
closed = 1;
nodes = (
(177,0,l),
(300,700,l),
(136,700,l),
(13,0,l)
);
},
{
closed = 1;
nodes = (
(396,349,l),
(756,700,l),
(558,700,l),
(193,349,l)
);
}
);
width = 931;
}
);
metricLeft = H;
metricRight = A;
unicode = 75;
},
{
glyphname = Khook;
kernLeft = Khook;
kernRight = Khook;
lastChange = "2025-06-08 05:15:42 +0000";
layers = (
{
anchors = (
{
name = bottom;
pos = (247,0);
},
{
name = top;
pos = (247,700);
}
);
layerId = m01;
shapes = (
{
closed = 1;
nodes = (
(483,0,l),
(135,369,l),
(359,624,ls),
(386,654,o),
(417,674,o),
(457,674,cs),
(472,674,l),
(472,700,l),
(447,700,ls),
(412,700,o),
(378,685,o),
(342,645,cs),
(78,349,l),
(116,349,l),
(447,0,l)
);
},
{
closed = 1;
nodes = (
(98,0,l),
(98,700,l),
(70,700,l),
(70,0,l)
);
}
);
width = 493;
},
{
anchors = (
{
name = bottom;
pos = (300,0);
},
{
name = top;
pos = (300,700);
}
);
layerId = m002;
shapes = (
{
closed = 1;
nodes = (
(589,0,l),
(252,386,l),
(436,589,ls),
(458,614,o),
(483,624,o),
(516,624,cs),
(555,624,l),
(555,700,l),
(477,700,ls),
(444,700,o),
(420,690,o),
(397,665,cs),
(106,349,l),
(181,349,l),
(477,0,l)
);
},
{
closed = 1;
nodes = (
(133,0,l),
(133,700,l),
(45,700,l),
(45,0,l)
);
}
);
width = 599;
},
{
anchors = (
{
name = bottom;
pos = (345,0);
},
{
name = top;
pos = (345,700);
}
);
layerId = m003;
shapes = (
{
closed = 1;
nodes = (
(679,0,l),
(344,383,l),
(418,474,ls),
(461,527,o),
(506,544,o),
(582,544,cs),
(631,544,l),
(631,700,l),
(557,700,ls),
(460,700,o),
(404,685,o),
(329,601,cs),
(106,349,l),
(171,349,l),
(467,0,l)
);
},
{
closed = 1;
nodes = (
(161,0,l),
(161,700,l),
(-3,700,l),
(-3,0,l)
);
}
);
width = 689;
},
{
anchors = (
{
name = bottom;
pos = (205,0);
},
{
name = top;
pos = (328,700);
}
);
layerId = m004;
shapes = (
{
closed = 1;
nodes = (
(441,0,l),
(158,369,l),
(427,623,ls),
(460,653,o),
(495,674,o),
(535,674,cs),
(549,674,l),
(553,700,l),
(527,700,ls),
(492,700,o),
(456,686,o),
(413,646,cs),
(97,349,l),
(135,349,l),
(405,0,l)
);
},
{
closed = 1;
nodes = (
(56,0,l),
(179,700,l),
(151,700,l),
(28,0,l)
);
}
);
width = 728;
},
{
anchors = (
{
name = bottom;
pos = (258,0);
},
{
name = top;
pos = (381,700);
}
);
layerId = m005;
shapes = (
{
closed = 1;
nodes = (
(547,0,l),
(278,386,l),
(499,587,ls),
(526,612,o),
(554,624,o),
(587,624,cs),
(623,624,l),
(636,700,l),
(555,700,ls),
(522,700,o),
(498,692,o),
(470,667,cs),
(125,349,l),
(200,349,l),
(435,0,l)
);
},
{
closed = 1;
nodes = (
(91,0,l),
(214,700,l),
(126,700,l),
(3,0,l)
);
}
);
width = 811;
},
{
anchors = (
{
name = bottom;
pos = (303,0);
},
{
name = top;
pos = (426,700);
}
);
layerId = m006;
shapes = (
{
closed = 1;
nodes = (
(637,0,l),
(369,383,l),
(462,470,ls),
(514,523,o),
(565,544,o),
(641,544,cs),
(685,544,l),
(712,700,l),
(632,700,ls),
(535,700,o),
(479,689,o),
(390,605,cs),
(125,349,l),
(190,349,l),
(425,0,l)
);
},
{
closed = 1;
nodes = (
(119,0,l),
(242,700,l),
(78,700,l),
(-45,0,l)
);
}
);
width = 887;
}
);
metricRight = K;
unicode = 408;
},
{
glyphname = L;
kernLeft = H;
kernRight = L;
lastChange = "2025-06-08 05:15:42 +0000";
layers = (
{
anchors = (
{
name = bottom;
pos = (249,0);
},
{
name = center;
pos = (249,350);
},
{
name = top;
pos = (249,700);
},
{
name = topright;
pos = (477,700);
}
);
layerId = m01;
shapes = (
{
closed = 1;
nodes = (
(98,0,l),
(98,700,l),
(70,700,l),
(70,0,l)
);
},
{
closed = 1;
nodes = (
(492,0,l),
(492,24,l),
(87,24,l),
(87,0,l)
);
}
);
width = 497;
},
{
anchors = (
{
name = bottom;
pos = (256,0);
},
{
name = center;
pos = (256,350);
},
{
name = top;
pos = (256,700);
},
{
name = topright;
pos = (492,700);
}
);
layerId = m002;
shapes = (
{
closed = 1;
nodes = (
(133,0,l),
(133,700,l),
(45,700,l),
(45,0,l)
);
},
{
closed = 1;
nodes = (
(507,0,l),
(507,80,l),
(102,80,l),
(102,0,l)
);
}
);
width = 512;
},
{
anchors = (
{
name = bottom;
pos = (270,0);
},
{
name = center;
pos = (270,350);
},
{
name = top;
pos = (270,700);
},
{
name = topright;
pos = (510,700);
}
);
layerId = m003;
shapes = (
{
closed = 1;
nodes = (
(219,0,l),
(219,700,l),
(55,700,l),
(55,0,l)
);
},
{
closed = 1;
nodes = (
(525,0,l),
(525,156,l),
(120,156,l),
(120,0,l)
);
}
);
width = 530;
},
{
anchors = (
{
name = bottom;
pos = (207,0);
},
{
name = center;
pos = (268,350);
},
{
name = top;
pos = (330,700);
},
{
name = topright;
pos = (558,700);
}
);
layerId = m004;
shapes = (
{
closed = 1;
nodes = (
(56,0,l),
(179,700,l),
(151,700,l),
(28,0,l)
);
},
{
closed = 1;
nodes = (
(450,0,l),
(454,24,l),
(49,24,l),
(45,0,l)
);
}
);
width = 505;
},
{
anchors = (
{
name = bottom;
pos = (214,0);
},
{
name = center;
pos = (275,350);
},
{
name = top;
pos = (337,700);
},
{
name = topright;
pos = (573,700);
}
);
layerId = m005;
shapes = (
{
closed = 1;
nodes = (
(91,0,l),
(214,700,l),
(126,700,l),
(3,0,l)
);
},
{
closed = 1;
nodes = (
(465,0,l),
(479,80,l),
(74,80,l),
(60,0,l)
);
}
);
width = 540;
},
{
anchors = (
{
name = bottom;
pos = (228,0);
},
{
name = center;
pos = (289,350);
},
{
name = top;
pos = (351,700);
},
{
name = topright;
pos = (591,700);
}
);
layerId = m006;
shapes = (
{
closed = 1;
nodes = (
(177,0,l),
(300,700,l),
(136,700,l),
(13,0,l)
);
},
{
closed = 1;
nodes = (
(483,0,l),
(510,156,l),
(105,156,l),
(78,0,l)
);
}
);
width = 584;
}
);
metricLeft = H;
metricRight = "=A-5";
unicode = 76;
},
{
glyphname = Lslash;
lastChange = "2025-06-08 05:15:42 +0000";
layers = (
{
layerId = m01;
shapes = (
{
closed = 1;
nodes = (
(288,417,l),
(288,440,l),
(10,357,l),
(10,334,l)
);
},
{
pos = (35,0);
ref = L;
}
);
width = 532;
},
{
layerId = m002;
shapes = (
{
closed = 1;
nodes = (
(318,392,l),
(318,470,l),
(10,377,l),
(10,299,l)
);
},
{
pos = (55,0);
ref = L;
}
);
width = 567;
},
{
layerId = m003;
shapes = (
{
closed = 1;
nodes = (
(346,374,l),
(346,490,l),
(10,390,l),
(10,274,l)
);
},
{
pos = (31,0);
ref = L;
}
);
width = 561;
},
{
layerId = m004;
shapes = (
{
closed = 1;
nodes = (
(319,417,l),
(323,440,l),
(31,357,l),
(27,334,l)
);
},
{
pos = (-7,0);
ref = L;
}
);
width = 498;
},
{
layerId = m005;
shapes = (
{
closed = 1;
nodes = (
(345,392,l),
(359,470,l),
(34,377,l),
(20,299,l)
);
},
{
pos = (13,0);
ref = L;
}
);
width = 553;
},
{
layerId = m006;
shapes = (
{
closed = 1;
nodes = (
(370,374,l),
(390,490,l),
(36,390,l),
(16,274,l)
);
},
{
pos = (-11,0);
ref = L;
}
);
width = 573;
}
);
metricRight = L;
unicode = 321;
},
{
glyphname = M;
kernLeft = H;
kernRight = H;
lastChange = "2025-06-08 06:04:14 +0000";
layers = (
{
anchors = (
{
name = bottom;
pos = (356,0);
},
{
name = top;
pos = (356,700);
}
);
layerId = m01;
shapes = (
{
closed = 1;
nodes = (
(641,0,l),
(641,700,l),
(613,700,l),
(613,0,l)
);
},
{
closed = 1;
nodes = (
(93,0,l),
(93,700,l),
(65,700,l),
(65,0,l)
);
},
{
pos = (58,0);
ref = V;
}
);
width = 711;
},
{
anchors = (
{
name = bottom;
pos = (386,0);
},
{
name = top;
pos = (386,700);
}
);
layerId = m002;
shapes = (
{
closed = 1;
nodes = (
(726,0,l),
(726,700,l),
(638,700,l),
(638,0,l)
);
},
{
closed = 1;
nodes = (
(128,0,l),
(128,700,l),
(40,700,l),
(40,0,l)
);
},
{
pos = (55,0);
ref = V;
}
);
width = 771;
},
{
anchors = (
{
name = bottom;
pos = (442,0);
},
{
name = top;
pos = (442,700);
}
);
layerId = m003;
shapes = (
{
closed = 1;
nodes = (
(828,0,l),
(828,700,l),
(664,700,l),
(664,0,l)
);
},
{
closed = 1;
nodes = (
(214,0,l),
(214,700,l),
(50,700,l),
(50,0,l)
);
},
{
pos = (81,0);
ref = V;
}
);
width = 883;
},
{
anchors = (
{
name = bottom;
pos = (353,0);
},
{
name = top;
pos = (476,700);
}
);
layerId = m004;
shapes = (
{
closed = 1;
nodes = (
(638,0,l),
(761,700,l),
(733,700,l),
(610,0,l)
);
},
{
closed = 1;
nodes = (
(90,0,l),
(213,700,l),
(185,700,l),
(62,0,l)
);
},
{
pos = (55,0);
ref = V;
}
);
width = 750;
},
{
anchors = (
{
name = bottom;
pos = (361,0);
},
{
name = top;
pos = (484,700);
}
);
layerId = m005;
shapes = (
{
closed = 1;
nodes = (
(701,0,l),
(824,700,l),
(736,700,l),
(613,0,l)
);
},
{
closed = 1;
nodes = (
(103,0,l),
(226,700,l),
(138,700,l),
(15,0,l)
);
},
{
pos = (30,0);
ref = V;
}
);
width = 788;
},
{
anchors = (
{
name = bottom;
pos = (401,0);
},
{
name = top;
pos = (524,700);
}
);
layerId = m006;
shapes = (
{
closed = 1;
nodes = (
(787,0,l),
(910,700,l),
(746,700,l),
(623,0,l)
);
},
{
closed = 1;
nodes = (
(173,0,l),
(296,700,l),
(132,700,l),
(9,0,l)
);
},
{
pos = (40,0);
ref = V;
}
);
width = 884;
}
);
metricLeft = "=H-5";
metricRight = H;
unicode = 77;
},
{
glyphname = N;
kernLeft = H;
kernRight = H;
lastChange = "2025-06-08 03:37:10 +0000";
layers = (
{
anchors = (
{
name = bottom;
pos = (327,0);
},
{
name = top;
pos = (327,700);
}
);
layerId = m01;
shapes = (
{
closed = 1;
nodes = (
(584,0,l),
(101,700,l),
(70,700,l),
(551,0,l)
);
},
{
closed = 1;
nodes = (
(93,0,l),
(93,700,l),
(65,700,l),
(65,0,l)
);
},
{
closed = 1;
nodes = (
(589,0,l),
(589,700,l),
(561,700,l),
(561,0,l)
);
}
);
width = 654;
},
{
anchors = (
{
name = bottom;
pos = (345,0);
},
{
name = top;
pos = (345,700);
}
);
layerId = m002;
shapes = (
{
closed = 1;
nodes = (
(649,0,l),
(144,700,l),
(40,700,l),
(545,0,l)
);
},
{
closed = 1;
nodes = (
(128,0,l),
(128,700,l),
(40,700,l),
(40,0,l)
);
},
{
closed = 1;
nodes = (
(649,0,l),
(649,700,l),
(561,700,l),
(561,0,l)
);
}
);
width = 689;
},
{
anchors = (
{
name = bottom;
pos = (373,0);
},
{
name = top;
pos = (373,700);
}
);
layerId = m003;
shapes = (
{
closed = 1;
nodes = (
(661,0,l),
(246,700,l),
(84,700,l),
(499,0,l)
);
},
{
closed = 1;
nodes = (
(214,0,l),
(214,700,l),
(50,700,l),
(50,0,l)
);
},
{
closed = 1;
nodes = (
(695,0,l),
(695,700,l),
(531,700,l),
(531,0,l)
);
}
);
width = 745;
},
{
anchors = (
{
name = bottom;
pos = (285,0);
},
{
name = top;
pos = (408,700);
}
);
layerId = m004;
shapes = (
{
closed = 1;
nodes = (
(542,0,l),
(182,700,l),
(151,700,l),
(509,0,l)
);
},
{
closed = 1;
nodes = (
(51,0,l),
(174,700,l),
(146,700,l),
(23,0,l)
);
},
{
closed = 1;
nodes = (
(547,0,l),
(670,700,l),
(642,700,l),
(519,0,l)
);
}
);
width = 654;
},
{
anchors = (
{
name = bottom;
pos = (303,0);
},
{
name = top;
pos = (426,700);
}
);
layerId = m005;
shapes = (
{
closed = 1;
nodes = (
(607,0,l),
(225,700,l),
(121,700,l),
(503,0,l)
);
},
{
closed = 1;
nodes = (
(86,0,l),
(209,700,l),
(121,700,l),
(-2,0,l)
);
},
{
closed = 1;
nodes = (
(607,0,l),
(730,700,l),
(642,700,l),
(519,0,l)
);
}
);
width = 689;
},
{
anchors = (
{
name = bottom;
pos = (331,0);
},
{
name = top;
pos = (454,700);
}
);
layerId = m006;
shapes = (
{
closed = 1;
nodes = (
(619,0,l),
(327,700,l),
(165,700,l),
(457,0,l)
);
},
{
closed = 1;
nodes = (
(172,0,l),
(295,700,l),
(131,700,l),
(8,0,l)
);
},
{
closed = 1;
nodes = (
(653,0,l),
(776,700,l),
(612,700,l),
(489,0,l)
);
}
);
width = 745;
}
);
metricLeft = "=H-5";
metricRight = "=H-5";
unicode = 78;
},
{
glyphname = Nhookleft;
lastChange = "2025-06-08 05:15:42 +0000";
layers = (
{
anchors = (
{
name = bottom;
pos = (416,0);
},
{
name = top;
pos = (416,700);
}
);
layerId = m01;
shapes = (
{
closed = 1;
nodes = (
(700,0,l),
(217,700,l),
(186,700,l),
(667,0,l)
);
},
{
closed = 1;
nodes = (
(209,0,l),
(209,700,l),
(181,700,l),
(181,0,l)
);
},
{
closed = 1;
nodes = (
(705,0,l),
(705,700,l),
(677,700,l),
(677,0,l)
);
},
{
closed = 1;
nodes = (
(181,-96,o),
(148,-128,o),
(106,-128,cs),
(45,-128,l),
(45,-154,l),
(109,-154,ls),
(165,-154,o),
(209,-110,o),
(209,-54,cs),
(209,0,l),
(181,0,l),
(181,-55,l)
);
}
);
width = 770;
},
{
anchors = (
{
name = bottom;
pos = (356,0);
},
{
name = top;
pos = (356,700);
}
);
layerId = m002;
shapes = (
{
closed = 1;
nodes = (
(705,0,l),
(200,700,l),
(96,700,l),
(601,0,l)
);
},
{
closed = 1;
nodes = (
(184,0,l),
(184,700,l),
(96,700,l),
(96,0,l)
);
},
{
closed = 1;
nodes = (
(705,0,l),
(705,700,l),
(617,700,l),
(617,0,l)
);
},
{
closed = 1;
nodes = (
(96,-93,o),
(83,-106,o),
(66,-106,cs),
(20,-106,l),
(20,-184,l),
(94,-184,ls),
(144,-184,o),
(184,-144,o),
(184,-94,cs),
(184,0,l),
(96,0,l),
(96,-76,l)
);
}
);
width = 745;
},
{
anchors = (
{
name = bottom;
pos = (354,0);
},
{
name = top;
pos = (354,700);
}
);
layerId = m003;
shapes = (
{
closed = 1;
nodes = (
(715,0,l),
(300,700,l),
(138,700,l),
(553,0,l)
);
},
{
closed = 1;
nodes = (
(268,0,l),
(268,700,l),
(104,700,l),
(104,0,l)
);
},
{
closed = 1;
nodes = (
(749,0,l),
(749,700,l),
(585,700,l),
(585,0,l)
);
},
{
closed = 1;
nodes = (
(104,-63,o),
(91,-76,o),
(74,-76,cs),
(30,-76,l),
(30,-219,l),
(128,-219,ls),
(206,-219,o),
(268,-157,o),
(268,-79,cs),
(268,0,l),
(104,0,l),
(104,-46,l)
);
}
);
width = 799;
},
{
anchors = (
{
name = bottom;
pos = (428,0);
},
{
name = top;
pos = (551,700);
}
);
layerId = m004;
shapes = (
{
closed = 1;
nodes = (
(712,0,l),
(352,700,l),
(321,700,l),
(679,0,l)
);
},
{
closed = 1;
nodes = (
(221,0,l),
(344,700,l),
(316,700,l),
(193,0,l)
);
},
{
closed = 1;
nodes = (
(717,0,l),
(840,700,l),
(812,700,l),
(689,0,l)
);
},
{
closed = 1;
nodes = (
(176,-95,o),
(136,-128,o),
(94,-128,cs),
(34,-128,l),
(30,-154,l),
(95,-154,ls),
(151,-154,o),
(201,-111,o),
(211,-55,cs),
(221,0,l),
(193,0,l),
(183,-54,l)
);
}
);
width = 824;
},
{
anchors = (
{
name = bottom;
pos = (380,0);
},
{
name = top;
pos = (503,700);
}
);
layerId = m005;
shapes = (
{
closed = 1;
nodes = (
(729,0,l),
(347,700,l),
(243,700,l),
(625,0,l)
);
},
{
closed = 1;
nodes = (
(208,0,l),
(331,700,l),
(243,700,l),
(120,0,l)
);
},
{
closed = 1;
nodes = (
(729,0,l),
(852,700,l),
(764,700,l),
(641,0,l)
);
},
{
closed = 1;
nodes = (
(104,-90,o),
(85,-106,o),
(68,-106,cs),
(25,-106,l),
(11,-184,l),
(88,-184,ls),
(138,-184,o),
(182,-147,o),
(191,-97,cs),
(208,0,l),
(120,0,l),
(107,-73,l)
);
}
);
width = 811;
},
{
anchors = (
{
name = bottom;
pos = (390,0);
},
{
name = top;
pos = (513,700);
}
);
layerId = m006;
shapes = (
{
closed = 1;
nodes = (
(751,0,l),
(459,700,l),
(297,700,l),
(589,0,l)
);
},
{
closed = 1;
nodes = (
(304,0,l),
(427,700,l),
(263,700,l),
(140,0,l)
);
},
{
closed = 1;
nodes = (
(785,0,l),
(908,700,l),
(744,700,l),
(621,0,l)
);
},
{
closed = 1;
nodes = (
(130,-58,o),
(108,-76,o),
(91,-76,cs),
(52,-76,l),
(27,-219,l),
(131,-219,ls),
(209,-219,o),
(275,-162,o),
(289,-84,cs),
(304,0,l),
(140,0,l),
(133,-41,l)
);
}
);
width = 877;
}
);
metricLeft = "=N-20";
metricRight = N;
unicode = 413;
},
{
glyphname = Eng;
lastChange = "2025-06-08 03:37:10 +0000";
layers = (
{
anchors = (
{
name = bottom;
pos = (327,-280);
},
{
name = top;
pos = (327,700);
}
);
layerId = m01;
shapes = (
{
closed = 1;
nodes = (
(589,0,l),
(94,700,l),
(65,700,l),
(561,0,l)
);
},
{
closed = 1;
nodes = (
(93,0,l),
(93,700,l),
(65,700,l),
(65,0,l)
);
},
{
closed = 1;
nodes = (
(561,-64,ls),
(561,-86,o),
(543,-104,o),
(521,-104,cs),
(488,-104,l),
(488,-130,l),
(523,-130,ls),
(560,-130,o),
(589,-102,o),
(589,-66,cs),
(589,700,l),
(561,700,l)
);
}
);
width = 654;
},
{
anchors = (
{
name = bottom;
pos = (300,-280);
},
{
name = top;
pos = (300,700);
}
);
layerId = m002;
shapes = (
{
closed = 1;
nodes = (
(649,0,l),
(129,700,l),
(40,700,l),
(561,0,l)
);
},
{
closed = 1;
nodes = (
(128,0,l),
(128,700,l),
(40,700,l),
(40,0,l)
);
},
{
closed = 1;
nodes = (
(561,-40,ls),
(561,-71,o),
(537,-95,o),
(506,-95,cs),
(451,-95,l),
(451,-181,l),
(506,-181,ls),
(586,-181,o),
(649,-118,o),
(649,-38,cs),
(649,700,l),
(561,700,l)
);
}
);
width = 689;
},
{
anchors = (
{
name = bottom;
pos = (373,-280);
},
{
name = top;
pos = (373,700);
}
);
layerId = m003;
shapes = (
{
closed = 1;
nodes = (
(693,0,l),
(214,700,l),
(52,700,l),
(531,0,l)
);
},
{
closed = 1;
nodes = (
(214,0,l),
(214,700,l),
(50,700,l),
(50,0,l)
);
},
{
closed = 1;
nodes = (
(531,-31,ls),
(531,-45,o),
(520,-56,o),
(506,-56,cs),
(451,-56,l),
(451,-212,l),
(506,-212,ls),
(612,-212,o),
(695,-129,o),
(695,-23,cs),
(695,700,l),
(531,700,l)
);
}
);
width = 745;
},
{
anchors = (
{
name = bottom;
pos = (235,-280);
},
{
name = top;
pos = (408,700);
}
);
layerId = m004;
shapes = (
{
closed = 1;
nodes = (
(547,0,l),
(175,700,l),
(146,700,l),
(519,0,l)
);
},
{
closed = 1;
nodes = (
(51,0,l),
(174,700,l),
(146,700,l),
(23,0,l)
);
},
{
closed = 1;
nodes = (
(508,-63,ls),
(504,-85,o),
(481,-104,o),
(459,-104,cs),
(427,-104,l),
(423,-130,l),
(459,-130,ls),
(496,-130,o),
(529,-103,o),
(535,-67,cs),
(670,700,l),
(642,700,l)
);
}
);
width = 654;
},
{
anchors = (
{
name = bottom;
pos = (208,-280);
},
{
name = top;
pos = (381,700);
}
);
layerId = m005;
shapes = (
{
closed = 1;
nodes = (
(607,0,l),
(210,700,l),
(121,700,l),
(519,0,l)
);
},
{
closed = 1;
nodes = (
(86,0,l),
(209,700,l),
(121,700,l),
(-2,0,l)
);
},
{
closed = 1;
nodes = (
(512,-37,ls),
(507,-68,o),
(475,-95,o),
(444,-95,cs),
(392,-95,l),
(377,-181,l),
(435,-181,ls),
(515,-181,o),
(585,-121,o),
(599,-41,cs),
(730,700,l),
(642,700,l)
);
}
);
width = 689;
},
{
anchors = (
{
name = bottom;
pos = (281,-280);
},
{
name = top;
pos = (454,700);
}
);
layerId = m006;
shapes = (
{
closed = 1;
nodes = (
(651,0,l),
(295,700,l),
(133,700,l),
(489,0,l)
);
},
{
closed = 1;
nodes = (
(172,0,l),
(295,700,l),
(131,700,l),
(8,0,l)
);
},
{
closed = 1;
nodes = (
(484,-26,ls),
(482,-40,o),
(462,-56,o),
(448,-56,cs),
(399,-56,l),
(371,-212,l),
(432,-212,ls),
(538,-212,o),
(629,-134,o),
(648,-28,cs),
(776,700,l),
(612,700,l)
);
}
);
width = 745;
}
);
unicode = 330;
},
{
glyphname = O;
kernLeft = O;
kernRight = O;
lastChange = "2025-06-08 03:37:10 +0000";
layers = (
{
anchors = (
{
name = bottom;
pos = (411,80);
},
{
name = center;
pos = (411,350);
},
{
name = ogonek;
pos = (539,5);
},
{
name = top;
pos = (411,700);
},
{
name = topleft;
pos = (20,700);
},
{
name = topright;
pos = (497,700);
}
);
layerId = m01;
shapes = (
{
closed = 1;
nodes = (
(616,-16,o),
(777,145,o),
(777,350,cs),
(777,555,o),
(616,716,o),
(411,716,cs),
(206,716,o),
(45,555,o),
(45,350,cs),
(45,145,o),
(206,-16,o),
(411,-16,cs)
);
},
{
closed = 1;
nodes = (
(223,8,o),
(75,158,o),
(75,350,cs),
(75,542,o),
(223,692,o),
(411,692,cs),
(599,692,o),
(747,542,o),
(747,350,cs),
(747,158,o),
(599,8,o),
(411,8,cs)
);
}
);
width = 822;
},
{
anchors = (
{
name = bottom;
pos = (386,80);
},
{
name = center;
pos = (386,350);
},
{
name = ogonek;
pos = (465,10);
},
{
name = top;
pos = (386,700);
},
{
name = topleft;
pos = (20,700);
},
{
name = topright;
pos = (472,700);
}
);
layerId = m002;
shapes = (
{
closed = 1;
nodes = (
(591,-16,o),
(752,145,o),
(752,350,cs),
(752,555,o),
(591,716,o),
(386,716,cs),
(181,716,o),
(20,555,o),
(20,350,cs),
(20,145,o),
(181,-16,o),
(386,-16,cs)
);
},
{
closed = 1;
nodes = (
(221,66,o),
(110,177,o),
(110,350,cs),
(110,523,o),
(221,634,o),
(386,634,cs),
(551,634,o),
(662,523,o),
(662,350,cs),
(662,177,o),
(551,66,o),
(386,66,cs)
);
}
);
width = 772;
},
{
anchors = (
{
name = bottom;
pos = (401,0);
},
{
name = center;
pos = (401,350);
},
{
name = ogonek;
pos = (470,20);
},
{
name = top;
pos = (401,700);
},
{
name = topleft;
pos = (35,700);
},
{
name = topright;
pos = (487,700);
}
);
layerId = m003;
shapes = (
{
closed = 1;
nodes = (
(612,-16,o),
(777,145,o),
(777,350,cs),
(777,555,o),
(612,716,o),
(401,716,cs),
(190,716,o),
(25,555,o),
(25,350,cs),
(25,145,o),
(190,-16,o),
(401,-16,cs)
);
},
{
closed = 1;
nodes = (
(283,142,o),
(191,234,o),
(191,350,cs),
(191,466,o),
(283,558,o),
(401,558,cs),
(519,558,o),
(611,466,o),
(611,350,cs),
(611,234,o),
(519,142,o),
(401,142,cs)
);
}
);
width = 802;
},
{
anchors = (
{
name = bottom;
pos = (383,80);
},
{
name = center;
pos = (430,350);
},
{
name = ogonek;
pos = (498,5);
},
{
name = top;
pos = (492,700);
},
{
name = topleft;
pos = (101,700);
},
{
name = topright;
pos = (578,700);
}
);
layerId = m004;
shapes = (
{
closed = 1;
nodes = (
(572,-16,o),
(760,144,o),
(796,349,cs),
(832,554,o),
(699,716,o),
(494,716,cs),
(289,716,o),
(101,556,o),
(65,351,cs),
(28,146,o),
(162,-16,o),
(367,-16,cs)
);
},
{
closed = 1;
nodes = (
(181,8,o),
(60,157,o),
(94,349,cs),
(128,541,o),
(304,692,o),
(492,692,cs),
(680,692,o),
(800,543,o),
(767,351,cs),
(733,159,o),
(557,8,o),
(369,8,cs)
);
}
);
width = 822;
},
{
anchors = (
{
name = bottom;
pos = (358,80);
},
{
name = center;
pos = (405,350);
},
{
name = ogonek;
pos = (424,10);
},
{
name = top;
pos = (467,700);
},
{
name = topleft;
pos = (101,700);
},
{
name = topright;
pos = (553,700);
}
);
layerId = m005;
shapes = (
{
closed = 1;
nodes = (
(549,-16,o),
(735,142,o),
(771,347,cs),
(807,552,o),
(672,716,o),
(467,716,cs),
(262,716,o),
(76,558,o),
(40,353,cs),
(4,148,o),
(139,-16,o),
(344,-16,cs)
);
},
{
closed = 1;
nodes = (
(187,66,o),
(98,174,o),
(129,347,cs),
(159,520,o),
(294,634,o),
(459,634,cs),
(624,634,o),
(712,526,o),
(682,353,cs),
(651,180,o),
(517,66,o),
(352,66,cs)
);
}
);
width = 772;
},
{
anchors = (
{
name = bottom;
pos = (359,0);
},
{
name = center;
pos = (420,350);
},
{
name = ogonek;
pos = (431,20);
},
{
name = top;
pos = (482,700);
},
{
name = topleft;
pos = (116,700);
},
{
name = topright;
pos = (568,700);
}
);
layerId = m006;
shapes = (
{
closed = 1;
nodes = (
(573,-16,o),
(759,140,o),
(795,345,cs),
(832,550,o),
(690,716,o),
(479,716,cs),
(268,716,o),
(82,560,o),
(45,355,cs),
(9,150,o),
(151,-16,o),
(362,-16,cs)
);
},
{
closed = 1;
nodes = (
(260,142,o),
(189,229,o),
(209,345,cs),
(230,461,o),
(345,558,o),
(463,558,cs),
(581,558,o),
(652,471,o),
(631,355,cs),
(611,239,o),
(496,142,o),
(378,142,cs)
);
}
);
width = 802;
}
);
unicode = 79;
},
{
glyphname = Oopen;
lastChange = "2025-06-08 05:15:42 +0000";
layers = (
{
anchors = (
{
name = bottom;
pos = (290,0);
},
{
name = top;
pos = (290,700);
}
);
layerId = m01;
shapes = (
{
closed = 1;
nodes = (
(35,665,l),
(76,682,o),
(121,692,o),
(169,692,cs),
(357,692,o),
(505,542,o),
(505,350,cs),
(505,158,o),
(357,8,o),
(169,8,cs),
(121,8,o),
(76,18,o),
(35,35,c),
(35,8,l),
(77,-7,o),
(122,-16,o),
(169,-16,cs),
(374,-16,o),
(535,145,o),
(535,350,cs),
(535,555,o),
(374,716,o),
(169,716,cs),
(122,716,o),
(77,707,o),
(35,692,c)
);
}
);
width = 580;
},
{
anchors = (
{
name = bottom;
pos = (284,0);
},
{
name = top;
pos = (284,700);
}
);
layerId = m002;
shapes = (
{
closed = 1;
nodes = (
(23,590,l),
(67,619,o),
(121,634,o),
(182,634,cs),
(347,634,o),
(458,523,o),
(458,350,cs),
(458,177,o),
(347,66,o),
(182,66,cs),
(121,66,o),
(67,81,o),
(23,110,c),
(23,19,l),
(71,-3,o),
(125,-16,o),
(182,-16,cs),
(387,-16,o),
(548,145,o),
(548,350,cs),
(548,555,o),
(387,716,o),
(182,716,cs),
(125,716,o),
(71,703,o),
(23,681,c)
);
}
);
width = 568;
},
{
anchors = (
{
name = bottom;
pos = (281,0);
},
{
name = top;
pos = (281,700);
}
);
layerId = m003;
shapes = (
{
closed = 1;
nodes = (
(28,503,l),
(65,537,o),
(115,558,o),
(171,558,cs),
(289,558,o),
(381,466,o),
(381,350,cs),
(381,234,o),
(289,142,o),
(171,142,cs),
(115,142,o),
(65,163,o),
(28,197,c),
(28,11,l),
(72,-7,o),
(120,-16,o),
(171,-16,cs),
(382,-16,o),
(547,145,o),
(547,350,cs),
(547,555,o),
(382,716,o),
(171,716,cs),
(120,716,o),
(72,707,o),
(28,689,c)
);
}
);
width = 572;
},
{
anchors = (
{
name = bottom;
pos = (248,0);
},
{
name = top;
pos = (371,700);
}
);
layerId = m004;
shapes = (
{
closed = 1;
nodes = (
(111,665,l),
(155,682,o),
(202,692,o),
(250,692,cs),
(438,692,o),
(558,543,o),
(525,351,cs),
(491,159,o),
(315,8,o),
(127,8,cs),
(79,8,o),
(36,18,o),
(-2,35,c),
(-5,8,l),
(34,-7,o),
(78,-16,o),
(125,-16,cs),
(330,-16,o),
(518,144,o),
(554,349,cs),
(590,554,o),
(457,716,o),
(252,716,cs),
(205,716,o),
(158,707,o),
(114,692,c)
);
}
);
width = 580;
},
{
anchors = (
{
name = bottom;
pos = (236,0);
},
{
name = top;
pos = (359,700);
}
);
layerId = m005;
shapes = (
{
closed = 1;
nodes = (
(81,588,l),
(130,617,o),
(188,634,o),
(249,634,cs),
(414,634,o),
(502,526,o),
(472,353,cs),
(441,180,o),
(307,66,o),
(142,66,cs),
(81,66,o),
(30,79,o),
(-9,108,c),
(-19,20,l),
(25,-2,o),
(77,-16,o),
(134,-16,cs),
(339,-16,o),
(525,142,o),
(561,347,cs),
(597,552,o),
(462,716,o),
(257,716,cs),
(200,716,o),
(144,704,o),
(92,682,c)
);
}
);
width = 562;
},
{
anchors = (
{
name = bottom;
pos = (233,0);
},
{
name = top;
pos = (356,700);
}
);
layerId = m006;
shapes = (
{
closed = 1;
nodes = (
(72,499,l),
(115,533,o),
(171,558,o),
(227,558,cs),
(345,558,o),
(416,471,o),
(395,355,cs),
(375,239,o),
(260,142,o),
(142,142,cs),
(86,142,o),
(41,159,o),
(10,193,c),
(-13,13,l),
(28,-5,o),
(75,-16,o),
(126,-16,cs),
(337,-16,o),
(523,140,o),
(559,345,cs),
(596,550,o),
(454,716,o),
(243,716,cs),
(192,716,o),
(143,709,o),
(96,691,c)
);
}
);
width = 566;
}
);
metricLeft = "=|C";
metricRight = O;
unicode = 390;
},
{
glyphname = OE;
kernLeft = O;
kernRight = E;
lastChange = "2025-06-08 05:15:42 +0000";
layers = (
{
anchors = (
{
name = bottom;
pos = (521,0);
},
{
name = top;
pos = (521,700);
}
);
layerId = m01;
shapes = (
{
closed = 1;
nodes = (
(460,-16,o),
(577,84,o),
(599,212,c),
(599,0,l),
(1006,0,l),
(1006,26,l),
(627,26,l),
(627,348,l),
(986,348,l),
(986,374,l),
(627,374,l),
(627,674,l),
(998,674,l),
(998,700,l),
(599,700,l),
(599,488,l),
(577,616,o),
(460,716,o),
(332,716,cs),
(171,716,o),
(45,555,o),
(45,350,cs),
(45,145,o),
(171,-16,o),
(332,-16,cs)
);
},
{
closed = 1;
nodes = (
(188,10,o),
(73,160,o),
(73,350,cs),
(73,540,o),
(188,690,o),
(335,690,cs),
(482,690,o),
(597,540,o),
(597,350,cs),
(597,160,o),
(482,10,o),
(335,10,cs)
);
}
);
width = 1041;
},
{
anchors = (
{
name = bottom;
pos = (502,0);
},
{
name = top;
pos = (502,700);
}
);
layerId = m002;
shapes = (
{
closed = 1;
nodes = (
(438,-16,o),
(520,23,o),
(575,92,c),
(575,0,l),
(981,0,l),
(981,80,l),
(663,80,l),
(663,322,l),
(961,322,l),
(961,400,l),
(663,400,l),
(663,622,l),
(973,622,l),
(973,700,l),
(575,700,l),
(575,608,l),
(520,677,o),
(438,716,o),
(336,716,cs),
(141,716,o),
(20,576,o),
(20,350,cs),
(20,124,o),
(141,-16,o),
(336,-16,cs)
);
},
{
closed = 1;
nodes = (
(197,66,o),
(110,175,o),
(110,350,cs),
(110,525,o),
(197,634,o),
(336,634,cs),
(475,634,o),
(562,525,o),
(562,350,cs),
(562,175,o),
(475,66,o),
(336,66,cs)
);
}
);
width = 1004;
},
{
anchors = (
{
name = bottom;
pos = (512,0);
},
{
name = top;
pos = (512,700);
}
);
layerId = m003;
shapes = (
{
closed = 1;
nodes = (
(459,-16,o),
(532,32,o),
(580,92,c),
(580,0,l),
(986,0,l),
(986,160,l),
(744,160,l),
(744,283,l),
(966,283,l),
(966,439,l),
(744,439,l),
(744,544,l),
(978,544,l),
(978,700,l),
(580,700,l),
(580,608,l),
(532,668,o),
(459,716,o),
(341,716,cs),
(164,716,o),
(25,555,o),
(25,350,cs),
(25,145,o),
(164,-16,o),
(341,-16,cs)
);
},
{
closed = 1;
nodes = (
(257,142,o),
(191,234,o),
(191,350,cs),
(191,466,o),
(257,558,o),
(341,558,cs),
(431,558,o),
(501,466,o),
(501,350,cs),
(501,234,o),
(431,142,o),
(341,142,cs)
);
}
);
width = 1014;
},
{
anchors = (
{
name = bottom;
pos = (484,0);
},
{
name = top;
pos = (607,700);
}
);
layerId = m004;
shapes = (
{
closed = 1;
nodes = (
(421,-16,o),
(555,83,o),
(599,211,c),
(562,0,l),
(969,0,l),
(973,26,l),
(594,26,l),
(651,348,l),
(1010,348,l),
(1015,374,l),
(656,374,l),
(709,674,l),
(1080,674,l),
(1084,700,l),
(685,700,l),
(647,487,l),
(648,615,o),
(548,716,o),
(420,716,cs),
(259,716,o),
(106,556,o),
(70,351,cs),
(33,146,o),
(132,-16,o),
(293,-16,cs)
);
},
{
closed = 1;
nodes = (
(151,10,o),
(64,159,o),
(97,349,cs),
(131,539,o),
(273,690,o),
(420,690,cs),
(567,690,o),
(655,541,o),
(622,351,cs),
(588,161,o),
(445,10,o),
(298,10,cs)
);
}
);
width = 1119;
},
{
anchors = (
{
name = bottom;
pos = (469,0);
},
{
name = top;
pos = (592,700);
}
);
layerId = m005;
shapes = (
{
closed = 1;
nodes = (
(405,-16,o),
(492,21,o),
(559,90,c),
(542,0,l),
(948,0,l),
(962,80,l),
(644,80,l),
(686,322,l),
(984,322,l),
(998,400,l),
(700,400,l),
(739,622,l),
(1049,622,l),
(1063,700,l),
(665,700,l),
(647,606,l),
(604,675,o),
(528,716,o),
(426,716,cs),
(231,716,o),
(89,579,o),
(49,353,cs),
(9,127,o),
(108,-16,o),
(303,-16,cs)
);
},
{
closed = 1;
nodes = (
(172,66,o),
(107,172,o),
(138,347,cs),
(169,522,o),
(279,634,o),
(418,634,cs),
(557,634,o),
(622,528,o),
(591,353,cs),
(560,178,o),
(450,66,o),
(311,66,cs)
);
}
);
width = 1086;
},
{
anchors = (
{
name = bottom;
pos = (473,0);
},
{
name = top;
pos = (596,700);
}
);
layerId = m006;
shapes = (
{
closed = 1;
nodes = (
(423,-16,o),
(501,28,o),
(560,88,c),
(541,0,l),
(947,0,l),
(975,160,l),
(733,160,l),
(755,283,l),
(977,283,l),
(1004,439,l),
(782,439,l),
(801,544,l),
(1035,544,l),
(1062,700,l),
(664,700,l),
(644,604,l),
(606,664,o),
(540,716,o),
(422,716,cs),
(245,716,o),
(85,560,o),
(48,355,cs),
(12,150,o),
(128,-16,o),
(305,-16,cs)
);
},
{
closed = 1;
nodes = (
(237,142,o),
(192,229,o),
(212,345,cs),
(233,461,o),
(322,558,o),
(406,558,cs),
(496,558,o),
(545,471,o),
(524,355,cs),
(504,239,o),
(411,142,o),
(321,142,cs)
);
}
);
width = 1090;
}
);
metricLeft = O;
metricRight = E;
unicode = 338;
},
{
glyphname = P;
kernLeft = H;
kernRight = P;
lastChange = "2025-06-08 05:15:42 +0000";
layers = (
{
anchors = (
{
name = bottom;
pos = (309,0);
},
{
name = top;
pos = (309,700);
}
);
layerId = m01;
shapes = (
{
closed = 1;
nodes = (
(346,244,ls),
(473,244,o),
(572,344,o),
(572,472,cs),
(572,601,o),
(473,701,o),
(346,700,c),
(82,700,l),
(82,676,l),
(346,676,ls),
(456,676,o),
(542,586,o),
(542,472,cs),
(542,358,o),
(456,268,o),
(346,268,cs),
(82,268,l),
(82,244,l)
);
},
{
closed = 1;
nodes = (
(98,0,l),
(98,700,l),
(70,700,l),
(70,0,l)
);
}
);
width = 617;
},
{
anchors = (
{
name = bottom;
pos = (299,0);
},
{
name = top;
pos = (299,700);
}
);
layerId = m002;
shapes = (
{
closed = 1;
nodes = (
(351,244,ls),
(478,244,o),
(577,344,o),
(577,472,cs),
(577,601,o),
(478,701,o),
(351,700,c),
(87,700,l),
(87,618,l),
(351,618,ls),
(427,618,o),
(487,554,o),
(487,472,cs),
(487,390,o),
(427,326,o),
(351,326,cs),
(87,326,l),
(87,244,l)
);
},
{
closed = 1;
nodes = (
(133,0,l),
(133,700,l),
(45,700,l),
(45,0,l)
);
}
);
width = 597;
},
{
anchors = (
{
name = bottom;
pos = (323,0);
},
{
name = top;
pos = (323,700);
}
);
layerId = m003;
shapes = (
{
closed = 1;
nodes = (
(378,206,ls),
(516,206,o),
(625,315,o),
(625,453,cs),
(625,592,o),
(516,701,o),
(378,700,c),
(135,700,l),
(135,544,l),
(378,544,ls),
(429,544,o),
(469,504,o),
(469,453,cs),
(469,402,o),
(429,362,o),
(378,362,cs),
(135,362,l),
(135,206,l)
);
},
{
closed = 1;
nodes = (
(219,0,l),
(219,700,l),
(55,700,l),
(55,0,l)
);
}
);
width = 650;
},
{
anchors = (
{
name = bottom;
pos = (267,0);
},
{
name = top;
pos = (390,700);
}
);
layerId = m004;
shapes = (
{
closed = 1;
nodes = (
(348,244,ls),
(475,244,o),
(590,343,o),
(613,471,cs),
(636,600,o),
(553,701,o),
(426,700,c),
(163,700,l),
(159,676,l),
(424,676,ls),
(534,676,o),
(603,587,o),
(583,473,cs),
(563,359,o),
(460,268,o),
(350,268,cs),
(87,268,l),
(83,244,l)
);
},
{
closed = 1;
nodes = (
(56,0,l),
(179,700,l),
(151,700,l),
(28,0,l)
);
}
);
width = 652;
},
{
anchors = (
{
name = bottom;
pos = (257,0);
},
{
name = top;
pos = (380,700);
}
);
layerId = m005;
shapes = (
{
closed = 1;
nodes = (
(355,244,ls),
(482,244,o),
(595,341,o),
(617,469,cs),
(640,598,o),
(556,701,o),
(429,700,c),
(168,700,l),
(154,618,l),
(421,618,ls),
(497,618,o),
(543,557,o),
(528,475,cs),
(514,393,o),
(439,326,o),
(363,326,cs),
(102,326,l),
(88,244,l)
);
},
{
closed = 1;
nodes = (
(91,0,l),
(214,700,l),
(126,700,l),
(3,0,l)
);
}
);
width = 632;
},
{
anchors = (
{
name = bottom;
pos = (281,0);
},
{
name = top;
pos = (404,700);
}
);
layerId = m006;
shapes = (
{
closed = 1;
nodes = (
(378,206,ls),
(516,206,o),
(637,310,o),
(662,448,cs),
(686,587,o),
(592,701,o),
(453,700,c),
(216,700,l),
(189,544,l),
(437,544,ls),
(488,544,o),
(517,509,o),
(508,458,cs),
(499,407,o),
(445,362,o),
(394,362,cs),
(157,362,l),
(129,206,l)
);
},
{
closed = 1;
nodes = (
(177,0,l),
(300,700,l),
(136,700,l),
(13,0,l)
);
}
);
width = 680;
}
);
metricLeft = H;
metricRight = O;
unicode = 80;
},
{
glyphname = Phook;
lastChange = "2025-06-08 05:15:42 +0000";
layers = (
{
anchors = (
{
name = bottom;
pos = (449,0);
},
{
name = top;
pos = (449,700);
}
);
layerId = m01;
shapes = (
{
closed = 1;
nodes = (
(486,244,ls),
(613,244,o),
(712,344,o),
(712,472,cs),
(712,601,o),
(613,701,o),
(486,700,c),
(222,700,l),
(222,676,l),
(486,676,ls),
(596,676,o),
(682,586,o),
(682,472,cs),
(682,358,o),
(596,268,o),
(486,268,cs),
(222,268,l),
(222,244,l)
);
},
{
closed = 1;
nodes = (
(238,0,l),
(238,700,l),
(210,700,l),
(210,0,l)
);
},
{
closed = 1;
nodes = (
(98,642,o),
(131,674,o),
(173,674,cs),
(214,674,l),
(214,700,l),
(170,700,ls),
(114,700,o),
(70,656,o),
(70,600,cs),
(70,571,l),
(98,571,l),
(98,601,l)
);
}
);
width = 757;
},
{
anchors = (
{
name = bottom;
pos = (436,0);
},
{
name = top;
pos = (436,700);
}
);
layerId = m002;
shapes = (
{
closed = 1;
nodes = (
(488,244,ls),
(615,244,o),
(714,344,o),
(714,472,cs),
(714,601,o),
(615,701,o),
(488,700,c),
(224,700,l),
(224,618,l),
(488,618,ls),
(564,618,o),
(624,554,o),
(624,472,cs),
(624,390,o),
(564,326,o),
(488,326,cs),
(224,326,l),
(224,244,l)
);
},
{
closed = 1;
nodes = (
(270,0,l),
(270,700,l),
(182,700,l),
(182,0,l)
);
},
{
closed = 1;
nodes = (
(123,605,o),
(136,618,o),
(153,618,cs),
(194,618,l),
(194,700,l),
(135,700,ls),
(85,700,o),
(45,660,o),
(45,610,cs),
(45,541,l),
(123,541,l),
(123,588,l)
);
}
);
width = 734;
},
{
anchors = (
{
name = bottom;
pos = (508,0);
},
{
name = top;
pos = (508,700);
}
);
layerId = m003;
shapes = (
{
closed = 1;
nodes = (
(563,206,ls),
(701,206,o),
(810,315,o),
(810,453,cs),
(810,592,o),
(701,701,o),
(563,700,c),
(320,700,l),
(320,544,l),
(563,544,ls),
(614,544,o),
(654,504,o),
(654,453,cs),
(654,402,o),
(614,362,o),
(563,362,cs),
(320,362,l),
(320,206,l)
);
},
{
closed = 1;
nodes = (
(404,0,l),
(404,700,l),
(240,700,l),
(240,0,l)
);
},
{
closed = 1;
nodes = (
(187,531,o),
(200,544,o),
(217,544,cs),
(253,544,l),
(253,700,l),
(195,700,ls),
(117,700,o),
(55,638,o),
(55,560,cs),
(55,491,l),
(187,491,l),
(187,514,l)
);
}
);
width = 835;
},
{
anchors = (
{
name = bottom;
pos = (267,0);
},
{
name = top;
pos = (390,700);
}
);
layerId = m004;
shapes = (
{
closed = 1;
nodes = (
(348,244,ls),
(475,244,o),
(590,343,o),
(613,471,cs),
(636,600,o),
(553,701,o),
(426,700,c),
(163,700,l),
(159,676,l),
(424,676,ls),
(534,676,o),
(603,587,o),
(583,473,cs),
(563,359,o),
(460,268,o),
(350,268,cs),
(87,268,l),
(83,244,l)
);
},
{
closed = 1;
nodes = (
(56,0,l),
(179,700,l),
(151,700,l),
(28,0,l)
);
},
{
closed = 1;
nodes = (
(29,641,o),
(69,674,o),
(111,674,cs),
(151,674,l),
(155,700,l),
(110,700,ls),
(54,700,o),
(3,657,o),
(-6,601,cs),
(-12,571,l),
(16,571,l),
(22,600,l)
);
}
);
width = 652;
},
{
anchors = (
{
name = bottom;
pos = (257,0);
},
{
name = top;
pos = (380,700);
}
);
layerId = m005;
shapes = (
{
closed = 1;
nodes = (
(355,244,ls),
(482,244,o),
(595,341,o),
(617,469,cs),
(640,598,o),
(556,701,o),
(429,700,c),
(168,700,l),
(154,618,l),
(421,618,ls),
(497,618,o),
(543,557,o),
(528,475,cs),
(514,393,o),
(439,326,o),
(363,326,cs),
(102,326,l),
(88,244,l)
);
},
{
closed = 1;
nodes = (
(91,0,l),
(214,700,l),
(126,700,l),
(3,0,l)
);
},
{
closed = 1;
nodes = (
(50,602,o),
(69,618,o),
(86,618,cs),
(124,618,l),
(138,700,l),
(76,700,ls),
(26,700,o),
(-17,663,o),
(-26,613,cs),
(-39,541,l),
(39,541,l),
(47,585,l)
);
}
);
width = 632;
},
{
anchors = (
{
name = bottom;
pos = (294,0);
},
{
name = top;
pos = (417,700);
}
);
layerId = m006;
shapes = (
{
closed = 1;
nodes = (
(391,206,ls),
(529,206,o),
(650,310,o),
(675,448,cs),
(699,587,o),
(605,701,o),
(466,700,c),
(229,700,l),
(202,544,l),
(450,544,ls),
(501,544,o),
(530,509,o),
(521,458,cs),
(512,407,o),
(458,362,o),
(407,362,cs),
(170,362,l),
(142,206,l)
);
},
{
closed = 1;
nodes = (
(190,0,l),
(313,700,l),
(149,700,l),
(26,0,l)
);
},
{
closed = 1;
nodes = (
(65,526,o),
(87,544,o),
(104,544,cs),
(135,544,l),
(162,700,l),
(98,700,ls),
(20,700,o),
(-46,643,o),
(-60,565,cs),
(-73,491,l),
(59,491,l),
(62,509,l)
);
}
);
width = 693;
}
);
metricLeft = P;
metricRight = P;
unicode = 420;
},
{
glyphname = Thorn;
kernLeft = H;
kernRight = Thorn;
lastChange = "2025-06-08 05:15:42 +0000";
layers = (
{
anchors = (
{
name = bottom;
pos = (277,0);
},
{
name = top;
pos = (277,700);
}
);
layerId = m01;
shapes = (
{
closed = 1;
nodes = (
(326,174,ls),
(428,174,o),
(508,253,o),
(508,354,cs),
(508,456,o),
(428,535,o),
(326,534,c),
(82,534,l),
(82,508,l),
(326,508,ls),
(412,508,o),
(480,440,o),
(480,354,cs),
(480,268,o),
(412,200,o),
(326,200,cs),
(82,200,l),
(82,174,l)
);
},
{
closed = 1;
nodes = (
(98,0,l),
(98,700,l),
(70,700,l),
(70,0,l)
);
}
);
width = 553;
},
{
anchors = (
{
name = bottom;
pos = (284,0);
},
{
name = top;
pos = (284,700);
}
);
layerId = m002;
shapes = (
{
closed = 1;
nodes = (
(331,146,ls),
(452,146,o),
(547,238,o),
(547,354,cs),
(547,471,o),
(452,563,o),
(331,562,c),
(87,562,l),
(87,480,l),
(331,480,ls),
(402,480,o),
(457,425,o),
(457,354,cs),
(457,283,o),
(402,228,o),
(331,228,cs),
(87,228,l),
(87,146,l)
);
},
{
closed = 1;
nodes = (
(133,0,l),
(133,700,l),
(45,700,l),
(45,0,l)
);
}
);
width = 567;
},
{
anchors = (
{
name = bottom;
pos = (328,0);
},
{
name = top;
pos = (328,700);
}
);
layerId = m003;
shapes = (
{
closed = 1;
nodes = (
(379,111,ls),
(523,111,o),
(636,218,o),
(636,354,cs),
(636,491,o),
(523,598,o),
(379,597,c),
(135,597,l),
(135,445,l),
(379,445,ls),
(430,445,o),
(470,405,o),
(470,354,cs),
(470,303,o),
(430,263,o),
(379,263,cs),
(135,263,l),
(135,111,l)
);
},
{
closed = 1;
nodes = (
(219,0,l),
(219,700,l),
(55,700,l),
(55,0,l)
);
}
);
width = 661;
},
{
anchors = (
{
name = bottom;
pos = (235,0);
},
{
name = top;
pos = (358,700);
}
);
layerId = m004;
shapes = (
{
closed = 1;
nodes = (
(315,174,ls),
(417,174,o),
(510,252,o),
(528,353,cs),
(546,455,o),
(479,535,o),
(377,534,c),
(134,534,l),
(129,508,l),
(374,508,ls),
(460,508,o),
(515,441,o),
(500,355,cs),
(485,269,o),
(404,200,o),
(318,200,cs),
(75,200,l),
(70,174,l)
);
},
{
closed = 1;
nodes = (
(56,0,l),
(179,700,l),
(151,700,l),
(28,0,l)
);
}
);
width = 543;
},
{
anchors = (
{
name = bottom;
pos = (242,0);
},
{
name = top;
pos = (365,700);
}
);
layerId = m005;
shapes = (
{
closed = 1;
nodes = (
(317,146,ls),
(438,146,o),
(546,235,o),
(567,351,cs),
(587,468,o),
(506,563,o),
(385,562,c),
(144,562,l),
(129,480,l),
(376,480,ls),
(447,480,o),
(490,428,o),
(478,357,cs),
(465,286,o),
(397,228,o),
(326,228,cs),
(85,228,l),
(70,146,l)
);
},
{
closed = 1;
nodes = (
(91,0,l),
(214,700,l),
(126,700,l),
(3,0,l)
);
}
);
width = 559;
},
{
anchors = (
{
name = bottom;
pos = (286,0);
},
{
name = top;
pos = (409,700);
}
);
layerId = m006;
shapes = (
{
closed = 1;
nodes = (
(362,111,ls),
(506,111,o),
(631,213,o),
(655,349,cs),
(679,486,o),
(580,598,o),
(436,597,c),
(198,597,l),
(171,445,l),
(421,445,ls),
(472,445,o),
(500,410,o),
(491,359,cs),
(482,308,o),
(428,263,o),
(377,263,cs),
(139,263,l),
(112,111,l)
);
},
{
closed = 1;
nodes = (
(177,0,l),
(300,700,l),
(136,700,l),
(13,0,l)
);
}
);
width = 654;
}
);
metricLeft = P;
metricRight = P;
unicode = 222;
},
{
glyphname = Q;
kernLeft = O;
kernRight = O;
lastChange = "2025-06-08 05:15:42 +0000";
layers = (
{
anchors = (
{
name = bottom;
pos = (411,0);
},
{
name = top;
pos = (411,700);
}
);
layerId = m01;
shapes = (
{
closed = 1;
nodes = (
(694,-17,l),
(615,80,l),
(592,65,l),
(659,-17,l)
);
},
{
ref = O;
}
);
width = 822;
},
{
anchors = (
{
name = bottom;
pos = (386,0);
},
{
name = top;
pos = (386,700);
}
);
layerId = m002;
shapes = (
{
closed = 1;
nodes = (
(731,-17,l),
(622,116,l),
(548,74,l),
(622,-17,l)
);
},
{
ref = O;
}
);
width = 772;
},
{
anchors = (
{
name = bottom;
pos = (386,0);
},
{
name = top;
pos = (386,700);
}
);
layerId = m003;
shapes = (
{
closed = 1;
nodes = (
(761,-17,l),
(626,148,l),
(528,74,l),
(602,-17,l)
);
},
{
ref = O;
}
);
width = 802;
},
{
anchors = (
{
name = bottom;
pos = (411,0);
},
{
name = top;
pos = (534,700);
}
);
layerId = m004;
shapes = (
{
closed = 1;
nodes = (
(691,-17,l),
(629,80,l),
(603,65,l),
(656,-17,l)
);
},
{
ref = O;
}
);
width = 822;
},
{
anchors = (
{
name = bottom;
pos = (386,0);
},
{
name = top;
pos = (509,700);
}
);
layerId = m005;
shapes = (
{
closed = 1;
nodes = (
(728,-17,l),
(642,116,l),
(561,74,l),
(619,-17,l)
);
},
{
ref = O;
}
);
width = 772;
},
{
anchors = (
{
name = bottom;
pos = (386,0);
},
{
name = top;
pos = (509,700);
}
);
layerId = m006;
shapes = (
{
closed = 1;
nodes = (
(758,-17,l),
(652,148,l),
(541,74,l),
(599,-17,l)
);
},
{
ref = O;
}
);
width = 802;
}
);
metricLeft = O;
metricRight = O;
unicode = 81;
},
{
glyphname = R;
kernLeft = H;
kernRight = R;
lastChange = "2025-06-08 05:15:42 +0000";
layers = (
{
anchors = (
{
name = bottom;
pos = (291,0);
},
{
name = top;
pos = (291,700);
}
);
layerId = m01;
shapes = (
{
closed = 1;
nodes = (
(346,274,ls),
(473,274,o),
(572,368,o),
(572,487,cs),
(572,607,o),
(473,701,o),
(346,700,c),
(82,700,l),
(82,676,l),
(346,676,ls),
(456,676,o),
(542,593,o),
(542,487,cs),
(542,381,o),
(456,298,o),
(346,298,cs),
(82,298,l),
(82,274,l)
);
},
{
closed = 1;
nodes = (
(98,0,l),
(98,700,l),
(70,700,l),
(70,0,l)
);
},
{
closed = 1;
nodes = (
(560,0,l),
(321,289,l),
(290,289,l),
(529,0,l)
);
}
);
width = 582;
},
{
anchors = (
{
name = bottom;
pos = (307,0);
},
{
name = top;
pos = (307,700);
}
);
layerId = m002;
shapes = (
{
closed = 1;
nodes = (
(351,274,ls),
(478,274,o),
(577,368,o),
(577,487,cs),
(577,607,o),
(478,701,o),
(351,700,c),
(87,700,l),
(87,618,l),
(351,618,ls),
(427,618,o),
(487,560,o),
(487,487,cs),
(487,414,o),
(427,356,o),
(351,356,cs),
(87,356,l),
(87,274,l)
);
},
{
closed = 1;
nodes = (
(133,0,l),
(133,700,l),
(45,700,l),
(45,0,l)
);
},
{
closed = 1;
nodes = (
(604,0,l),
(341,318,l),
(232,318,l),
(495,0,l)
);
}
);
width = 614;
},
{
anchors = (
{
name = bottom;
pos = (337,0);
},
{
name = top;
pos = (337,700);
}
);
layerId = m003;
shapes = (
{
closed = 1;
nodes = (
(398,246,ls),
(525,246,o),
(625,346,o),
(625,473,cs),
(625,601,o),
(525,701,o),
(398,700,c),
(135,700,l),
(135,544,l),
(398,544,ls),
(438,544,o),
(469,513,o),
(469,473,cs),
(469,433,o),
(438,402,o),
(398,402,cs),
(135,402,l),
(135,246,l)
);
},
{
closed = 1;
nodes = (
(219,0,l),
(219,700,l),
(55,700,l),
(55,0,l)
);
},
{
closed = 1;
nodes = (
(654,0,l),
(391,318,l),
(207,318,l),
(470,0,l)
);
}
);
width = 664;
},
{
anchors = (
{
name = bottom;
pos = (249,0);
},
{
name = top;
pos = (372,700);
}
);
layerId = m004;
shapes = (
{
closed = 1;
nodes = (
(353,274,ls),
(480,274,o),
(594,367,o),
(615,486,cs),
(637,606,o),
(553,701,o),
(426,700,c),
(163,700,l),
(159,676,l),
(424,676,ls),
(534,676,o),
(604,594,o),
(586,488,cs),
(567,382,o),
(465,298,o),
(355,298,cs),
(92,298,l),
(88,274,l)
);
},
{
closed = 1;
nodes = (
(56,0,l),
(179,700,l),
(151,700,l),
(28,0,l)
);
},
{
closed = 1;
nodes = (
(518,0,l),
(330,289,l),
(299,289,l),
(487,0,l)
);
}
);
width = 765;
},
{
anchors = (
{
name = bottom;
pos = (265,0);
},
{
name = top;
pos = (388,700);
}
);
layerId = m005;
shapes = (
{
closed = 1;
nodes = (
(360,274,ls),
(487,274,o),
(599,365,o),
(620,484,cs),
(641,604,o),
(556,701,o),
(429,700,c),
(168,700,l),
(154,618,l),
(421,618,ls),
(497,618,o),
(544,563,o),
(531,490,cs),
(518,417,o),
(444,356,o),
(368,356,cs),
(107,356,l),
(93,274,l)
);
},
{
closed = 1;
nodes = (
(91,0,l),
(214,700,l),
(126,700,l),
(3,0,l)
);
},
{
closed = 1;
nodes = (
(562,0,l),
(355,318,l),
(246,318,l),
(453,0,l)
);
}
);
width = 770;
},
{
anchors = (
{
name = bottom;
pos = (295,0);
},
{
name = top;
pos = (418,700);
}
);
layerId = m006;
shapes = (
{
closed = 1;
nodes = (
(405,246,ls),
(532,246,o),
(643,341,o),
(665,468,cs),
(688,596,o),
(601,701,o),
(473,700,c),
(216,700,l),
(189,544,l),
(457,544,ls),
(497,544,o),
(518,518,o),
(511,478,cs),
(504,438,o),
(461,402,o),
(421,402,cs),
(164,402,l),
(136,246,l)
);
},
{
closed = 1;
nodes = (
(177,0,l),
(300,700,l),
(136,700,l),
(13,0,l)
);
},
{
closed = 1;
nodes = (
(612,0,l),
(405,318,l),
(221,318,l),
(428,0,l)
);
}
);
width = 813;
}
);
metricLeft = H;
metricRight = A;
unicode = 82;
},
{
glyphname = Rstroke;
lastChange = "2025-06-08 03:37:10 +0000";
layers = (
{
anchors = (
{
name = bottom;
pos = (321,0);
},
{
name = top;
pos = (321,700);
}
);
layerId = m01;
shapes = (
{
closed = 1;
nodes = (
(406,274,ls),
(533,274,o),
(632,368,o),
(632,487,cs),
(632,607,o),
(533,701,o),
(406,700,c),
(142,700,l),
(142,676,l),
(406,676,ls),
(516,676,o),
(602,593,o),
(602,487,cs),
(602,381,o),
(516,298,o),
(406,298,cs),
(10,298,l),
(10,274,l)
);
},
{
closed = 1;
nodes = (
(158,0,l),
(158,700,l),
(130,700,l),
(130,0,l)
);
},
{
closed = 1;
nodes = (
(620,0,l),
(381,289,l),
(350,289,l),
(589,0,l)
);
}
);
width = 642;
},
{
anchors = (
{
name = bottom;
pos = (345,0);
},
{
name = top;
pos = (345,700);
}
);
layerId = m002;
shapes = (
{
closed = 1;
nodes = (
(426,274,ls),
(553,274,o),
(652,368,o),
(652,487,cs),
(652,607,o),
(553,701,o),
(426,700,c),
(162,700,l),
(162,618,l),
(426,618,ls),
(502,618,o),
(562,560,o),
(562,487,cs),
(562,414,o),
(502,356,o),
(426,356,cs),
(10,356,l),
(10,274,l)
);
},
{
closed = 1;
nodes = (
(208,0,l),
(208,700,l),
(120,700,l),
(120,0,l)
);
},
{
closed = 1;
nodes = (
(679,0,l),
(416,318,l),
(307,318,l),
(570,0,l)
);
}
);
width = 689;
},
{
anchors = (
{
name = bottom;
pos = (360,0);
},
{
name = top;
pos = (360,700);
}
);
layerId = m003;
shapes = (
{
closed = 1;
nodes = (
(453,246,ls),
(580,246,o),
(680,346,o),
(680,473,cs),
(680,601,o),
(580,701,o),
(453,700,c),
(190,700,l),
(190,544,l),
(453,544,ls),
(493,544,o),
(524,513,o),
(524,473,cs),
(524,433,o),
(493,402,o),
(453,402,cs),
(10,402,l),
(10,246,l)
);
},
{
closed = 1;
nodes = (
(274,0,l),
(274,700,l),
(110,700,l),
(110,0,l)
);
},
{
closed = 1;
nodes = (
(709,0,l),
(446,318,l),
(262,318,l),
(525,0,l)
);
}
);
width = 719;
},
{
anchors = (
{
name = bottom;
pos = (279,0);
},
{
name = top;
pos = (402,700);
}
);
layerId = m004;
shapes = (
{
closed = 1;
nodes = (
(413,274,ls),
(540,274,o),
(654,367,o),
(675,486,cs),
(697,606,o),
(613,701,o),
(486,700,c),
(223,700,l),
(219,676,l),
(484,676,ls),
(594,676,o),
(664,594,o),
(646,488,cs),
(627,382,o),
(525,298,o),
(415,298,cs),
(20,298,l),
(16,274,l)
);
},
{
closed = 1;
nodes = (
(116,0,l),
(239,700,l),
(211,700,l),
(88,0,l)
);
},
{
closed = 1;
nodes = (
(578,0,l),
(390,289,l),
(359,289,l),
(547,0,l)
);
}
);
width = 642;
},
{
anchors = (
{
name = bottom;
pos = (303,0);
},
{
name = top;
pos = (426,700);
}
);
layerId = m005;
shapes = (
{
closed = 1;
nodes = (
(435,274,ls),
(562,274,o),
(674,365,o),
(695,484,cs),
(716,604,o),
(631,701,o),
(504,700,c),
(243,700,l),
(229,618,l),
(496,618,ls),
(572,618,o),
(619,563,o),
(606,490,cs),
(593,417,o),
(519,356,o),
(443,356,cs),
(30,356,l),
(16,274,l)
);
},
{
closed = 1;
nodes = (
(166,0,l),
(289,700,l),
(201,700,l),
(78,0,l)
);
},
{
closed = 1;
nodes = (
(637,0,l),
(430,318,l),
(321,318,l),
(528,0,l)
);
}
);
width = 689;
},
{
anchors = (
{
name = bottom;
pos = (318,0);
},
{
name = top;
pos = (441,700);
}
);
layerId = m006;
shapes = (
{
closed = 1;
nodes = (
(460,246,ls),
(587,246,o),
(698,341,o),
(720,468,cs),
(743,596,o),
(656,701,o),
(528,700,c),
(271,700,l),
(244,544,l),
(512,544,ls),
(552,544,o),
(573,518,o),
(566,478,cs),
(559,438,o),
(516,402,o),
(476,402,cs),
(39,402,l),
(11,246,l)
);
},
{
closed = 1;
nodes = (
(232,0,l),
(355,700,l),
(191,700,l),
(68,0,l)
);
},
{
closed = 1;
nodes = (
(667,0,l),
(460,318,l),
(276,318,l),
(483,0,l)
);
}
);
width = 719;
}
);
unicode = 588;
},
{
glyphname = Rtail;
lastChange = "2025-06-08 03:37:10 +0000";
layers = (
{
anchors = (
{
name = bottom;
pos = (291,0);
},
{
name = top;
pos = (291,700);
}
);
layerId = m01;
shapes = (
{
closed = 1;
nodes = (
(346,274,ls),
(473,274,o),
(572,368,o),
(572,487,cs),
(572,607,o),
(473,701,o),
(346,700,c),
(82,700,l),
(82,676,l),
(346,676,ls),
(456,676,o),
(542,593,o),
(542,487,cs),
(542,381,o),
(456,298,o),
(346,298,cs),
(82,298,l),
(82,274,l)
);
},
{
closed = 1;
nodes = (
(98,0,l),
(98,700,l),
(70,700,l),
(70,0,l)
);
},
{
closed = 1;
nodes = (
(560,0,l),
(321,289,l),
(290,289,l),
(529,0,l)
);
},
{
closed = 1;
nodes = (
(98,0,l),
(70,0,l),
(70,-54,ls),
(70,-110,o),
(114,-154,o),
(170,-154,cs),
(234,-154,l),
(234,-128,l),
(173,-128,ls),
(131,-128,o),
(98,-96,o),
(98,-55,c)
);
}
);
width = 582;
},
{
anchors = (
{
name = bottom;
pos = (307,0);
},
{
name = top;
pos = (307,700);
}
);
layerId = m002;
shapes = (
{
closed = 1;
nodes = (
(351,274,ls),
(478,274,o),
(577,368,o),
(577,487,cs),
(577,607,o),
(478,701,o),
(351,700,c),
(87,700,l),
(87,618,l),
(351,618,ls),
(427,618,o),
(487,560,o),
(487,487,cs),
(487,414,o),
(427,356,o),
(351,356,cs),
(87,356,l),
(87,274,l)
);
},
{
closed = 1;
nodes = (
(133,0,l),
(133,700,l),
(45,700,l),
(45,0,l)
);
},
{
closed = 1;
nodes = (
(604,0,l),
(341,318,l),
(232,318,l),
(495,0,l)
);
},
{
closed = 1;
nodes = (
(133,0,l),
(45,0,l),
(45,-94,ls),
(45,-144,o),
(85,-184,o),
(135,-184,cs),
(209,-184,l),
(209,-106,l),
(163,-106,ls),
(146,-106,o),
(133,-93,o),
(133,-76,c)
);
}
);
width = 614;
},
{
anchors = (
{
name = bottom;
pos = (337,0);
},
{
name = top;
pos = (337,700);
}
);
layerId = m003;
shapes = (
{
closed = 1;
nodes = (
(398,246,ls),
(525,246,o),
(625,346,o),
(625,473,cs),
(625,601,o),
(525,701,o),
(398,700,c),
(135,700,l),
(135,544,l),
(398,544,ls),
(438,544,o),
(469,513,o),
(469,473,cs),
(469,433,o),
(438,402,o),
(398,402,cs),
(135,402,l),
(135,246,l)
);
},
{
closed = 1;
nodes = (
(219,0,l),
(219,700,l),
(55,700,l),
(55,0,l)
);
},
{
closed = 1;
nodes = (
(654,0,l),
(391,318,l),
(207,318,l),
(470,0,l)
);
},
{
closed = 1;
nodes = (
(219,0,l),
(55,0,l),
(55,-79,ls),
(55,-157,o),
(117,-219,o),
(195,-219,cs),
(293,-219,l),
(293,-76,l),
(249,-76,ls),
(232,-76,o),
(219,-63,o),
(219,-46,c)
);
}
);
width = 664;
},
{
anchors = (
{
name = bottom;
pos = (249,0);
},
{
name = top;
pos = (372,700);
}
);
layerId = m004;
shapes = (
{
closed = 1;
nodes = (
(353,274,ls),
(480,274,o),
(594,367,o),
(615,486,cs),
(637,606,o),
(553,701,o),
(426,700,c),
(163,700,l),
(159,676,l),
(424,676,ls),
(534,676,o),
(604,594,o),
(586,488,cs),
(567,382,o),
(465,298,o),
(355,298,cs),
(92,298,l),
(88,274,l)
);
},
{
closed = 1;
nodes = (
(56,0,l),
(179,700,l),
(151,700,l),
(28,0,l)
);
},
{
closed = 1;
nodes = (
(518,0,l),
(330,289,l),
(299,289,l),
(487,0,l)
);
},
{
closed = 1;
nodes = (
(56,0,l),
(28,0,l),
(18,-53,ls),
(8,-109,o),
(46,-154,o),
(102,-154,cs),
(165,-154,l),
(169,-128,l),
(107,-128,ls),
(65,-128,o),
(39,-97,o),
(46,-56,c)
);
}
);
width = 582;
},
{
anchors = (
{
name = bottom;
pos = (265,0);
},
{
name = top;
pos = (388,700);
}
);
layerId = m005;
shapes = (
{
closed = 1;
nodes = (
(360,274,ls),
(487,274,o),
(599,365,o),
(620,484,cs),
(641,604,o),
(556,701,o),
(429,700,c),
(168,700,l),
(154,618,l),
(421,618,ls),
(497,618,o),
(544,563,o),
(531,490,cs),
(518,417,o),
(444,356,o),
(368,356,cs),
(107,356,l),
(93,274,l)
);
},
{
closed = 1;
nodes = (
(91,0,l),
(214,700,l),
(126,700,l),
(3,0,l)
);
},
{
closed = 1;
nodes = (
(562,0,l),
(355,318,l),
(246,318,l),
(453,0,l)
);
},
{
closed = 1;
nodes = (
(91,0,l),
(3,0,l),
(-13,-91,ls),
(-22,-141,o),
(13,-184,o),
(63,-184,cs),
(134,-184,l),
(148,-106,l),
(99,-106,ls),
(82,-106,o),
(74,-96,o),
(77,-79,c)
);
}
);
width = 614;
},
{
anchors = (
{
name = bottom;
pos = (295,0);
},
{
name = top;
pos = (418,700);
}
);
layerId = m006;
shapes = (
{
closed = 1;
nodes = (
(405,246,ls),
(532,246,o),
(643,341,o),
(665,468,cs),
(688,596,o),
(601,701,o),
(473,700,c),
(216,700,l),
(189,544,l),
(457,544,ls),
(497,544,o),
(518,518,o),
(511,478,cs),
(504,438,o),
(461,402,o),
(421,402,cs),
(164,402,l),
(136,246,l)
);
},
{
closed = 1;
nodes = (
(177,0,l),
(300,700,l),
(136,700,l),
(13,0,l)
);
},
{
closed = 1;
nodes = (
(612,0,l),
(405,318,l),
(221,318,l),
(428,0,l)
);
},
{
closed = 1;
nodes = (
(177,0,l),
(13,0,l),
(0,-74,ls),
(-14,-152,o),
(42,-219,o),
(120,-219,cs),
(212,-219,l),
(237,-76,l),
(188,-76,ls),
(171,-76,o),
(165,-68,o),
(168,-51,c)
);
}
);
width = 664;
}
);
unicode = 11364;
},
{
glyphname = S;
kernLeft = S;
kernRight = S;
lastChange = "2025-06-08 03:37:10 +0000";
layers = (
{
anchors = (
{
name = bottom;
pos = (250,0);
},
{
name = top;
pos = (250,700);
}
);
layerId = m01;
shapes = (
{
closed = 1;
nodes = (
(372,-16,o),
(469,88,o),
(469,182,c),
(469,326,o),
(386,353,o),
(294,383,cs),
(242,400,o),
(84,422,o),
(84,540,c),
(84,624,o),
(154,692,o),
(242,692,cs),
(330,692,o),
(400,619,o),
(400,525,c),
(430,525,l),
(430,632,o),
(345,716,o),
(237,716,cs),
(135,716,o),
(54,632,o),
(54,527,c),
(58,412,o),
(178,384,o),
(271,359,cs),
(359,335,o),
(439,308,o),
(439,186,c),
(439,96,o),
(352,8,o),
(242,8,cs),
(132,8,o),
(45,100,o),
(45,217,c),
(15,217,l),
(15,87,o),
(118,-16,o),
(248,-16,cs)
);
}
);
width = 499;
},
{
anchors = (
{
name = bottom;
pos = (272,0);
},
{
name = top;
pos = (272,700);
}
);
layerId = m002;
shapes = (
{
closed = 1;
nodes = (
(412,-16,o),
(524,71,o),
(524,211,c),
(524,372,o),
(355,407,o),
(308,420,cs),
(254,435,o),
(139,443,o),
(139,538,c),
(139,606,o),
(211,634,o),
(267,634,cs),
(323,634,o),
(395,587,o),
(395,525,c),
(485,525,l),
(485,633,o),
(380,716,o),
(262,716,cs),
(149,716,o),
(49,641,o),
(49,525,c),
(49,380,o),
(195,366,o),
(259,347,cs),
(323,328,o),
(434,317,o),
(434,198,c),
(434,118,o),
(345,66,o),
(267,66,cs),
(189,66,o),
(100,116,o),
(100,217,c),
(10,217,l),
(10,70,o),
(126,-16,o),
(273,-16,cs)
);
}
);
width = 544;
},
{
anchors = (
{
name = bottom;
pos = (310,0);
},
{
name = top;
pos = (310,700);
}
);
layerId = m003;
shapes = (
{
closed = 1;
nodes = (
(473,-16,o),
(600,84,o),
(600,211,cs),
(600,354,o),
(485,400,o),
(382,431,cs),
(300,456,o),
(225,471,o),
(225,518,cs),
(225,551,o),
(260,584,o),
(305,584,cs),
(355,584,o),
(395,554,o),
(395,515,c),
(561,515,l),
(561,628,o),
(446,716,o),
(300,716,cs),
(159,716,o),
(49,628,o),
(49,515,cs),
(49,392,o),
(179,358,o),
(286,323,cs),
(361,298,o),
(424,273,o),
(424,218,cs),
(424,161,o),
(372,116,o),
(305,116,cs),
(233,116,o),
(176,160,o),
(176,217,c),
(10,217,l),
(10,87,o),
(142,-16,o),
(311,-16,cs)
);
}
);
width = 620;
},
{
anchors = (
{
name = bottom;
pos = (208,0);
},
{
name = top;
pos = (331,700);
}
);
layerId = m004;
shapes = (
{
closed = 1;
nodes = (
(328,-16,o),
(442,87,o),
(459,181,c),
(484,325,o),
(405,353,o),
(318,383,cs),
(269,400,o),
(116,421,o),
(137,539,c),
(152,623,o),
(235,692,o),
(323,692,cs),
(411,692,o),
(467,620,o),
(450,526,c),
(480,524,l),
(499,631,o),
(428,716,o),
(320,716,cs),
(218,716,o),
(123,633,o),
(105,528,c),
(88,413,o),
(204,384,o),
(293,359,cs),
(377,335,o),
(451,309,o),
(430,187,c),
(414,97,o),
(310,8,o),
(200,8,cs),
(90,8,o),
(20,99,o),
(41,216,c),
(11,218,l),
(-12,88,o),
(74,-16,o),
(204,-16,cs)
);
}
);
width = 499;
},
{
anchors = (
{
name = bottom;
pos = (230,0);
},
{
name = top;
pos = (353,700);
}
);
layerId = m005;
shapes = (
{
closed = 1;
nodes = (
(370,-16,o),
(494,68,o),
(518,208,c),
(547,369,o),
(381,406,o),
(337,419,cs),
(285,434,o),
(174,440,o),
(191,535,c),
(203,603,o),
(284,634,o),
(340,634,cs),
(396,634,o),
(457,590,o),
(446,528,c),
(535,522,l),
(554,630,o),
(461,716,o),
(343,716,cs),
(230,716,o),
(120,644,o),
(100,528,c),
(74,383,o),
(220,367,o),
(281,348,cs),
(342,329,o),
(448,320,o),
(427,201,c),
(413,121,o),
(311,66,o),
(233,66,cs),
(155,66,o),
(78,113,o),
(95,214,c),
(6,220,l),
(-19,73,o),
(84,-16,o),
(231,-16,cs)
);
}
);
width = 544;
},
{
anchors = (
{
name = bottom;
pos = (268,0);
},
{
name = top;
pos = (391,700);
}
);
layerId = m006;
shapes = (
{
closed = 1;
nodes = (
(434,-16,o),
(572,79,o),
(594,206,cs),
(619,349,o),
(507,399,o),
(410,429,cs),
(332,454,o),
(265,466,o),
(273,513,cs),
(279,546,o),
(327,584,o),
(371,584,cs),
(421,584,o),
(451,559,o),
(444,520,c),
(609,510,l),
(628,623,o),
(524,716,o),
(378,716,cs),
(237,716,o),
(118,633,o),
(98,520,cs),
(77,397,o),
(206,359,o),
(306,325,cs),
(377,300,o),
(431,278,o),
(421,223,cs),
(411,166,o),
(344,116,o),
(277,116,cs),
(205,116,o),
(161,155,o),
(171,212,c),
(7,222,l),
(-16,92,o),
(103,-16,o),
(272,-16,cs)
);
}
);
width = 620;
}
);
unicode = 83;
},
{
glyphname = Germandbls;
lastChange = "2025-06-08 05:15:42 +0000";
layers = (
{
layerId = m01;
shapes = (
{
closed = 1;
nodes = (
(531,-16,o),
(634,85,o),
(634,214,cs),
(634,343,o),
(530,443,o),
(397,442,c),
(397,417,l),
(513,417,o),
(604,327,o),
(604,213,cs),
(604,99,o),
(513,9,o),
(397,9,cs),
(281,9,o),
(190,93,o),
(190,201,c),
(160,201,l),
(160,79,o),
(265,-16,o),
(399,-16,cs)
);
},
{
closed = 1;
nodes = (
(98,0,l),
(98,700,l),
(70,700,l),
(70,0,l)
);
},
{
closed = 1;
nodes = (
(402,417,l),
(402,426,l),
(595,674,l),
(561,674,l),
(373,429,l),
(373,417,l)
);
},
{
closed = 1;
nodes = (
(595,674,l),
(595,700,l),
(86,700,l),
(86,674,l)
);
}
);
width = 679;
},
{
layerId = m002;
shapes = (
{
closed = 1;
nodes = (
(571,-16,o),
(674,85,o),
(674,214,cs),
(674,343,o),
(570,443,o),
(437,442,c),
(437,360,l),
(519,360,o),
(584,295,o),
(584,213,cs),
(584,131,o),
(519,66,o),
(437,66,cs),
(355,66,o),
(290,125,o),
(290,201,c),
(200,201,l),
(200,79,o),
(305,-16,o),
(439,-16,cs)
);
},
{
closed = 1;
nodes = (
(133,0,l),
(133,700,l),
(45,700,l),
(45,0,l)
);
},
{
closed = 1;
nodes = (
(442,360,l),
(442,396,l),
(625,618,l),
(523,618,l),
(365,429,l),
(365,360,l)
);
},
{
closed = 1;
nodes = (
(625,618,l),
(625,700,l),
(96,700,l),
(96,618,l)
);
}
);
width = 704;
},
{
layerId = m003;
shapes = (
{
closed = 1;
nodes = (
(646,-16,o),
(754,90,o),
(754,224,cs),
(754,358,o),
(645,463,o),
(507,462,c),
(507,304,l),
(552,304,o),
(588,268,o),
(588,223,cs),
(588,178,o),
(552,142,o),
(507,142,cs),
(462,142,o),
(426,172,o),
(426,211,c),
(260,211,l),
(260,84,o),
(370,-16,o),
(509,-16,cs)
);
},
{
closed = 1;
nodes = (
(219,0,l),
(219,700,l),
(55,700,l),
(55,0,l)
);
},
{
closed = 1;
nodes = (
(522,304,l),
(522,336,l),
(705,544,l),
(503,544,l),
(395,409,l),
(395,304,l)
);
},
{
closed = 1;
nodes = (
(705,544,l),
(705,700,l),
(156,700,l),
(156,544,l)
);
}
);
width = 784;
},
{
layerId = m004;
shapes = (
{
closed = 1;
nodes = (
(487,-16,o),
(607,84,o),
(629,213,cs),
(652,342,o),
(565,443,o),
(432,442,c),
(429,417,l),
(545,417,o),
(619,328,o),
(599,214,cs),
(579,100,o),
(471,9,o),
(355,9,cs),
(239,9,o),
(164,92,o),
(183,200,c),
(153,202,l),
(132,80,o),
(221,-16,o),
(355,-16,cs)
);
},
{
closed = 1;
nodes = (
(56,0,l),
(179,700,l),
(151,700,l),
(28,0,l)
);
},
{
closed = 1;
nodes = (
(433,417,l),
(435,426,l),
(672,674,l),
(638,674,l),
(406,429,l),
(404,417,l)
);
},
{
closed = 1;
nodes = (
(672,674,l),
(676,700,l),
(167,700,l),
(163,674,l)
);
}
);
width = 693;
},
{
layerId = m005;
shapes = (
{
closed = 1;
nodes = (
(529,-16,o),
(646,82,o),
(669,211,cs),
(692,340,o),
(603,443,o),
(470,442,c),
(461,360,l),
(543,360,o),
(594,298,o),
(580,216,cs),
(565,134,o),
(485,66,o),
(403,66,cs),
(321,66,o),
(269,122,o),
(283,198,c),
(194,204,l),
(172,82,o),
(263,-16,o),
(397,-16,cs)
);
},
{
closed = 1;
nodes = (
(91,0,l),
(214,700,l),
(126,700,l),
(3,0,l)
);
},
{
closed = 1;
nodes = (
(463,360,l),
(470,396,l),
(692,618,l),
(590,618,l),
(398,429,l),
(386,360,l)
);
},
{
closed = 1;
nodes = (
(692,618,l),
(706,700,l),
(177,700,l),
(163,618,l)
);
}
);
width = 712;
},
{
layerId = m006;
shapes = (
{
closed = 1;
nodes = (
(607,-16,o),
(727,85,o),
(750,219,cs),
(774,353,o),
(679,463,o),
(540,462,c),
(524,304,l),
(569,304,o),
(594,273,o),
(586,228,cs),
(578,183,o),
(529,142,o),
(484,142,cs),
(439,142,o),
(413,167,o),
(420,206,c),
(256,216,l),
(233,89,o),
(331,-16,o),
(470,-16,cs)
);
},
{
closed = 1;
nodes = (
(177,0,l),
(300,700,l),
(136,700,l),
(13,0,l)
);
},
{
closed = 1;
nodes = (
(533,304,l),
(539,336,l),
(759,544,l),
(557,544,l),
(425,409,l),
(406,304,l)
);
},
{
closed = 1;
nodes = (
(759,544,l),
(786,700,l),
(237,700,l),
(210,544,l)
);
}
);
width = 798;
}
);
metricLeft = B;
metricRight = Ezh;
unicode = 7838;
},
{
glyphname = T;
kernLeft = T;
kernRight = T;
lastChange = "2025-06-08 05:15:42 +0000";
layers = (
{
anchors = (
{
name = bottom;
pos = (302,0);
},
{
name = center;
pos = (305,350);
},
{
name = "e-bottom";
pos = (235,10);
},
{
name = top;
pos = (305,700);
}
);
layerId = m01;
shapes = (
{
closed = 1;
nodes = (
(319,0,l),
(319,700,l),
(291,700,l),
(291,0,l)
);
},
{
closed = 1;
nodes = (
(600,676,l),
(600,700,l),
(10,700,l),
(10,676,l)
);
}
);
width = 610;
},
{
anchors = (
{
name = bottom;
pos = (305,0);
},
{
name = center;
pos = (305,350);
},
{
name = "e-bottom";
pos = (267,16);
},
{
name = top;
pos = (305,700);
}
);
layerId = m002;
shapes = (
{
closed = 1;
nodes = (
(349,0,l),
(349,700,l),
(261,700,l),
(261,0,l)
);
},
{
closed = 1;
nodes = (
(600,618,l),
(600,700,l),
(10,700,l),
(10,618,l)
);
}
);
width = 610;
},
{
anchors = (
{
name = bottom;
pos = (301,0);
},
{
name = center;
pos = (305,350);
},
{
name = "e-bottom";
pos = (273,17);
},
{
name = top;
pos = (305,700);
}
);
layerId = m003;
shapes = (
{
closed = 1;
nodes = (
(387,0,l),
(387,700,l),
(223,700,l),
(223,0,l)
);
},
{
closed = 1;
nodes = (
(600,544,l),
(600,700,l),
(10,700,l),
(10,544,l)
);
}
);
width = 610;
},
{
anchors = (
{
name = bottom;
pos = (22,0);
},
{
name = center;
pos = (86,350);
},
{
name = "e-bottom";
pos = (-44,10);
},
{
name = top;
pos = (148,700);
}
);
layerId = m004;
shapes = (
{
closed = 1;
nodes = (
(39,0,l),
(162,700,l),
(134,700,l),
(11,0,l)
);
},
{
closed = 1;
nodes = (
(439,676,l),
(443,700,l),
(-147,700,l),
(-151,676,l)
);
}
);
width = 618;
},
{
anchors = (
{
name = bottom;
pos = (45,0);
},
{
name = center;
pos = (106,350);
},
{
name = "e-bottom";
pos = (10,16);
},
{
name = top;
pos = (168,700);
}
);
layerId = m005;
shapes = (
{
closed = 1;
nodes = (
(89,0,l),
(212,700,l),
(124,700,l),
(1,0,l)
);
},
{
closed = 1;
nodes = (
(449,618,l),
(463,700,l),
(-127,700,l),
(-141,618,l)
);
}
);
width = 638;
},
{
anchors = (
{
name = bottom;
pos = (67,0);
},
{
name = center;
pos = (132,350);
},
{
name = "e-bottom";
pos = (42,17);
},
{
name = top;
pos = (194,700);
}
);
layerId = m006;
shapes = (
{
closed = 1;
nodes = (
(153,0,l),
(276,700,l),
(112,700,l),
(-11,0,l)
);
},
{
closed = 1;
nodes = (
(462,544,l),
(489,700,l),
(-101,700,l),
(-128,544,l)
);
}
);
width = 664;
}
);
metricLeft = A;
metricRight = A;
unicode = 84;
},
{
glyphname = Thook;
lastChange = "2025-06-08 05:15:42 +0000";
layers = (
{
anchors = (
{
name = bottom;
pos = (310,0);
},
{
name = center;
pos = (315,350);
},
{
name = "e-bottom";
pos = (249,14);
},
{
name = top;
pos = (310,700);
}
);
layerId = m01;
shapes = (
{
closed = 1;
nodes = (
(329,0,l),
(329,700,l),
(301,700,l),
(301,0,l)
);
},
{
closed = 1;
nodes = (
(610,676,l),
(610,700,l),
(154,700,l),
(154,676,l)
);
},
{
closed = 1;
nodes = (
(38,644,o),
(71,676,o),
(113,676,cs),
(154,676,l),
(154,700,l),
(110,700,ls),
(54,700,o),
(10,656,o),
(10,600,cs),
(10,561,l),
(38,561,l),
(38,603,l)
);
}
);
width = 620;
},
{
anchors = (
{
name = bottom;
pos = (300,0);
},
{
name = center;
pos = (305,350);
},
{
name = "e-bottom";
pos = (267,16);
},
{
name = top;
pos = (300,700);
}
);
layerId = m002;
shapes = (
{
closed = 1;
nodes = (
(349,0,l),
(349,700,l),
(261,700,l),
(261,0,l)
);
},
{
closed = 1;
nodes = (
(600,618,l),
(600,700,l),
(155,700,l),
(155,618,l)
);
},
{
closed = 1;
nodes = (
(88,605,o),
(101,618,o),
(118,618,cs),
(159,618,l),
(159,700,l),
(100,700,ls),
(50,700,o),
(10,660,o),
(10,610,cs),
(10,541,l),
(88,541,l),
(88,588,l)
);
}
);
width = 610;
},
{
anchors = (
{
name = bottom;
pos = (343,0);
},
{
name = center;
pos = (348,350);
},
{
name = "e-bottom";
pos = (316,17);
},
{
name = top;
pos = (343,700);
}
);
layerId = m003;
shapes = (
{
closed = 1;
nodes = (
(430,0,l),
(430,700,l),
(266,700,l),
(266,0,l)
);
},
{
closed = 1;
nodes = (
(643,544,l),
(643,700,l),
(208,700,l),
(208,544,l)
);
},
{
closed = 1;
nodes = (
(142,531,o),
(155,544,o),
(172,544,cs),
(208,544,l),
(208,700,l),
(150,700,ls),
(72,700,o),
(10,638,o),
(10,560,cs),
(10,491,l),
(142,491,l),
(142,514,l)
);
}
);
width = 653;
},
{
anchors = (
{
name = bottom;
pos = (70,0);
},
{
name = center;
pos = (136,350);
},
{
name = "e-bottom";
pos = (11,14);
},
{
name = top;
pos = (193,700);
}
);
layerId = m004;
shapes = (
{
closed = 1;
nodes = (
(89,0,l),
(212,700,l),
(184,700,l),
(61,0,l)
);
},
{
closed = 1;
nodes = (
(489,676,l),
(493,700,l),
(37,700,l),
(33,676,l)
);
},
{
closed = 1;
nodes = (
(-89,643,o),
(-49,676,o),
(-7,676,cs),
(33,676,l),
(37,700,l),
(-8,700,ls),
(-64,700,o),
(-115,657,o),
(-124,601,cs),
(-131,561,l),
(-103,561,l),
(-96,602,l)
);
}
);
width = 668;
},
{
anchors = (
{
name = bottom;
pos = (68,0);
},
{
name = center;
pos = (134,350);
},
{
name = "e-bottom";
pos = (38,16);
},
{
name = top;
pos = (191,700);
}
);
layerId = m005;
shapes = (
{
closed = 1;
nodes = (
(117,0,l),
(240,700,l),
(152,700,l),
(29,0,l)
);
},
{
closed = 1;
nodes = (
(477,618,l),
(491,700,l),
(46,700,l),
(32,618,l)
);
},
{
closed = 1;
nodes = (
(-38,602,o),
(-19,618,o),
(-2,618,cs),
(36,618,l),
(50,700,l),
(-12,700,ls),
(-62,700,o),
(-105,663,o),
(-114,613,cs),
(-127,541,l),
(-49,541,l),
(-41,585,l)
);
}
);
width = 666;
},
{
anchors = (
{
name = bottom;
pos = (129,0);
},
{
name = center;
pos = (195,350);
},
{
name = "e-bottom";
pos = (105,17);
},
{
name = top;
pos = (252,700);
}
);
layerId = m006;
shapes = (
{
closed = 1;
nodes = (
(216,0,l),
(339,700,l),
(175,700,l),
(52,0,l)
);
},
{
closed = 1;
nodes = (
(525,544,l),
(552,700,l),
(117,700,l),
(90,544,l)
);
},
{
closed = 1;
nodes = (
(20,526,o),
(42,544,o),
(59,544,cs),
(90,544,l),
(117,700,l),
(53,700,ls),
(-25,700,o),
(-91,643,o),
(-105,565,cs),
(-118,491,l),
(14,491,l),
(17,509,l)
);
}
);
width = 727;
}
);
metricLeft = T;
metricRight = T;
unicode = 428;
},
{
glyphname = Tretroflexhook;
lastChange = "2025-06-08 05:15:42 +0000";
layers = (
{
anchors = (
{
name = bottom;
pos = (300,0);
},
{
name = center;
pos = (305,350);
},
{
name = "e-bottom";
pos = (239,14);
},
{
name = top;
pos = (300,700);
}
);
layerId = m01;
shapes = (
{
closed = 1;
nodes = (
(319,-126,l),
(319,700,l),
(291,700,l),
(291,-126,l)
);
},
{
closed = 1;
nodes = (
(600,676,l),
(600,700,l),
(10,700,l),
(10,676,l)
);
},
{
closed = 1;
nodes = (
(319,-126,l),
(291,-126,l),
(291,-180,ls),
(291,-236,o),
(335,-280,o),
(391,-280,cs),
(455,-280,l),
(455,-254,l),
(394,-254,ls),
(352,-254,o),
(319,-222,o),
(319,-181,c)
);
}
);
width = 610;
},
{
anchors = (
{
name = bottom;
pos = (300,0);
},
{
name = center;
pos = (305,350);
},
{
name = "e-bottom";
pos = (267,16);
},
{
name = top;
pos = (300,700);
}
);
layerId = m002;
shapes = (
{
closed = 1;
nodes = (
(349,-96,l),
(349,700,l),
(261,700,l),
(261,-96,l)
);
},
{
closed = 1;
nodes = (
(600,618,l),
(600,700,l),
(10,700,l),
(10,618,l)
);
},
{
closed = 1;
nodes = (
(349,-96,l),
(261,-96,l),
(261,-190,ls),
(261,-240,o),
(301,-280,o),
(351,-280,cs),
(425,-280,l),
(425,-202,l),
(379,-202,ls),
(362,-202,o),
(349,-189,o),
(349,-172,c)
);
}
);
width = 610;
},
{
anchors = (
{
name = bottom;
pos = (300,0);
},
{
name = center;
pos = (305,350);
},
{
name = "e-bottom";
pos = (273,17);
},
{
name = top;
pos = (300,700);
}
);
layerId = m003;
shapes = (
{
closed = 1;
nodes = (
(387,-61,l),
(387,700,l),
(223,700,l),
(223,-61,l)
);
},
{
closed = 1;
nodes = (
(600,544,l),
(600,700,l),
(10,700,l),
(10,544,l)
);
},
{
closed = 1;
nodes = (
(387,-61,l),
(223,-61,l),
(223,-140,ls),
(223,-218,o),
(285,-280,o),
(363,-280,cs),
(461,-280,l),
(461,-137,l),
(417,-137,ls),
(400,-137,o),
(387,-124,o),
(387,-107,c)
);
}
);
width = 610;
},
{
anchors = (
{
name = bottom;
pos = (47,0);
},
{
name = center;
pos = (113,350);
},
{
name = "e-bottom";
pos = (-12,14);
},
{
name = top;
pos = (170,700);
}
);
layerId = m004;
shapes = (
{
closed = 1;
nodes = (
(43,-126,l),
(189,700,l),
(161,700,l),
(15,-126,l)
);
},
{
closed = 1;
nodes = (
(466,676,l),
(470,700,l),
(-120,700,l),
(-124,676,l)
);
},
{
closed = 1;
nodes = (
(43,-126,l),
(15,-126,l),
(6,-179,ls),
(-4,-235,o),
(33,-280,o),
(89,-280,cs),
(152,-280,l),
(157,-254,l),
(95,-254,ls),
(53,-254,o),
(26,-223,o),
(34,-182,c)
);
}
);
width = 645;
},
{
anchors = (
{
name = bottom;
pos = (79,0);
},
{
name = center;
pos = (145,350);
},
{
name = "e-bottom";
pos = (49,16);
},
{
name = top;
pos = (202,700);
}
);
layerId = m005;
shapes = (
{
closed = 1;
nodes = (
(111,-96,l),
(251,700,l),
(163,700,l),
(23,-96,l)
);
},
{
closed = 1;
nodes = (
(488,618,l),
(502,700,l),
(-88,700,l),
(-102,618,l)
);
},
{
closed = 1;
nodes = (
(111,-96,l),
(23,-96,l),
(7,-187,ls),
(-2,-237,o),
(33,-280,o),
(83,-280,cs),
(154,-280,l),
(168,-202,l),
(119,-202,ls),
(102,-202,o),
(94,-192,o),
(97,-175,c)
);
}
);
width = 677;
},
{
anchors = (
{
name = bottom;
pos = (101,0);
},
{
name = center;
pos = (167,350);
},
{
name = "e-bottom";
pos = (77,17);
},
{
name = top;
pos = (224,700);
}
);
layerId = m006;
shapes = (
{
closed = 1;
nodes = (
(177,-61,l),
(311,700,l),
(147,700,l),
(13,-61,l)
);
},
{
closed = 1;
nodes = (
(497,544,l),
(524,700,l),
(-66,700,l),
(-93,544,l)
);
},
{
closed = 1;
nodes = (
(177,-61,l),
(13,-61,l),
(0,-135,ls),
(-14,-213,o),
(42,-280,o),
(120,-280,cs),
(212,-280,l),
(238,-137,l),
(188,-137,ls),
(171,-137,o),
(165,-129,o),
(168,-112,c)
);
}
);
width = 699;
}
);
metricLeft = T;
metricRight = T;
unicode = 430;
},
{
glyphname = U;
kernLeft = U;
kernRight = U;
lastChange = "2025-06-08 05:15:42 +0000";
layers = (
{
anchors = (
{
name = bottom;
pos = (374,80);
},
{
name = ogonek;
pos = (645,50);
},
{
name = top;
pos = (374,700);
},
{
name = topright;
pos = (637,700);
}
);
layerId = m01;
shapes = (
{
closed = 1;
nodes = (
(547,-16,o),
(682,119,o),
(682,290,cs),
(682,700,l),
(654,700,l),
(654,290,l),
(654,133,o),
(532,10,o),
(376,10,cs),
(220,10,o),
(98,133,o),
(98,290,cs),
(98,700,l),
(70,700,l),
(70,290,l),
(70,119,o),
(205,-16,o),
(376,-16,cs)
);
}
);
width = 747;
},
{
anchors = (
{
name = bottom;
pos = (349,80);
},
{
name = ogonek;
pos = (577,56);
},
{
name = top;
pos = (349,700);
},
{
name = topright;
pos = (557,700);
}
);
layerId = m002;
shapes = (
{
closed = 1;
nodes = (
(522,-16,o),
(657,119,o),
(657,290,cs),
(657,700,l),
(567,700,l),
(567,290,l),
(567,165,o),
(472,66,o),
(351,66,cs),
(230,66,o),
(135,165,o),
(135,290,cs),
(135,700,l),
(45,700,l),
(45,290,l),
(45,119,o),
(180,-16,o),
(351,-16,cs)
);
}
);
width = 697;
},
{
anchors = (
{
name = bottom;
pos = (397,0);
},
{
name = ogonek;
pos = (626,60);
},
{
name = top;
pos = (397,700);
},
{
name = topright;
pos = (613,700);
}
);
layerId = m003;
shapes = (
{
closed = 1;
nodes = (
(592,-16,o),
(743,121,o),
(743,295,cs),
(743,700,l),
(577,700,l),
(577,290,l),
(577,206,o),
(499,140,o),
(399,140,cs),
(299,140,o),
(221,206,o),
(221,290,cs),
(221,700,l),
(55,700,l),
(55,295,l),
(55,121,o),
(206,-16,o),
(399,-16,cs)
);
}
);
width = 793;
},
{
anchors = (
{
name = bottom;
pos = (263,80);
},
{
name = ogonek;
pos = (528,50);
},
{
name = top;
pos = (372,700);
},
{
name = topright;
pos = (635,700);
}
);
layerId = m004;
shapes = (
{
closed = 1;
nodes = (
(420,-16,o),
(578,118,o),
(608,289,cs),
(680,700,l),
(652,700,l),
(580,291,l),
(552,134,o),
(407,10,o),
(251,10,cs),
(95,10,o),
(-4,132,o),
(24,289,cs),
(96,700,l),
(68,700,l),
(-4,291,l),
(-34,120,o),
(78,-16,o),
(249,-16,cs)
);
}
);
width = 664;
},
{
anchors = (
{
name = bottom;
pos = (237,80);
},
{
name = ogonek;
pos = (461,56);
},
{
name = top;
pos = (346,700);
},
{
name = topright;
pos = (554,700);
}
);
layerId = m005;
shapes = (
{
closed = 1;
nodes = (
(396,-16,o),
(551,116,o),
(581,287,cs),
(654,700,l),
(564,700,l),
(492,293,l),
(470,168,o),
(354,66,o),
(233,66,cs),
(112,66,o),
(37,162,o),
(59,287,cs),
(132,700,l),
(42,700,l),
(-30,293,l),
(-60,122,o),
(54,-16,o),
(225,-16,cs)
);
}
);
width = 613;
},
{
anchors = (
{
name = bottom;
pos = (267,0);
},
{
name = ogonek;
pos = (506,60);
},
{
name = top;
pos = (390,700);
},
{
name = topright;
pos = (606,700);
}
);
layerId = m006;
shapes = (
{
closed = 1;
nodes = (
(465,-16,o),
(633,116,o),
(664,290,cs),
(736,700,l),
(570,700,l),
(499,295,l),
(484,211,o),
(388,140,o),
(288,140,cs),
(188,140,o),
(126,201,o),
(141,285,cs),
(214,700,l),
(48,700,l),
(-22,300,l),
(-53,126,o),
(79,-16,o),
(272,-16,cs)
);
}
);
width = 705;
}
);
metricLeft = H;
metricRight = "=H-5";
unicode = 85;
},
{
glyphname = Ubar;
kernLeft = Ubar;
kernRight = Ubar;
lastChange = "2025-06-08 05:15:42 +0000";
layers = (
{
anchors = (
{
name = bottom;
pos = (461,0);
},
{
name = top;
pos = (461,700);
}
);
layerId = m01;
shapes = (
{
closed = 1;
nodes = (
(836,351,l),
(836,375,l),
(90,375,l),
(90,351,l)
);
},
{
pos = (87,0);
ref = U;
}
);
width = 921;
},
{
anchors = (
{
name = bottom;
pos = (436,0);
},
{
name = top;
pos = (436,700);
}
);
layerId = m002;
shapes = (
{
closed = 1;
nodes = (
(811,324,l),
(811,402,l),
(65,402,l),
(65,324,l)
);
},
{
pos = (87,0);
ref = U;
}
);
width = 871;
},
{
anchors = (
{
name = bottom;
pos = (473,0);
},
{
name = top;
pos = (473,700);
}
);
layerId = m003;
shapes = (
{
closed = 1;
nodes = (
(875,310,l),
(875,418,l),
(75,418,l),
(75,310,l)
);
},
{
pos = (86,0);
ref = U;
}
);
width = 945;
},
{
anchors = (
{
name = bottom;
pos = (394,0);
},
{
name = top;
pos = (517,700);
}
);
layerId = m004;
shapes = (
{
closed = 1;
nodes = (
(831,351,l),
(835,375,l),
(89,375,l),
(85,351,l)
);
},
{
pos = (20,0);
ref = U;
}
);
width = 782;
},
{
anchors = (
{
name = bottom;
pos = (369,0);
},
{
name = top;
pos = (492,700);
}
);
layerId = m005;
shapes = (
{
closed = 1;
nodes = (
(801,324,l),
(815,402,l),
(69,402,l),
(55,324,l)
);
},
{
pos = (20,0);
ref = U;
}
);
width = 742;
},
{
anchors = (
{
name = bottom;
pos = (407,0);
},
{
name = top;
pos = (530,700);
}
);
layerId = m006;
shapes = (
{
closed = 1;
nodes = (
(863,310,l),
(882,418,l),
(82,418,l),
(63,310,l)
);
},
{
pos = (20,0);
ref = U;
}
);
width = 821;
}
);
metricLeft = "=U+20";
metricRight = "=U+20";
unicode = 580;
},
{
glyphname = "Upsilon-latin";
lastChange = "2025-06-08 03:37:10 +0000";
layers = (
{
anchors = (
{
name = bottom;
pos = (310,0);
},
{
name = top;
pos = (310,700);
}
);
layerId = m01;
shapes = (
{
closed = 1;
nodes = (
(601,-16,o),
(760,136,o),
(760,330,cs),
(760,504,o),
(663,657,o),
(540,678,c),
(708,678,l),
(708,700,l),
(458,700,l),
(458,672,l),
(610,672,o),
(730,527,o),
(730,342,cs),
(730,156,o),
(584,10,o),
(398,10,c),
(220,10,o),
(80,155,o),
(80,340,cs),
(80,526,o),
(194,672,o),
(338,672,c),
(338,700,l),
(88,700,l),
(88,678,l),
(256,678,l),
(141,655,o),
(50,502,o),
(50,330,cs),
(50,136,o),
(203,-16,o),
(398,-16,c)
);
}
);
width = 810;
},
{
anchors = (
{
name = bottom;
pos = (393,0);
},
{
name = top;
pos = (393,700);
}
);
layerId = m002;
shapes = (
{
closed = 1;
nodes = (
(604,-16,o),
(760,137,o),
(760,331,cs),
(760,467,o),
(690,595,o),
(600,622,c),
(708,622,l),
(708,700,l),
(458,700,l),
(458,615,l),
(577,614,o),
(670,493,o),
(670,341,cs),
(670,187,o),
(553,66,o),
(405,66,c),
(257,66,o),
(140,187,o),
(140,341,cs),
(140,495,o),
(227,616,o),
(338,615,c),
(338,700,l),
(88,700,l),
(88,622,l),
(196,622,l),
(114,596,o),
(50,468,o),
(50,331,cs),
(50,137,o),
(206,-16,o),
(405,-16,c)
);
}
);
width = 810;
},
{
anchors = (
{
name = bottom;
pos = (330,0);
},
{
name = top;
pos = (330,700);
}
);
layerId = m003;
shapes = (
{
closed = 1;
nodes = (
(632,-16,o),
(800,129,o),
(800,314,cs),
(800,429,o),
(734,539,o),
(650,564,c),
(778,564,l),
(778,700,l),
(478,700,l),
(478,557,l),
(565,556,o),
(634,465,o),
(634,350,cs),
(634,234,o),
(539,142,o),
(418,142,c),
(305,142,o),
(216,234,o),
(216,350,cs),
(216,467,o),
(278,558,o),
(358,557,c),
(358,700,l),
(58,700,l),
(58,564,l),
(186,564,l),
(110,540,o),
(50,430,o),
(50,314,cs),
(50,129,o),
(212,-16,o),
(418,-16,c)
);
}
);
width = 850;
},
{
anchors = (
{
name = bottom;
pos = (268,0);
},
{
name = top;
pos = (391,700);
}
);
layerId = m004;
shapes = (
{
closed = 1;
nodes = (
(557,-16,o),
(742,135,o),
(776,329,cs),
(806,503,o),
(736,657,o),
(616,678,c),
(785,678,l),
(789,700,l),
(539,700,l),
(535,672,l),
(687,672,o),
(781,528,o),
(748,343,cs),
(715,157,o),
(542,10,o),
(356,10,c),
(178,10,o),
(65,154,o),
(97,339,cs),
(130,525,o),
(271,672,o),
(415,672,c),
(419,700,l),
(169,700,l),
(165,678,l),
(332,678,l),
(213,655,o),
(96,503,o),
(66,331,cs),
(32,137,o),
(159,-16,o),
(354,-16,c)
);
}
);
width = 810;
},
{
anchors = (
{
name = bottom;
pos = (351,0);
},
{
name = top;
pos = (474,700);
}
);
layerId = m005;
shapes = (
{
closed = 1;
nodes = (
(562,-16,o),
(741,134,o),
(776,328,cs),
(800,464,o),
(750,594,o),
(664,621,c),
(775,622,l),
(789,700,l),
(539,700,l),
(527,615,l),
(646,614,o),
(715,496,o),
(688,344,cs),
(661,190,o),
(519,66,o),
(371,66,c),
(223,66,o),
(130,184,o),
(157,338,cs),
(184,492,o),
(296,616,o),
(407,615,c),
(419,700,l),
(169,700,l),
(155,622,l),
(261,623,l),
(174,597,o),
(91,471,o),
(67,334,cs),
(32,140,o),
(164,-16,o),
(363,-16,c)
);
}
);
width = 810;
},
{
anchors = (
{
name = bottom;
pos = (288,0);
},
{
name = top;
pos = (411,700);
}
);
layerId = m006;
shapes = (
{
closed = 1;
nodes = (
(593,-16,o),
(779,124,o),
(812,309,cs),
(832,424,o),
(781,537,o),
(701,562,c),
(835,564,l),
(859,700,l),
(559,700,l),
(540,557,l),
(626,556,o),
(675,470,o),
(654,355,cs),
(634,239,o),
(516,142,o),
(395,142,c),
(282,142,o),
(214,229,o),
(234,345,cs),
(255,462,o),
(340,558,o),
(420,557,c),
(439,700,l),
(139,700,l),
(115,564,l),
(238,566,l),
(158,542,o),
(84,435,o),
(64,319,cs),
(31,134,o),
(173,-16,o),
(379,-16,c)
);
}
);
width = 850;
}
);
unicode = 433;
},
{
glyphname = V;
kernLeft = V;
kernRight = V;
lastChange = "2025-06-08 05:15:42 +0000";
layers = (
{
anchors = (
{
name = bottom;
pos = (296,0);
},
{
name = top;
pos = (296,700);
}
);
layerId = m01;
shapes = (
{
closed = 1;
nodes = (
(310,0,l),
(581,700,l),
(547,700,l),
(285,12,l),
(304,12,l),
(44,700,l),
(10,700,l),
(280,0,l)
);
}
);
width = 591;
},
{
anchors = (
{
name = bottom;
pos = (328,0);
},
{
name = top;
pos = (328,700);
}
);
layerId = m002;
shapes = (
{
closed = 1;
nodes = (
(373,0,l),
(646,700,l),
(550,700,l),
(315,69,l),
(340,69,l),
(107,700,l),
(10,700,l),
(283,0,l)
);
}
);
width = 656;
},
{
anchors = (
{
name = bottom;
pos = (358,0);
},
{
name = top;
pos = (358,700);
}
);
layerId = m003;
shapes = (
{
closed = 1;
nodes = (
(443,0,l),
(706,700,l),
(531,700,l),
(323,56,l),
(392,56,l),
(185,700,l),
(10,700,l),
(273,0,l)
);
}
);
width = 716;
},
{
anchors = (
{
name = bottom;
pos = (8,0);
},
{
name = top;
pos = (131,700);
}
);
layerId = m004;
shapes = (
{
closed = 1;
nodes = (
(22,0,l),
(416,700,l),
(382,700,l),
(-1,12,l),
(18,12,l),
(-121,700,l),
(-155,700,l),
(-8,0,l)
);
}
);
width = 591;
},
{
anchors = (
{
name = bottom;
pos = (40,0);
},
{
name = top;
pos = (163,700);
}
);
layerId = m005;
shapes = (
{
closed = 1;
nodes = (
(85,0,l),
(481,700,l),
(385,700,l),
(39,69,l),
(64,69,l),
(-58,700,l),
(-155,700,l),
(-5,0,l)
);
}
);
width = 656;
},
{
anchors = (
{
name = bottom;
pos = (70,0);
},
{
name = top;
pos = (193,700);
}
);
layerId = m006;
shapes = (
{
closed = 1;
nodes = (
(155,0,l),
(541,700,l),
(366,700,l),
(45,56,l),
(114,56,l),
(20,700,l),
(-155,700,l),
(-15,0,l)
);
}
);
width = 716;
}
);
metricLeft = A;
metricRight = A;
unicode = 86;
},
{
glyphname = "Gamma-latin";
lastChange = "2025-06-08 03:37:10 +0000";
layers = (
{
layerId = m01;
shapes = (
{
closed = 1;
nodes = (
(397,-16,o),
(488,70,o),
(418,168,c),
(330,296,l),
(558,700,l),
(524,700,l),
(313,328,l),
(84,700,l),
(50,700,l),
(290,313,l),
(202,168,l),
(132,70,o),
(212,-16,o),
(307,-16,cs)
);
},
{
closed = 1;
nodes = (
(221,10,o),
(182,80,o),
(220,141,c),
(307,277,l),
(399,141,l),
(437,80,o),
(391,10,o),
(307,10,cs)
);
}
);
width = 608;
},
{
layerId = m002;
shapes = (
{
closed = 1;
nodes = (
(449,-16,o),
(505,109,o),
(453,198,c),
(366,322,l),
(560,700,l),
(476,700,l),
(316,393,l),
(134,700,l),
(50,700,l),
(261,342,l),
(174,198,l),
(125,100,o),
(164,-16,o),
(309,-16,cs)
);
},
{
closed = 1;
nodes = (
(255,60,o),
(214,110,o),
(252,171,c),
(309,267,l),
(372,171,l),
(410,110,o),
(367,60,o),
(312,60,cs)
);
}
);
width = 610;
},
{
layerId = m003;
shapes = (
{
closed = 1;
nodes = (
(486,-16,o),
(575,116,o),
(530,214,c),
(463,339,l),
(620,700,l),
(456,700,l),
(335,418,l),
(214,700,l),
(50,700,l),
(202,356,l),
(136,214,l),
(92,116,o),
(172,-16,o),
(329,-16,cs)
);
},
{
closed = 1;
nodes = (
(277,120,o),
(282,168,o),
(292,191,c),
(329,277,l),
(371,191,l),
(386,167,o),
(379,120,o),
(329,120,cs)
);
}
);
width = 670;
},
{
layerId = m004;
shapes = (
{
closed = 1;
nodes = (
(353,-16,o),
(457,69,o),
(405,167,c),
(340,296,l),
(639,700,l),
(605,700,l),
(329,328,l),
(165,700,l),
(131,700,l),
(303,313,l),
(189,169,l),
(102,71,o),
(168,-16,o),
(263,-16,cs)
);
},
{
closed = 1;
nodes = (
(179,10,o),
(154,79,o),
(203,140,c),
(314,277,l),
(382,142,l),
(409,81,o),
(349,10,o),
(265,10,cs)
);
}
);
width = 608;
},
{
layerId = m005;
shapes = (
{
closed = 1;
nodes = (
(407,-16,o),
(480,107,o),
(444,196,c),
(380,322,l),
(641,700,l),
(557,700,l),
(343,393,l),
(215,700,l),
(131,700,l),
(279,342,l),
(166,200,l),
(99,102,o),
(122,-16,o),
(267,-16,cs)
);
},
{
closed = 1;
nodes = (
(220,60,o),
(192,108,o),
(241,169,c),
(314,267,l),
(362,173,l),
(389,112,o),
(332,60,o),
(277,60,cs)
);
}
);
width = 610;
},
{
layerId = m006;
shapes = (
{
closed = 1;
nodes = (
(447,-16,o),
(550,111,o),
(522,209,c),
(480,339,l),
(701,700,l),
(537,700,l),
(366,418,l),
(295,700,l),
(131,700,l),
(222,356,l),
(130,219,l),
(69,121,o),
(133,-16,o),
(290,-16,cs)
);
},
{
closed = 1;
nodes = (
(250,120,o),
(271,163,o),
(285,186,c),
(336,277,l),
(366,196,l),
(377,172,o),
(352,120,o),
(302,120,cs)
);
}
);
width = 670;
}
);
unicode = 404;
},
{
glyphname = "Gamma-latin.001";
lastChange = "2025-06-08 03:37:10 +0000";
layers = (
{
anchors = (
{
name = bottom;
pos = (292,0);
},
{
name = top;
pos = (292,700);
}
);
layerId = m01;
shapes = (
{
closed = 1;
nodes = (
(375,-16,o),
(446,120,o),
(376,218,c),
(272,395,l),
(438,700,l),
(404,700,l),
(249,412,l),
(84,700,l),
(50,700,l),
(224,398,l),
(122,218,l),
(52,120,o),
(114,-16,o),
(247,-16,cs)
);
},
{
closed = 1;
nodes = (
(127,10,o),
(102,130,o),
(140,191,c),
(247,377,l),
(359,191,l),
(397,130,o),
(366,10,o),
(247,10,cs)
);
}
);
width = 488;
},
{
anchors = (
{
name = bottom;
pos = (300,0);
},
{
name = top;
pos = (300,700);
}
);
layerId = m002;
shapes = (
{
closed = 1;
nodes = (
(383,-16,o),
(462,101,o),
(406,218,c),
(303,406,l),
(456,700,l),
(370,700,l),
(258,474,l),
(140,700,l),
(54,700,l),
(207,418,l),
(104,218,ls),
(48,101,o),
(122,-16,o),
(255,-16,cs)
);
},
{
closed = 1;
nodes = (
(197,66,o),
(146,125,o),
(180,191,cs),
(255,334,l),
(330,191,l),
(362,124,o),
(312,66,o),
(255,66,cs)
);
}
);
width = 600;
},
{
anchors = (
{
name = bottom;
pos = (311,0);
},
{
name = top;
pos = (311,700);
}
);
layerId = m003;
shapes = (
{
closed = 1;
nodes = (
(526,-16,o),
(597,150,o),
(551,257,c),
(456,425,l),
(595,700,l),
(431,700,l),
(325,488,l),
(215,700,l),
(50,700,l),
(189,435,l),
(93,257,ls),
(30,142,o),
(114,-16,o),
(323,-16,cs)
);
},
{
closed = 1;
nodes = (
(265,136,o),
(231,193,o),
(253,233,cs),
(323,356,l),
(391,233,l),
(411,188,o),
(379,136,o),
(323,136,cs)
);
}
);
width = 645;
},
{
anchors = (
{
name = bottom;
pos = (250,0);
},
{
name = top;
pos = (373,700);
}
);
layerId = m004;
shapes = (
{
closed = 1;
nodes = (
(331,-16,o),
(424,119,o),
(371,217,c),
(299,395,l),
(519,700,l),
(485,700,l),
(279,412,l),
(165,700,l),
(131,700,l),
(252,398,l),
(118,219,l),
(30,121,o),
(70,-16,o),
(203,-16,cs)
);
},
{
closed = 1;
nodes = (
(85,10,o),
(83,129,o),
(132,190,c),
(271,377,l),
(351,192,l),
(378,131,o),
(324,10,o),
(205,10,cs)
);
}
);
width = 488;
},
{
anchors = (
{
name = bottom;
pos = (258,0);
},
{
name = top;
pos = (381,700);
}
);
layerId = m005;
shapes = (
{
closed = 1;
nodes = (
(341,-16,o),
(436,98,o),
(400,215,c),
(332,406,l),
(537,700,l),
(451,700,l),
(299,474,l),
(221,700,l),
(135,700,l),
(238,418,l),
(99,221,ls),
(23,104,o),
(80,-16,o),
(213,-16,cs)
);
},
{
closed = 1;
nodes = (
(163,66,o),
(127,123,o),
(172,189,cs),
(272,334,l),
(323,194,l),
(343,127,o),
(278,66,o),
(221,66,cs)
);
}
);
width = 600;
},
{
anchors = (
{
name = bottom;
pos = (269,0);
},
{
name = top;
pos = (392,700);
}
);
layerId = m006;
shapes = (
{
closed = 1;
nodes = (
(487,-16,o),
(578,145,o),
(551,252,c),
(489,425,l),
(676,700,l),
(512,700,l),
(369,488,l),
(296,700,l),
(131,700,l),
(223,435,l),
(94,262,ls),
(11,147,o),
(75,-16,o),
(284,-16,cs)
);
},
{
closed = 1;
nodes = (
(241,136,o),
(225,188,o),
(254,228,cs),
(343,356,l),
(393,238,l),
(405,193,o),
(355,136,o),
(299,136,cs)
);
}
);
width = 645;
}
);
},
{
glyphname = Vhook;
lastChange = "2025-06-08 08:56:12 +0000";
layers = (
{
anchors = (
{
name = bottom;
pos = (313,0);
},
{
name = top;
pos = (313,700);
}
);
layerId = m01;
shapes = (
{
attr = {
identifier = ID0x7ff06eea3300;
};
closed = 1;
nodes = (
(480.727,261.225,o),
(368.914,8,o),
(217,8,c),
(140.855,8,o),
(78,96.288,o),
(78,211,c),
(78,700,l),
(50,700,l),
(50,211,l),
(50,85.712,o),
(121.145,-16,o),
(217,-16,c),
(393.086,-16,o),
(509.273,252.775,o),
(488.975,589.722,c),
(461.025,588.278,l)
);
},
{
closed = 1;
nodes = (
(321,700,l),
(373,704,ls),
(415,710,o),
(451,683,o),
(456,642,c),
(462,582,l),
(490,585,l),
(484,644,ls),
(478,699,o),
(429,737,o),
(373,731,cs),
(321,724,l)
);
}
);
width = 541;
},
{
anchors = (
{
name = bottom;
pos = (313,0);
},
{
name = top;
pos = (313,700);
}
);
layerId = m002;
shapes = (
{
attr = {
identifier = ID0x7ff06fe20a50;
};
closed = 1;
nodes = (
(470.503,298.247,o),
(390.58,66,o),
(267,66,c),
(197.624,66,o),
(138,136.913,o),
(138,235,c),
(138,700,l),
(50,700,l),
(50,235,l),
(50,97.087,o),
(142.376,-16,o),
(267,-16,c),
(469.62,-16,o),
(561.601,272.759,o),
(524.759,623.286,c),
(437.241,614.714,l)
);
},
{
closed = 1;
nodes = (
(339,653,l),
(392,659,ls),
(414,662,o),
(433,647,o),
(436,624,c),
(441,578,l),
(528,587,l),
(522,642,ls),
(516,700,o),
(464,741,o),
(404,734,cs),
(339,727,l)
);
}
);
width = 583;
},
{
anchors = (
{
name = bottom;
pos = (351,0);
},
{
name = top;
pos = (351,700);
}
);
layerId = m003;
shapes = (
{
attr = {
identifier = ID0x7ff0de5a0a20;
};
closed = 1;
nodes = (
(441.08,284.857,o),
(369.872,140,o),
(295,140,c),
(251.974,140,o),
(214,179.833,o),
(214,237,c),
(214,700,l),
(50,700,l),
(50,237,l),
(50,98.367,o),
(156.226,-16,o),
(295,-16,c),
(508.328,-16,o),
(609.039,237.547,o),
(586.771,534.826,c),
(423.229,523.174,l)
);
},
{
closed = 1;
nodes = (
(331,568,l),
(387,575,ls),
(403,577,o),
(418,565,o),
(420,548,c),
(424,512,l),
(587,530,l),
(577,618,l),
(571,685,o),
(513,732,o),
(445,724,cs),
(331,712,l)
);
}
);
width = 640;
},
{
anchors = (
{
name = bottom;
pos = (271,0);
},
{
name = top;
pos = (394,700);
}
);
layerId = m004;
shapes = (
{
attr = {
identifier = ID0x7ff06eea3300;
};
closed = 1;
nodes = (
(485,261,o),
(328.541,8,o),
(175,8,c),
(99.979,8,o),
(52.864,96.066,o),
(72.789,209.924,c),
(158.788,697.917,l),
(131.212,702.083,l),
(45.211,214.076,l),
(23.136,87.934,o),
(78.021,-16,o),
(175,-16,c),
(349.459,-16,o),
(511,251,o),
(551,587,c),
(523,589,l)
);
},
{
closed = 1;
nodes = (
(402,700,l),
(456,704,ls),
(499,710,o),
(529,683,o),
(527,643,c),
(522,582,l),
(551,585,l),
(555,643,ls),
(559,698,o),
(516,737,o),
(459,731,cs),
(406,724,l)
);
}
);
width = 541;
},
{
anchors = (
{
name = bottom;
pos = (271,0);
},
{
name = top;
pos = (394,700);
}
);
layerId = m005;
shapes = (
{
attr = {
identifier = ID0x7ff06fe20a50;
};
closed = 1;
nodes = (
(481,292,o),
(360.592,66,o),
(232,66,c),
(164.513,66,o),
(120.718,137.53,o),
(137.329,230.868,c),
(218.339,692.92,l),
(131.661,707.08,l),
(50.671,245.132,l),
(25.633,104.439,o),
(104.487,-16,o),
(232,-16,c),
(430.608,-16,o),
(566,259,o),
(591,605,c),
(504,611,l)
);
},
{
closed = 1;
nodes = (
(412,653,l),
(469,659,ls),
(491,662,o),
(506,650,o),
(505,627,c),
(501,578,l),
(589,587,l),
(592,639,ls),
(596,697,o),
(549,741,o),
(488,734,cs),
(425,727,l)
);
}
);
width = 583;
},
{
anchors = (
{
name = bottom;
pos = (309,0);
},
{
name = top;
pos = (432,700);
}
);
layerId = m006;
shapes = (
{
attr = {
identifier = ID0x7ff0de5a0a20;
};
closed = 1;
nodes = (
(448.347,292.789,o),
(353.981,140,o),
(269,140,c),
(230.808,140,o),
(203.893,177.362,o),
(212.77,228.542,c),
(293.747,686.416,l),
(132.253,713.584,l),
(51.23,255.458,l),
(25.013,104.332,o),
(131.8,-16,o),
(269,-16,c),
(474.019,-16,o),
(611,166,o),
(639,533,c),
(473.447,532.135,l)
);
},
{
closed = 1;
nodes = (
(389,568,l),
(452,574,ls),
(468,576,o),
(477,570,o),
(476,553,c),
(472,512,l),
(638,530,l),
(642,613,l),
(648,680,o),
(594,733,o),
(525,725,cs),
(414,712,l)
);
}
);
width = 640;
}
);
unicode = 434;
},
{
glyphname = W;
kernLeft = V;
kernRight = V;
lastChange = "2025-06-08 05:15:42 +0000";
layers = (
{
anchors = (
{
name = bottom;
pos = (450,0);
},
{
name = top;
pos = (450,700);
}
);
layerId = m01;
shapes = (
{
closed = 1;
nodes = (
(672,0,l),
(889,700,l),
(857,700,l),
(660,49,l),
(665,49,l),
(468,700,l),
(437,700,l),
(654,0,l)
);
},
{
closed = 1;
nodes = (
(246,0,l),
(463,700,l),
(432,700,l),
(235,49,l),
(240,49,l),
(43,700,l),
(10,700,l),
(227,0,l)
);
}
);
width = 899;
},
{
anchors = (
{
name = bottom;
pos = (503,0);
},
{
name = top;
pos = (503,700);
}
);
layerId = m002;
shapes = (
{
closed = 1;
nodes = (
(773,0,l),
(996,700,l),
(900,700,l),
(716,69,l),
(741,69,l),
(557,700,l),
(460,700,l),
(683,0,l)
);
},
{
closed = 1;
nodes = (
(323,0,l),
(546,700,l),
(450,700,l),
(266,69,l),
(291,69,l),
(107,700,l),
(10,700,l),
(233,0,l)
);
}
);
width = 1006;
},
{
anchors = (
{
name = bottom;
pos = (537,0);
},
{
name = top;
pos = (537,700);
}
);
layerId = m003;
shapes = (
{
closed = 1;
nodes = (
(840,0,l),
(1063,700,l),
(888,700,l),
(716,69,l),
(805,69,l),
(624,700,l),
(457,700,l),
(680,0,l)
);
},
{
closed = 1;
nodes = (
(393,0,l),
(616,700,l),
(450,700,l),
(269,69,l),
(358,69,l),
(185,700,l),
(10,700,l),
(233,0,l)
);
}
);
width = 1073;
},
{
anchors = (
{
name = bottom;
pos = (191,0);
},
{
name = top;
pos = (314,700);
}
);
layerId = m004;
shapes = (
{
closed = 1;
nodes = (
(413,0,l),
(753,700,l),
(721,700,l),
(409,49,l),
(414,49,l),
(332,700,l),
(301,700,l),
(395,0,l)
);
},
{
closed = 1;
nodes = (
(-13,0,l),
(327,700,l),
(296,700,l),
(-16,49,l),
(-11,49,l),
(-93,700,l),
(-126,700,l),
(-32,0,l)
);
}
);
width = 928;
},
{
anchors = (
{
name = bottom;
pos = (238,0);
},
{
name = top;
pos = (361,700);
}
);
layerId = m005;
shapes = (
{
closed = 1;
nodes = (
(508,0,l),
(854,700,l),
(758,700,l),
(463,69,l),
(488,69,l),
(415,700,l),
(318,700,l),
(418,0,l)
);
},
{
closed = 1;
nodes = (
(58,0,l),
(404,700,l),
(308,700,l),
(13,69,l),
(38,69,l),
(-35,700,l),
(-132,700,l),
(-32,0,l)
);
}
);
width = 1029;
},
{
anchors = (
{
name = bottom;
pos = (272,0);
},
{
name = top;
pos = (395,700);
}
);
layerId = m006;
shapes = (
{
closed = 1;
nodes = (
(575,0,l),
(921,700,l),
(746,700,l),
(463,69,l),
(552,69,l),
(482,700,l),
(315,700,l),
(415,0,l)
);
},
{
closed = 1;
nodes = (
(128,0,l),
(474,700,l),
(308,700,l),
(16,69,l),
(105,69,l),
(43,700,l),
(-132,700,l),
(-32,0,l)
);
}
);
width = 1096;
}
);
metricLeft = A;
metricRight = A;
unicode = 87;
},
{
glyphname = Whook;
lastChange = "2025-06-08 05:15:42 +0000";
layers = (
{
anchors = (
{
name = bottom;
pos = (300,0);
},
{
name = top;
pos = (300,700);
}
);
layerId = m01;
shapes = (
{
closed = 1;
nodes = (
(672,0,l),
(889,700,l),
(857,700,l),
(660,49,l),
(665,49,l),
(468,700,l),
(437,700,l),
(654,0,l)
);
},
{
closed = 1;
nodes = (
(246,0,l),
(463,700,l),
(432,700,l),
(235,49,l),
(240,49,l),
(43,700,l),
(10,700,l),
(227,0,l)
);
},
{
closed = 1;
nodes = (
(911,772,o),
(952,793,o),
(992,780,cs),
(1050,762,l),
(1058,787,l),
(995,806,ls),
(941,822,o),
(886,794,o),
(870,740,cs),
(852,684,l),
(881,676,l),
(899,733,l)
);
}
);
width = 1063;
},
{
anchors = (
{
name = bottom;
pos = (300,0);
},
{
name = top;
pos = (300,700);
}
);
layerId = m002;
shapes = (
{
closed = 1;
nodes = (
(773,0,l),
(996,700,l),
(900,700,l),
(716,69,l),
(741,69,l),
(557,700,l),
(460,700,l),
(683,0,l)
);
},
{
closed = 1;
nodes = (
(323,0,l),
(546,700,l),
(450,700,l),
(266,69,l),
(291,69,l),
(107,700,l),
(10,700,l),
(233,0,l)
);
},
{
closed = 1;
nodes = (
(1006,729,o),
(1022,738,o),
(1038,733,cs),
(1082,718,l),
(1104,788,l),
(1031,812,ls),
(983,828,o),
(933,802,o),
(918,754,cs),
(897,688,l),
(983,660,l),
(1000,713,l)
);
}
);
width = 1109;
},
{
anchors = (
{
name = bottom;
pos = (300,0);
},
{
name = top;
pos = (300,700);
}
);
layerId = m003;
shapes = (
{
closed = 1;
nodes = (
(840,0,l),
(1033,602,l),
(873,646,l),
(716,69,l),
(805,69,l),
(624,700,l),
(457,700,l),
(680,0,l)
);
},
{
closed = 1;
nodes = (
(393,0,l),
(616,700,l),
(450,700,l),
(269,69,l),
(358,69,l),
(185,700,l),
(10,700,l),
(233,0,l)
);
},
{
closed = 1;
nodes = (
(1045,645,o),
(1061,656,o),
(1077,652,cs),
(1118,641,l),
(1157,785,l),
(1071,808,ls),
(990,830,o),
(910,785,o),
(889,706,cs),
(873,646,l),
(1033,602,l),
(1041,629,l)
);
}
);
width = 1162;
},
{
anchors = (
{
name = bottom;
pos = (41,0);
},
{
name = top;
pos = (164,700);
}
);
layerId = m004;
shapes = (
{
closed = 1;
nodes = (
(413,0,l),
(753,700,l),
(721,700,l),
(409,49,l),
(414,49,l),
(332,700,l),
(301,700,l),
(395,0,l)
);
},
{
closed = 1;
nodes = (
(-13,0,l),
(327,700,l),
(296,700,l),
(-16,49,l),
(-11,49,l),
(-93,700,l),
(-126,700,l),
(-32,0,l)
);
},
{
closed = 1;
nodes = (
(788,771,o),
(833,793,o),
(871,780,cs),
(925,762,l),
(937,787,l),
(877,806,ls),
(826,822,o),
(767,795,o),
(741,741,cs),
(713,684,l),
(741,676,l),
(769,732,l)
);
}
);
width = 1122;
},
{
anchors = (
{
name = bottom;
pos = (35,0);
},
{
name = top;
pos = (158,700);
}
);
layerId = m005;
shapes = (
{
closed = 1;
nodes = (
(508,0,l),
(854,700,l),
(758,700,l),
(463,69,l),
(488,69,l),
(415,700,l),
(318,700,l),
(418,0,l)
);
},
{
closed = 1;
nodes = (
(58,0,l),
(404,700,l),
(308,700,l),
(13,69,l),
(38,69,l),
(-35,700,l),
(-132,700,l),
(-32,0,l)
);
},
{
closed = 1;
nodes = (
(870,726,o),
(890,739,o),
(905,734,cs),
(943,718,l),
(978,788,l),
(906,811,ls),
(861,827,o),
(809,805,o),
(785,757,cs),
(753,688,l),
(834,660,l),
(861,710,l)
);
}
);
width = 1164;
},
{
anchors = (
{
name = bottom;
pos = (35,0);
},
{
name = top;
pos = (158,700);
}
);
layerId = m006;
shapes = (
{
closed = 1;
nodes = (
(575,0,l),
(874,602,l),
(722,646,l),
(463,69,l),
(552,69,l),
(482,700,l),
(315,700,l),
(415,0,l)
);
},
{
closed = 1;
nodes = (
(128,0,l),
(474,700,l),
(308,700,l),
(16,69,l),
(105,69,l),
(43,700,l),
(-132,700,l),
(-32,0,l)
);
},
{
closed = 1;
nodes = (
(894,640,o),
(917,657,o),
(932,653,cs),
(966,641,l),
(1030,785,l),
(942,807,ls),
(865,829,o),
(783,790,o),
(748,711,cs),
(722,646,l),
(874,602,l),
(887,624,l)
);
}
);
width = 1215;
}
);
metricLeft = W;
metricRight = "=W-5";
unicode = 11378;
},
{
glyphname = X;
kernLeft = X;
kernRight = X;
lastChange = "2025-06-08 05:15:42 +0000";
layers = (
{
anchors = (
{
name = bottom;
pos = (302,0);
},
{
name = top;
pos = (302,700);
}
);
layerId = m01;
shapes = (
{
closed = 1;
nodes = (
(593,0,l),
(92,700,l),
(56,700,l),
(557,0,l)
);
},
{
closed = 1;
nodes = (
(46,0,l),
(308,367,l),
(287,388,l),
(10,0,l)
);
},
{
closed = 1;
nodes = (
(559,700,l),
(524,700,l),
(300,388,l),
(321,368,l)
);
}
);
width = 603;
},
{
anchors = (
{
name = bottom;
pos = (335,0);
},
{
name = top;
pos = (335,700);
}
);
layerId = m002;
shapes = (
{
closed = 1;
nodes = (
(660,0,l),
(159,700,l),
(57,700,l),
(558,0,l)
);
},
{
closed = 1;
nodes = (
(114,0,l),
(354,336,l),
(298,402,l),
(10,0,l)
);
},
{
closed = 1;
nodes = (
(627,700,l),
(524,700,l),
(311,402,l),
(370,341,l)
);
}
);
width = 670;
},
{
anchors = (
{
name = bottom;
pos = (375,0);
},
{
name = top;
pos = (375,700);
}
);
layerId = m003;
shapes = (
{
closed = 1;
nodes = (
(740,0,l),
(239,700,l),
(57,700,l),
(558,0,l)
);
},
{
closed = 1;
nodes = (
(184,0,l),
(424,336,l),
(298,402,l),
(10,0,l)
);
},
{
closed = 1;
nodes = (
(717,700,l),
(544,700,l),
(331,402,l),
(460,341,l)
);
}
);
width = 750;
},
{
anchors = (
{
name = bottom;
pos = (260,0);
},
{
name = top;
pos = (383,700);
}
);
layerId = m004;
shapes = (
{
closed = 1;
nodes = (
(551,0,l),
(173,700,l),
(137,700,l),
(515,0,l)
);
},
{
closed = 1;
nodes = (
(4,0,l),
(330,367,l),
(313,388,l),
(-32,0,l)
);
},
{
closed = 1;
nodes = (
(640,700,l),
(605,700,l),
(326,388,l),
(344,368,l)
);
}
);
width = 815;
},
{
anchors = (
{
name = bottom;
pos = (293,0);
},
{
name = top;
pos = (416,700);
}
);
layerId = m005;
shapes = (
{
closed = 1;
nodes = (
(618,0,l),
(240,700,l),
(138,700,l),
(516,0,l)
);
},
{
closed = 1;
nodes = (
(72,0,l),
(371,336,l),
(327,402,l),
(-32,0,l)
);
},
{
closed = 1;
nodes = (
(708,700,l),
(605,700,l),
(340,402,l),
(388,341,l)
);
}
);
width = 883;
},
{
anchors = (
{
name = bottom;
pos = (333,0);
},
{
name = top;
pos = (456,700);
}
);
layerId = m006;
shapes = (
{
closed = 1;
nodes = (
(698,0,l),
(320,700,l),
(138,700,l),
(516,0,l)
);
},
{
closed = 1;
nodes = (
(142,0,l),
(441,336,l),
(327,402,l),
(-32,0,l)
);
},
{
closed = 1;
nodes = (
(798,700,l),
(625,700,l),
(360,402,l),
(478,341,l)
);
}
);
width = 973;
}
);
metricLeft = A;
metricRight = A;
unicode = 88;
},
{
glyphname = Y;
kernLeft = Y;
kernRight = Y;
lastChange = "2025-06-08 05:15:42 +0000";
layers = (
{
anchors = (
{
name = bottom;
pos = (298,80);
},
{
name = top;
pos = (298,700);
},
{
name = topleft;
pos = (20,700);
}
);
layerId = m01;
shapes = (
{
closed = 1;
nodes = (
(312,0,l),
(312,282,l),
(586,700,l),
(551,700,l),
(288,295,l),
(308,295,l),
(45,700,l),
(10,700,l),
(284,282,l),
(284,0,l)
);
}
);
width = 596;
},
{
anchors = (
{
name = bottom;
pos = (328,80);
},
{
name = top;
pos = (328,700);
},
{
name = topleft;
pos = (20,700);
}
);
layerId = m002;
shapes = (
{
closed = 1;
nodes = (
(369,0,l),
(369,282,l),
(646,700,l),
(551,700,l),
(308,340,l),
(348,340,l),
(105,700,l),
(10,700,l),
(287,282,l),
(287,0,l)
);
}
);
width = 656;
},
{
anchors = (
{
name = bottom;
pos = (370,0);
},
{
name = top;
pos = (370,700);
},
{
name = topleft;
pos = (20,700);
}
);
layerId = m003;
shapes = (
{
closed = 1;
nodes = (
(453,0,l),
(453,282,l),
(730,700,l),
(548,700,l),
(350,394,l),
(390,394,l),
(192,700,l),
(10,700,l),
(287,282,l),
(287,0,l)
);
}
);
width = 740;
},
{
anchors = (
{
name = bottom;
pos = (24,80);
},
{
name = top;
pos = (133,700);
},
{
name = topleft;
pos = (-145,700);
}
);
layerId = m004;
shapes = (
{
closed = 1;
nodes = (
(24,0,l),
(73,282,l),
(421,700,l),
(386,700,l),
(52,295,l),
(72,295,l),
(-120,700,l),
(-155,700,l),
(45,282,l),
(-4,0,l)
);
}
);
width = 596;
},
{
anchors = (
{
name = bottom;
pos = (54,80);
},
{
name = top;
pos = (163,700);
},
{
name = topleft;
pos = (-145,700);
}
);
layerId = m005;
shapes = (
{
closed = 1;
nodes = (
(81,0,l),
(130,282,l),
(481,700,l),
(386,700,l),
(80,340,l),
(120,340,l),
(-60,700,l),
(-155,700,l),
(48,282,l),
(-1,0,l)
);
}
);
width = 656;
},
{
anchors = (
{
name = bottom;
pos = (82,0);
},
{
name = top;
pos = (205,700);
},
{
name = topleft;
pos = (-145,700);
}
);
layerId = m006;
shapes = (
{
closed = 1;
nodes = (
(165,0,l),
(214,282,l),
(565,700,l),
(383,700,l),
(131,394,l),
(171,394,l),
(27,700,l),
(-155,700,l),
(48,282,l),
(-1,0,l)
);
}
);
width = 740;
}
);
metricLeft = A;
metricRight = A;
unicode = 89;
},
{
glyphname = Yhook;
lastChange = "2025-06-08 05:15:42 +0000";
layers = (
{
anchors = (
{
name = bottom;
pos = (300,0);
},
{
name = top;
pos = (300,700);
},
{
name = topleft;
pos = (20,700);
}
);
layerId = m01;
shapes = (
{
closed = 1;
nodes = (
(312,0,l),
(312,282,l),
(586,700,l),
(551,700,l),
(288,295,l),
(308,295,l),
(45,700,l),
(10,700,l),
(284,282,l),
(284,0,l)
);
},
{
closed = 1;
nodes = (
(631,769,o),
(676,777,o),
(711,754,cs),
(761,721,l),
(775,743,l),
(722,778,ls),
(675,809,o),
(614,796,o),
(583,749,cs),
(551,700,l),
(575,684,l),
(608,734,l)
);
}
);
width = 780;
},
{
anchors = (
{
name = bottom;
pos = (300,0);
},
{
name = top;
pos = (300,700);
},
{
name = topleft;
pos = (20,700);
}
);
layerId = m002;
shapes = (
{
closed = 1;
nodes = (
(369,0,l),
(369,282,l),
(646,700,l),
(551,700,l),
(308,340,l),
(348,340,l),
(105,700,l),
(10,700,l),
(287,282,l),
(287,0,l)
);
},
{
closed = 1;
nodes = (
(658,717,o),
(676,721,o),
(690,712,cs),
(735,682,l),
(775,743,l),
(713,784,ls),
(672,811,o),
(616,800,o),
(589,758,cs),
(551,700,l),
(618,656,l),
(648,703,l)
);
}
);
width = 780;
},
{
anchors = (
{
name = bottom;
pos = (300,0);
},
{
name = top;
pos = (300,700);
},
{
name = topleft;
pos = (20,700);
}
);
layerId = m003;
shapes = (
{
closed = 1;
nodes = (
(453,0,l),
(453,282,l),
(730,700,l),
(548,700,l),
(350,394,l),
(390,394,l),
(192,700,l),
(10,700,l),
(287,282,l),
(287,0,l)
);
},
{
closed = 1;
nodes = (
(704,660,o),
(722,664,o),
(736,655,cs),
(783,624,l),
(862,743,l),
(764,808,ls),
(708,845,o),
(634,830,o),
(597,774,cs),
(548,700,l),
(675,616,l),
(695,646,l)
);
}
);
width = 867;
},
{
anchors = (
{
name = bottom;
pos = (12,0);
},
{
name = top;
pos = (135,700);
},
{
name = topleft;
pos = (-145,700);
}
);
layerId = m004;
shapes = (
{
closed = 1;
nodes = (
(24,0,l),
(73,282,l),
(421,700,l),
(386,700,l),
(52,295,l),
(72,295,l),
(-120,700,l),
(-155,700,l),
(45,282,l),
(-4,0,l)
);
},
{
closed = 1;
nodes = (
(479,768,o),
(526,777,o),
(557,754,cs),
(600,721,l),
(618,743,l),
(570,778,ls),
(528,809,o),
(466,797,o),
(426,750,cs),
(386,700,l),
(407,684,l),
(450,733,l)
);
}
);
width = 534;
},
{
anchors = (
{
name = bottom;
pos = (12,0);
},
{
name = top;
pos = (135,700);
},
{
name = topleft;
pos = (-145,700);
}
);
layerId = m005;
shapes = (
{
closed = 1;
nodes = (
(81,0,l),
(130,282,l),
(481,700,l),
(386,700,l),
(80,340,l),
(120,340,l),
(-60,700,l),
(-155,700,l),
(48,282,l),
(-1,0,l)
);
},
{
closed = 1;
nodes = (
(497,715,o),
(518,723,o),
(530,714,cs),
(567,682,l),
(618,743,l),
(560,782,ls),
(524,809,o),
(467,802,o),
(433,760,cs),
(386,700,l),
(445,656,l),
(485,701,l)
);
}
);
width = 534;
},
{
anchors = (
{
name = bottom;
pos = (12,0);
},
{
name = top;
pos = (135,700);
},
{
name = topleft;
pos = (-145,700);
}
);
layerId = m006;
shapes = (
{
closed = 1;
nodes = (
(165,0,l),
(214,282,l),
(565,700,l),
(383,700,l),
(131,394,l),
(171,394,l),
(27,700,l),
(-155,700,l),
(48,282,l),
(-1,0,l)
);
},
{
closed = 1;
nodes = (
(534,655,o),
(556,667,o),
(569,658,cs),
(605,624,l),
(705,743,l),
(613,805,ls),
(563,842,o),
(490,835,o),
(443,779,cs),
(383,700,l),
(495,616,l),
(523,641,l)
);
}
);
width = 621;
}
);
metricLeft = Y;
unicode = 435;
},
{
glyphname = Z;
kernLeft = Z;
kernRight = Z;
lastChange = "2025-06-08 05:15:42 +0000";
layers = (
{
anchors = (
{
name = bottom;
pos = (277,0);
},
{
name = center;
pos = (277,350);
},
{
name = top;
pos = (277,700);
}
);
layerId = m01;
shapes = (
{
closed = 1;
nodes = (
(66,24,l),
(511,678,l),
(480,678,l),
(35,24,l)
);
},
{
closed = 1;
nodes = (
(519,0,l),
(519,24,l),
(35,24,l),
(35,0,l)
);
},
{
closed = 1;
nodes = (
(511,678,l),
(511,700,l),
(54,700,l),
(54,678,l)
);
}
);
width = 554;
},
{
anchors = (
{
name = bottom;
pos = (265,0);
},
{
name = center;
pos = (265,350);
},
{
name = top;
pos = (265,700);
}
);
layerId = m002;
shapes = (
{
closed = 1;
nodes = (
(134,80,l),
(499,620,l),
(388,620,l),
(23,80,l)
);
},
{
closed = 1;
nodes = (
(507,0,l),
(507,80,l),
(23,80,l),
(23,0,l)
);
},
{
closed = 1;
nodes = (
(499,620,l),
(499,700,l),
(42,700,l),
(42,620,l)
);
}
);
width = 530;
},
{
anchors = (
{
name = bottom;
pos = (276,0);
},
{
name = center;
pos = (276,350);
},
{
name = top;
pos = (276,700);
}
);
layerId = m003;
shapes = (
{
closed = 1;
nodes = (
(219,156,l),
(524,548,l),
(333,548,l),
(28,156,l)
);
},
{
closed = 1;
nodes = (
(522,0,l),
(522,156,l),
(28,156,l),
(28,0,l)
);
},
{
closed = 1;
nodes = (
(524,548,l),
(524,700,l),
(47,700,l),
(47,548,l)
);
}
);
width = 552;
},
{
anchors = (
{
name = bottom;
pos = (277,0);
},
{
name = center;
pos = (339,350);
},
{
name = top;
pos = (401,700);
}
);
layerId = m004;
shapes = (
{
closed = 1;
nodes = (
(70,24,l),
(631,678,l),
(600,678,l),
(39,24,l)
);
},
{
closed = 1;
nodes = (
(519,0,l),
(523,24,l),
(39,24,l),
(35,0,l)
);
},
{
closed = 1;
nodes = (
(631,678,l),
(635,700,l),
(178,700,l),
(174,678,l)
);
}
);
width = 709;
},
{
anchors = (
{
name = bottom;
pos = (265,0);
},
{
name = center;
pos = (326,350);
},
{
name = top;
pos = (388,700);
}
);
layerId = m005;
shapes = (
{
closed = 1;
nodes = (
(148,80,l),
(608,620,l),
(497,620,l),
(37,80,l)
);
},
{
closed = 1;
nodes = (
(507,0,l),
(521,80,l),
(37,80,l),
(23,0,l)
);
},
{
closed = 1;
nodes = (
(608,620,l),
(622,700,l),
(165,700,l),
(151,620,l)
);
}
);
width = 684;
},
{
anchors = (
{
name = bottom;
pos = (276,0);
},
{
name = center;
pos = (337,350);
},
{
name = top;
pos = (399,700);
}
);
layerId = m006;
shapes = (
{
closed = 1;
nodes = (
(246,156,l),
(620,548,l),
(429,548,l),
(55,156,l)
);
},
{
closed = 1;
nodes = (
(522,0,l),
(549,156,l),
(55,156,l),
(28,0,l)
);
},
{
closed = 1;
nodes = (
(620,548,l),
(647,700,l),
(170,700,l),
(143,548,l)
);
}
);
width = 714;
}
);
metricLeft = "=H/2";
metricRight = "=|Z";
unicode = 90;
},
{
glyphname = a;
kernLeft = o;
kernRight = straight;
lastChange = "2025-06-08 05:15:42 +0000";
layers = (
{
anchors = (
{
name = bottom;
pos = (315,80);
},
{
name = ogonek;
pos = (648,10);
},
{
name = top;
pos = (315,480);
}
);
layerId = m01;
shapes = (
{
closed = 1;
nodes = (
(564,0,l),
(564,480,l),
(536,480,l),
(536,0,l)
);
},
{
pos = (50,0);
ref = Bowl;
}
);
width = 629;
},
{
anchors = (
{
name = bottom;
pos = (301,80);
},
{
name = ogonek;
pos = (582,10);
},
{
name = top;
pos = (301,480);
}
);
layerId = m002;
shapes = (
{
closed = 1;
nodes = (
(551,0,l),
(551,480,l),
(469,480,l),
(469,0,l)
);
},
{
pos = (25,0);
ref = Bowl;
}
);
width = 601;
},
{
anchors = (
{
name = bottom;
pos = (306,0);
},
{
name = ogonek;
pos = (540,10);
},
{
name = top;
pos = (288,480);
}
);
layerId = m003;
shapes = (
{
closed = 1;
nodes = (
(561,0,l),
(561,480,l),
(399,480,l),
(399,0,l)
);
},
{
pos = (25,0);
ref = Bowl;
}
);
width = 611;
},
{
anchors = (
{
name = bottom;
pos = (287,80);
},
{
name = ogonek;
pos = (607,10);
},
{
name = top;
pos = (357,480);
}
);
layerId = m004;
shapes = (
{
closed = 1;
nodes = (
(522,0,l),
(606,480,l),
(578,480,l),
(494,0,l)
);
},
{
pos = (50,0);
ref = Bowl;
}
);
width = 629;
},
{
anchors = (
{
name = bottom;
pos = (316,80);
},
{
name = ogonek;
pos = (584,10);
},
{
name = top;
pos = (386,480);
}
);
layerId = m005;
shapes = (
{
closed = 1;
nodes = (
(552,0,l),
(636,480,l),
(554,480,l),
(470,0,l)
);
},
{
pos = (26,0);
ref = Bowl;
}
);
width = 644;
},
{
anchors = (
{
name = bottom;
pos = (307,0);
},
{
name = ogonek;
pos = (542,10);
},
{
name = top;
pos = (373,480);
}
);
layerId = m006;
shapes = (
{
closed = 1;
nodes = (
(562,0,l),
(646,480,l),
(484,480,l),
(400,0,l)
);
},
{
pos = (26,0);
ref = Bowl;
}
);
width = 654;
}
);
metricLeft = o;
metricRight = "=|n";
unicode = 97;
},
